<svg width="60" height="60" viewBox="0 0 60 60" fill="none" xmlns="http://www.w3.org/2000/svg">
<path d="M30 60C46.5685 60 60 46.5685 60 30C60 13.4315 46.5685 0 30 0C13.4315 0 0 13.4315 0 30C0 46.5685 13.4315 60 30 60Z" fill="#BAC8D3"/>
<path d="M54.2188 20H5.78125C5.57405 20 5.37534 20.0823 5.22882 20.2288C5.08231 20.3753 5 20.574 5 20.7812V28.1992C5 28.6307 5.3498 28.9805 5.78125 28.9805C6.2127 28.9805 6.56377 29.3315 6.56377 29.7631C6.56377 30.1945 6.2127 30.5456 5.78125 30.5456C5.3498 30.5456 5 30.8954 5 31.3269V37.3014C5 37.5086 5.08231 37.7073 5.22882 37.8538C5.37534 38.0003 5.57405 38.0826 5.78125 38.0826H7.88701V39.8659C7.88701 40.0731 7.96932 40.2718 8.11583 40.4183C8.26235 40.5649 8.46106 40.6472 8.66826 40.6472H26.9526C27.1598 40.6472 27.3586 40.5649 27.5051 40.4183C27.6516 40.2718 27.7339 40.0731 27.7339 39.8659V38.0826H29.9405V39.8659C29.9405 40.0731 30.0228 40.2718 30.1693 40.4183C30.3159 40.5649 30.5146 40.6472 30.7218 40.6472H51.6525C51.8597 40.6472 52.0585 40.5649 52.205 40.4183C52.3515 40.2718 52.4338 40.0731 52.4338 39.8659V38.0826H54.2188C54.4259 38.0826 54.6247 38.0003 54.7712 37.8538C54.9177 37.7073 55 37.5086 55 37.3014V31.3269C55 30.8954 54.6502 30.5456 54.2188 30.5456C53.7873 30.5456 53.4362 30.1945 53.4362 29.7631C53.4362 29.3315 53.7873 28.9805 54.2188 28.9805C54.6502 28.9805 55 28.6307 55 28.1992V20.7812C55 20.574 54.9177 20.3753 54.7712 20.2288C54.6247 20.0823 54.4259 20 54.2188 20ZM26.1714 39.0846H9.44951V38.0825H26.1714V39.0846ZM50.8713 39.0846H31.503V38.0825H50.8713V39.0846ZM53.4375 27.5518C52.5274 27.8743 51.8737 28.7437 51.8737 29.7631C51.8737 30.7824 52.5273 31.6518 53.4375 31.9743V36.5201H6.5625V31.9743C7.47256 31.6518 8.12627 30.7824 8.12627 29.7631C8.12627 28.7437 7.47256 27.8743 6.5625 27.5518V21.5625H53.4375V27.5518ZM9.79072 33.037H12.6176C12.8248 33.037 13.0235 32.9547 13.17 32.8082C13.3165 32.6617 13.3988 32.463 13.3988 32.2558V23.274C13.3988 23.0668 13.3165 22.8681 13.17 22.7216C13.0235 22.5751 12.8248 22.4928 12.6176 22.4928H9.79072C9.58352 22.4928 9.38481 22.5751 9.2383 22.7216C9.09178 22.8681 9.00947 23.0668 9.00947 23.274V32.2558C9.00947 32.463 9.09178 32.6617 9.2383 32.8082C9.38481 32.9547 9.58352 33.037 9.79072 33.037ZM10.572 24.0553H11.8363V31.4745H10.572V24.0553ZM16.056 33.037H18.8829C19.0901 33.037 19.2888 32.9547 19.4353 32.8082C19.5819 32.6617 19.6642 32.463 19.6642 32.2558V23.274C19.6642 23.0668 19.5819 22.8681 19.4353 22.7216C19.2888 22.5751 19.0901 22.4928 18.8829 22.4928H16.056C15.8488 22.4928 15.65 22.5751 15.5035 22.7216C15.357 22.8681 15.2747 23.0668 15.2747 23.274V32.2558C15.2747 32.463 15.357 32.6617 15.5035 32.8082C15.65 32.9547 15.8488 33.037 16.056 33.037ZM16.8372 24.0553H18.1017V31.4745H16.8372V24.0553ZM22.3213 33.037H25.1481C25.3553 33.037 25.5541 32.9547 25.7006 32.8082C25.8471 32.6617 25.9294 32.463 25.9294 32.2558V23.274C25.9294 23.0668 25.8471 22.8681 25.7006 22.7216C25.5541 22.5751 25.3553 22.4928 25.1481 22.4928H22.3213C22.1141 22.4928 21.9154 22.5751 21.7689 22.7216C21.6223 22.8681 21.54 23.0668 21.54 23.274V32.2558C21.54 32.463 21.6223 32.6617 21.7689 32.8082C21.9154 32.9547 22.1141 33.037 22.3213 33.037ZM23.1025 24.0553H24.3669V31.4745H23.1025V24.0553ZM28.5865 33.037H31.4134C31.6206 33.037 31.8193 32.9547 31.9658 32.8082C32.1123 32.6617 32.1946 32.463 32.1946 32.2558V23.274C32.1946 23.0668 32.1123 22.8681 31.9658 22.7216C31.8193 22.5751 31.6206 22.4928 31.4134 22.4928H28.5865C28.3793 22.4928 28.1806 22.5751 28.0341 22.7216C27.8876 22.8681 27.8053 23.0668 27.8053 23.274V32.2558C27.8053 32.463 27.8876 32.6617 28.0341 32.8082C28.1806 32.9547 28.3793 33.037 28.5865 33.037ZM29.3678 24.0553H30.6321V31.4745H29.3678V24.0553ZM34.8519 33.037H37.6787C37.8859 33.037 38.0846 32.9547 38.2311 32.8082C38.3777 32.6617 38.46 32.463 38.46 32.2558V23.274C38.46 23.0668 38.3777 22.8681 38.2311 22.7216C38.0846 22.5751 37.8859 22.4928 37.6787 22.4928H34.8519C34.6447 22.4928 34.4459 22.5751 34.2994 22.7216C34.1529 22.8681 34.0706 23.0668 34.0706 23.274V32.2558C34.0706 32.463 34.1529 32.6617 34.2994 32.8082C34.4459 32.9547 34.6447 33.037 34.8519 33.037ZM35.6331 24.0553H36.8975V31.4745H35.6331V24.0553ZM41.1171 33.037H43.944C44.1512 33.037 44.35 32.9547 44.4965 32.8082C44.643 32.6617 44.7253 32.463 44.7253 32.2558V23.274C44.7253 23.0668 44.643 22.8681 44.4965 22.7216C44.35 22.5751 44.1512 22.4928 43.944 22.4928H41.1171C40.9099 22.4928 40.7112 22.5751 40.5647 22.7216C40.4182 22.8681 40.3358 23.0668 40.3358 23.274V32.2558C40.3358 32.463 40.4182 32.6617 40.5647 32.8082C40.7112 32.9547 40.9099 33.037 41.1171 33.037ZM41.8983 24.0553H43.1628V31.4745H41.8983V24.0553ZM47.3824 33.037H50.2093C50.4165 33.037 50.6152 32.9547 50.7617 32.8082C50.9082 32.6617 50.9905 32.463 50.9905 32.2558V23.274C50.9905 23.0668 50.9082 22.8681 50.7617 22.7216C50.6152 22.5751 50.4165 22.4928 50.2093 22.4928H47.3824C47.1752 22.4928 46.9765 22.5751 46.83 22.7216C46.6835 22.8681 46.6012 23.0668 46.6012 23.274V32.2558C46.6012 32.463 46.6835 32.6617 46.83 32.8082C46.9765 32.9547 47.1752 33.037 47.3824 33.037ZM48.1637 24.0553H49.428V31.4745H48.1637V24.0553Z" fill="black"/>
</svg>
