<svg width="60" height="60" viewBox="0 0 60 60" fill="none" xmlns="http://www.w3.org/2000/svg">
<path d="M30 60C46.5685 60 60 46.5685 60 30C60 13.4315 46.5685 0 30 0C13.4315 0 0 13.4315 0 30C0 46.5685 13.4315 60 30 60Z" fill="#BAC8D3"/>
<path d="M28.8952 31.2407C28.9301 31.3943 29.0246 31.5278 29.1579 31.6118C29.2912 31.6958 29.4524 31.7234 29.6061 31.6885C29.7597 31.6537 29.8932 31.5592 29.9772 31.4259C30.0612 31.2926 30.0888 31.1313 30.0539 30.9777C29.7392 29.591 28.954 28.3324 27.843 27.4338C26.7147 26.5213 25.2929 26.0188 23.8392 26.0188C20.3243 26.0188 17.4648 28.8783 17.4648 32.3932C17.4648 35.908 20.3244 38.7675 23.8392 38.7675C26.7254 38.7675 29.2585 36.8211 29.9992 34.0342C30.0397 33.8819 30.018 33.7198 29.9389 33.5835C29.8599 33.4472 29.7299 33.3479 29.5776 33.3074C29.4253 33.267 29.2632 33.2886 29.1269 33.3677C28.9906 33.4468 28.8913 33.5767 28.8508 33.729C28.2483 35.996 26.1874 37.5793 23.8392 37.5793C20.9795 37.5793 18.6531 35.2528 18.6531 32.3932C18.6531 29.5335 20.9796 27.207 23.8392 27.207C25.039 27.207 26.165 27.6049 27.0958 28.3577C28.0002 29.0893 28.6392 30.1131 28.8952 31.2407Z" fill="black"/>
<path d="M20.7148 32.3932C20.7148 34.1163 22.1167 35.5181 23.8398 35.5181C25.5628 35.5181 26.9647 34.1163 26.9647 32.3932C26.9647 30.6702 25.5628 29.2683 23.8398 29.2683C22.1167 29.2683 20.7148 30.6702 20.7148 32.3932ZM25.7765 32.3932C25.7765 33.4611 24.9076 34.3299 23.8398 34.3299C22.7719 34.3299 21.9031 33.4611 21.9031 32.3932C21.9031 31.3253 22.7719 30.4565 23.8398 30.4565C24.9076 30.4565 25.7765 31.3253 25.7765 32.3932ZM49.5677 19.5384H48.4034C48.3118 19.2572 48.1986 18.9836 48.0646 18.72L48.8879 17.8968C49.2738 17.5107 49.2738 16.8826 48.8878 16.4965L47.7832 15.3918C47.3971 15.0058 46.7689 15.006 46.3829 15.3919L45.5597 16.215C45.2961 16.081 45.0224 15.9678 44.7413 15.8762V14.7119C44.7413 14.1658 44.2971 13.7217 43.7511 13.7217H42.1889C41.6429 13.7217 41.1987 14.1658 41.1987 14.7119V15.8761C40.9175 15.9677 40.6439 16.081 40.3803 16.2149L39.5571 15.3917C39.171 15.0057 38.5428 15.0059 38.1568 15.3918L37.0521 16.4965C36.6662 16.8826 36.6662 17.5106 37.0522 17.8967L37.8754 18.7199C37.7414 18.9835 37.6281 19.2571 37.5366 19.5383H36.3722C35.8262 19.5383 35.382 19.9824 35.382 20.5285V22.0907C35.382 22.6367 35.8262 23.0809 36.3722 23.0809H37.5365C37.628 23.3621 37.7413 23.6357 37.8753 23.8993L37.052 24.7224C36.6661 25.1085 36.6661 25.7366 37.0521 26.1227L38.1568 27.2275C38.5429 27.6135 39.1712 27.6134 39.5571 27.2274L40.3803 26.4043C40.6439 26.5383 40.9175 26.6516 41.1987 26.7431V27.9074C41.1987 28.4534 41.6429 28.8976 42.1889 28.8976H43.7511C44.2971 28.8976 44.7413 28.4534 44.7413 27.9074V26.7431C45.0225 26.6516 45.2961 26.5383 45.5597 26.4043L46.3828 27.2275C46.7688 27.6135 47.3971 27.6134 47.7831 27.2274L48.8878 26.1228C49.2737 25.7367 49.2737 25.1086 48.8877 24.7225L48.0645 23.8993C48.1985 23.6357 48.3118 23.3621 48.4033 23.081H49.5677C50.1137 23.081 50.5579 22.6368 50.5579 22.0908V20.5285C50.5579 19.9825 50.1137 19.5384 49.5677 19.5384ZM49.3697 21.8927H48.2571C47.8157 21.8927 47.4341 22.1786 47.3075 22.6041C47.219 22.9013 47.1001 23.1886 46.9527 23.4614C46.7414 23.8519 46.8091 24.3239 47.1212 24.6361L47.9076 25.4225L47.0831 26.2472L46.2965 25.4608C45.9846 25.1487 45.5124 25.0809 45.1219 25.2923C44.8491 25.4398 44.5618 25.5587 44.2646 25.6471C43.839 25.7738 43.5531 26.1554 43.5531 26.5967V27.7093H42.3869V26.5967C42.3869 26.1554 42.101 25.7738 41.6754 25.647C41.3783 25.5586 41.0911 25.4397 40.8183 25.2923C40.4277 25.0809 39.9555 25.1485 39.6436 25.4606L38.857 26.2471L38.0325 25.4225L38.8189 24.6361C39.1309 24.3241 39.1987 23.852 38.9874 23.4613C38.84 23.1885 38.7211 22.9012 38.6326 22.604C38.5059 22.1785 38.1243 21.8926 37.683 21.8926H36.5702V20.7264H37.6828C38.1242 20.7264 38.5058 20.4405 38.6324 20.0149C38.7209 19.7177 38.8398 19.4304 38.9872 19.1577C39.1986 18.767 39.1308 18.2949 38.8187 17.9829L38.0323 17.1965L38.8568 16.3719L39.6434 17.1582C39.9553 17.4704 40.4275 17.5381 40.818 17.3267C41.0908 17.1792 41.3781 17.0603 41.6754 16.9719C42.1009 16.8453 42.3868 16.4637 42.3868 16.0223V14.9099H43.5529V16.0225C43.5529 16.4639 43.8388 16.8456 44.2643 16.9721C44.5615 17.0605 44.8488 17.1794 45.1216 17.3269C45.5125 17.5384 45.9844 17.4705 46.2962 17.1585L47.0828 16.372L47.9074 17.1966L47.1208 17.9832C46.8089 18.2953 46.7412 18.7673 46.9524 19.1578C47.0999 19.4306 47.2188 19.7179 47.3072 20.0151C47.4339 20.4406 47.8155 20.7265 48.2568 20.7265H49.3697V21.8927Z" fill="black"/>
<path d="M42.969 18.5142C41.4276 18.5142 40.1735 19.7682 40.1735 21.3096C40.1735 22.8511 41.4276 24.1051 42.969 24.1051C44.5104 24.1051 45.7645 22.8511 45.7645 21.3096C45.7645 19.7682 44.5104 18.5142 42.969 18.5142ZM42.969 22.917C42.0828 22.917 41.3618 22.196 41.3618 21.3097C41.3618 20.4235 42.0828 19.7025 42.969 19.7025C43.8552 19.7025 44.5763 20.4235 44.5763 21.3097C44.5763 22.196 43.8552 22.917 42.969 22.917ZM32.2288 18.4928C33.8544 18.4928 35.3586 17.5447 36.0608 16.0774C36.0955 16.0069 36.1159 15.9302 36.1208 15.8518C36.1257 15.7734 36.1149 15.6948 36.0892 15.6205C36.0635 15.5463 36.0233 15.4779 35.971 15.4193C35.9186 15.3606 35.8552 15.313 35.7843 15.2791C35.7135 15.2452 35.6366 15.2256 35.5581 15.2216C35.4796 15.2176 35.4011 15.2292 35.3272 15.2558C35.2532 15.2823 35.1853 15.3232 35.1272 15.3762C35.0692 15.4292 35.0223 15.4931 34.9891 15.5644C34.4831 16.6215 33.3997 17.3045 32.2288 17.3045C30.5425 17.3045 29.1706 15.9326 29.1706 14.2463C29.1706 12.5601 30.5425 11.1882 32.2288 11.1882C33.53 11.1882 34.691 12.0141 35.1178 13.2433C35.17 13.3914 35.2788 13.5129 35.4203 13.5811C35.5618 13.6492 35.7246 13.6586 35.873 13.6071C36.0214 13.5555 36.1434 13.4473 36.2122 13.3061C36.281 13.1649 36.2911 13.0022 36.2402 12.8535C35.6477 11.1467 34.0356 10 32.2288 10C29.8873 10 27.9824 11.9049 27.9824 14.2463C27.9824 16.5878 29.8873 18.4928 32.2288 18.4928Z" fill="black"/>
<path d="M32.2294 16.5422C32.387 16.5422 32.5381 16.4796 32.6495 16.3682C32.761 16.2567 32.8235 16.1056 32.8235 15.9481V14.8405H33.931C34.2592 14.8405 34.5251 14.5745 34.5251 14.2464C34.5251 13.9183 34.2592 13.6523 33.931 13.6523H32.8235V12.5448C32.8235 12.2167 32.5576 11.9507 32.2294 11.9507C31.9013 11.9507 31.6353 12.2167 31.6353 12.5448V13.6523H30.5278C30.3703 13.6523 30.2192 13.7149 30.1077 13.8263C29.9963 13.9377 29.9337 14.0888 29.9337 14.2464C29.9337 14.404 29.9963 14.5551 30.1077 14.6665C30.2192 14.7779 30.3703 14.8405 30.5278 14.8405H31.6353V15.948C31.6353 16.026 31.6507 16.1033 31.6805 16.1754C31.7104 16.2475 31.7541 16.313 31.8093 16.3681C31.8645 16.4233 31.93 16.4671 32.0021 16.4969C32.0742 16.5268 32.1514 16.5422 32.2294 16.5422ZM46.2941 35.4513L38.961 31.2174C38.8104 31.1308 38.6396 31.0852 38.4659 31.0852C38.2921 31.0852 38.1214 31.1308 37.9708 31.2174L37.679 31.3859V30.7185C37.679 30.0852 37.1637 29.5699 36.5304 29.5699H33.7365C33.5207 28.8114 33.218 28.0804 32.8346 27.3913L34.8098 25.416C35.2576 24.9682 35.2576 24.2396 34.8098 23.7917L32.4412 21.423C32.3348 21.316 32.2082 21.2312 32.0688 21.1734C31.9293 21.1156 31.7798 21.0861 31.6289 21.0865C31.478 21.0861 31.3285 21.1156 31.1891 21.1734C31.0497 21.2311 30.9231 21.3159 30.8167 21.4229L28.8415 23.3981C28.1525 23.0147 27.4215 22.712 26.663 22.4962V19.7023C26.663 19.069 26.1477 18.5537 25.5144 18.5537H22.1646C21.5313 18.5537 21.016 19.069 21.016 19.7023V22.4962C20.2575 22.712 19.5265 23.0147 18.8374 23.3981L16.8622 21.4229C16.6453 21.206 16.3568 21.0864 16.0501 21.0864C15.7433 21.0864 15.4548 21.2059 15.2379 21.4229L12.8691 23.7917C12.4213 24.2396 12.4213 24.9682 12.8691 25.416L14.8443 27.3912C14.4609 28.0803 14.1582 28.8113 13.9424 29.5698H11.1486C10.5153 29.5698 10 30.0851 10 30.7184V34.0682C10 34.7015 10.5153 35.2168 11.1486 35.2168H13.9425C14.1583 35.9753 14.4609 36.7063 14.8444 37.3953L12.8691 39.3705C12.4213 39.8184 12.4213 40.5471 12.8691 40.9949L15.2378 43.3636C15.3442 43.4706 15.4708 43.5554 15.6102 43.6131C15.7496 43.6709 15.8991 43.7004 16.05 43.7C16.3568 43.7 16.6453 43.5805 16.8622 43.3636L18.8374 41.3884C19.5264 41.7718 20.2574 42.0745 21.0159 42.2903V45.0842C21.0159 45.7175 21.5312 46.2328 22.1645 46.2328H25.5143C26.1476 46.2328 26.6629 45.7175 26.6629 45.0842V42.2903C27.4214 42.0745 28.1524 41.7718 28.8415 41.3884L30.1423 42.6892V44.7764C30.1423 45.1291 30.332 45.4577 30.6374 45.6339L37.9706 49.8677C38.1211 49.9545 38.2919 50.0002 38.4657 50C38.637 50 38.8082 49.9559 38.9608 49.8677L46.2938 45.634C46.4442 45.5469 46.5691 45.4219 46.656 45.2714C46.7429 45.1209 46.7888 44.9502 46.7891 44.7764V42.0408C46.7891 41.7127 46.5231 41.4467 46.195 41.4467C45.8668 41.4467 45.6008 41.7127 45.6008 42.0408V44.6621L38.4657 48.7816L31.3305 44.6621V36.4231L38.4657 32.3035L45.6008 36.4231V39.2683C45.6008 39.5964 45.8668 39.8624 46.195 39.8624C46.5231 39.8624 46.7891 39.5964 46.7891 39.2683V36.3088C46.7889 36.135 46.743 35.9644 46.6562 35.8139C46.5693 35.6634 46.4445 35.5384 46.2941 35.4513ZM30.6375 35.4513C30.4871 35.5384 30.3623 35.6634 30.2754 35.8139C30.1885 35.9644 30.1427 36.135 30.1424 36.3088V41.0089L29.6604 40.5268C29.2985 40.165 28.7319 40.088 28.2824 40.3396C27.6614 40.6872 27.0015 40.9604 26.3165 41.1535C25.8209 41.2931 25.4748 41.7482 25.4748 42.26V45.0446H22.2042V42.26C22.2042 41.7482 21.858 41.2931 21.3625 41.1535C20.6774 40.9604 20.0176 40.6873 19.3965 40.3396C18.9471 40.0881 18.3805 40.165 18.0186 40.5268L16.0501 42.4954L13.7373 40.1828L15.7059 38.2143C16.0677 37.8524 16.1447 37.2858 15.893 36.8363C15.5455 36.2153 15.2723 35.5554 15.0792 34.8704C14.9395 34.3748 14.4845 34.0287 13.9727 34.0287H11.1882V30.7581H13.9727C14.4845 30.7581 14.9396 30.4119 15.0793 29.9163C15.2724 29.2313 15.5455 28.5715 15.8931 27.9504C16.1448 27.501 16.0678 26.9343 15.7059 26.5725L13.7373 24.6039L16.05 22.2912L18.0185 24.2598C18.3804 24.6216 18.9469 24.6986 19.3964 24.4469C20.0175 24.0994 20.6774 23.8262 21.3624 23.6331C21.8579 23.4934 22.2041 23.0384 22.2041 22.5266V19.742H25.4747V22.5266C25.4747 23.0384 25.8209 23.4934 26.3164 23.6331C27.0014 23.8262 27.6613 24.0994 28.2824 24.4469C28.7317 24.6986 29.2984 24.6216 29.6603 24.2598L31.6288 22.2912L33.9416 24.6039L31.973 26.5724C31.611 26.9343 31.534 27.501 31.7858 27.9503C32.1333 28.5714 32.4065 29.2313 32.5995 29.9163C32.7393 30.4119 33.1943 30.7581 33.7061 30.7581H36.4906V32.0719L30.6375 35.4513Z" fill="black"/>
<path d="M33.543 40.5425C33.543 43.2571 35.7514 45.4655 38.4659 45.4655C41.1804 45.4655 43.3887 43.2571 43.3887 40.5425C43.3887 37.828 41.1803 35.6196 38.4659 35.6196C35.7514 35.6196 33.543 37.828 33.543 40.5425ZM42.2006 40.5425C42.2006 42.6019 40.5253 44.2772 38.466 44.2772C36.4066 44.2772 34.7313 42.6019 34.7313 40.5425C34.7313 38.4832 36.4066 36.8078 38.466 36.8078C40.5253 36.8078 42.2006 38.4832 42.2006 40.5425Z" fill="black"/>
<path d="M35.6816 40.5426C35.6816 42.0777 36.9306 43.3267 38.4658 43.3267C40.0009 43.3267 41.2498 42.0777 41.2498 40.5426C41.2498 39.0074 40.0009 37.7584 38.4658 37.7584C36.9306 37.7584 35.6816 39.0074 35.6816 40.5426ZM40.0617 40.5426C40.0617 41.4225 39.3458 42.1385 38.4659 42.1385C37.5859 42.1385 36.8699 41.4225 36.8699 40.5426C36.8699 39.6626 37.5859 38.9466 38.4659 38.9466C39.3458 38.9466 40.0617 39.6626 40.0617 40.5426Z" fill="black"/>
</svg>
