<svg width="60" height="60" viewBox="0 0 60 60" fill="none" xmlns="http://www.w3.org/2000/svg">
<path d="M30 60C46.5685 60 60 46.5685 60 30C60 13.4315 46.5685 0 30 0C13.4315 0 0 13.4315 0 30C0 46.5685 13.4315 60 30 60Z" fill="#BAC8D3"/>
<path d="M40.6665 11.9957V27.9967C40.4916 27.9967 40.3183 28.0312 40.1568 28.0982C39.9952 28.1653 39.8484 28.2635 39.7248 28.3873C39.6012 28.5111 39.5033 28.6581 39.4366 28.8198C39.3698 28.9815 39.3357 29.1548 39.336 29.3297L39.3335 35.3345H12.6685C11.1768 35.3345 10 36.5365 10 38.003V44.6655C10 46.132 11.1818 47.334 12.6685 47.334H13.3338V49.3322C13.3312 49.7001 13.6311 50.0025 14.0015 50H18.6708C19.0387 50 19.3385 49.6976 19.336 49.3322V47.334H40.669V49.3322C40.669 49.7026 40.9689 50.0025 41.3393 50H46.0035C46.0914 50.0003 46.1785 49.9833 46.2598 49.9499C46.3411 49.9165 46.415 49.8673 46.4773 49.8053C46.5396 49.7433 46.589 49.6695 46.6227 49.5884C46.6564 49.5072 46.6738 49.4201 46.6738 49.3322V47.334H47.339C48.8308 47.334 50.005 46.132 50.005 44.6655V38.003C50.005 36.5365 48.8308 35.332 47.339 35.332H46.0035V29.3322C46.0028 28.9796 45.8625 28.6415 45.6131 28.3922C45.3637 28.1428 45.0257 28.0024 44.673 28.0018L44.6705 12.0008C44.6705 11.4701 44.4597 10.9612 44.0845 10.586C43.7093 10.2108 43.2004 10 42.6698 10C42.1391 10 41.6302 10.2108 41.255 10.586C40.8798 10.9612 40.669 11.4701 40.669 12.0008L40.6665 11.9957ZM42.6698 11.333C43.0326 11.333 43.335 11.6152 43.335 11.9957V27.9967H42.002V11.9957C42.002 11.6177 42.3069 11.333 42.6698 11.333ZM23.7105 17.5343C21.4422 17.5378 19.1971 17.9918 17.1057 18.8699C15.0142 19.748 13.118 21.0328 11.527 22.6496C10.8769 23.2569 11.8773 24.2472 12.477 23.5845C13.9437 22.0945 15.6918 20.9107 17.6198 20.1017C19.5477 19.2928 21.6172 18.875 23.7079 18.8724C27.9211 18.8724 31.963 20.5682 34.9439 23.5845C35.5487 24.2497 36.5365 23.2519 35.8914 22.6496C34.3003 21.0339 32.4043 19.75 30.3134 18.8724C28.2224 17.9947 25.9781 17.5383 23.7105 17.5343ZM23.7105 21.7299C21.9882 21.7312 20.2833 22.0748 18.6949 22.7405C17.1065 23.4062 15.6662 24.3809 14.4576 25.6079C13.7672 26.1925 14.8406 27.2156 15.4025 26.5402C16.4878 25.4387 17.7811 24.5636 19.2073 23.9658C20.6334 23.368 22.1641 23.0594 23.7105 23.0578C26.825 23.0578 29.811 24.3102 32.0184 26.5428C32.6282 27.1878 33.6008 26.2278 32.9684 25.6079C31.7588 24.3806 30.3176 23.4057 28.7284 22.7395C27.1392 22.0734 25.4336 21.7319 23.7105 21.7299ZM23.7105 25.9178C21.3343 25.9178 19.0639 26.8678 17.3857 28.5637C16.7381 29.1609 17.7233 30.1663 18.3306 29.5036C19.0338 28.7909 19.8717 28.2249 20.7954 27.8387C21.7192 27.4524 22.7105 27.2535 23.7117 27.2535C24.713 27.2535 25.7043 27.4524 26.628 27.8387C27.5518 28.2249 28.3896 28.7909 29.0928 29.5036C29.7127 30.1587 30.6804 29.181 30.0428 28.5637C29.2148 27.7257 28.2287 27.0604 27.1418 26.6062C26.0548 26.1521 24.8885 25.9181 23.7105 25.9178ZM40.669 29.3322H44.668V35.3345H40.6665L40.669 29.3322ZM23.7079 30.1083C22.4304 30.1083 21.2083 30.6199 20.3062 31.5295C19.651 32.1645 20.6287 33.1322 21.2561 32.4694C21.5763 32.1437 21.9581 31.885 22.3792 31.7085C22.8004 31.5319 23.2525 31.4409 23.7092 31.4409C24.1659 31.4409 24.618 31.5319 25.0392 31.7085C25.4604 31.885 25.8421 32.1437 26.1623 32.4694C26.7897 33.1246 27.7599 32.1595 27.1072 31.5295C26.6623 31.0795 26.1326 30.7221 25.5487 30.4782C24.9648 30.2342 24.3408 30.1085 23.7079 30.1083ZM12.6685 36.67H47.3365C48.0874 36.67 48.6695 37.2622 48.6695 38.003V44.6655C48.6695 45.4164 48.0673 46.001 47.334 46.001H12.671C12.4952 46.0027 12.3208 45.9693 12.158 45.9028C11.9952 45.8362 11.8473 45.7379 11.7229 45.6136C11.5986 45.4892 11.5003 45.3413 11.4337 45.1785C11.3672 45.0158 11.3338 44.8413 11.3355 44.6655V38.003C11.3355 37.2622 11.9201 36.6675 12.671 36.6675L12.6685 36.67ZM15.9972 38.003C15.4673 38.003 14.959 38.2135 14.5843 38.5883C14.2095 38.963 13.999 39.4713 13.999 40.0012C13.999 40.5312 14.2095 41.0395 14.5843 41.4142C14.959 41.789 15.4673 41.9995 15.9972 41.9995C16.2681 42.0131 16.5389 41.9715 16.7932 41.8772C17.0474 41.7829 17.2799 41.6379 17.4764 41.4511C17.6729 41.2642 17.8294 41.0393 17.9363 40.79C18.0432 40.5408 18.0984 40.2724 18.0984 40.0012C18.0984 39.7301 18.0432 39.4617 17.9363 39.2125C17.8294 38.9632 17.6729 38.7383 17.4764 38.5514C17.2799 38.3646 17.0474 38.2196 16.7932 38.1253C16.5389 38.031 16.2681 37.9894 15.9972 38.003ZM21.3393 38.003C20.2154 38.003 19.3335 38.9026 19.3335 39.9987C19.3335 41.0949 20.228 41.9995 21.3393 41.9995C21.8693 41.9995 22.3775 41.789 22.7523 41.4142C23.127 41.0395 23.3375 40.5312 23.3375 40.0012C23.3375 39.4713 23.127 38.963 22.7523 38.5883C22.3775 38.2135 21.8693 38.003 21.3393 38.003ZM26.6713 38.003C26.4028 37.9928 26.135 38.0368 25.8838 38.1324C25.6327 38.228 25.4034 38.3731 25.2096 38.5593C25.0158 38.7454 24.8614 38.9686 24.7558 39.2157C24.6502 39.4628 24.5954 39.7286 24.5947 39.9973C24.594 40.266 24.6475 40.5321 24.7519 40.7797C24.8563 41.0273 25.0095 41.2513 25.2023 41.4384C25.3952 41.6255 25.6238 41.7718 25.8744 41.8687C26.1251 41.9655 26.3926 42.0108 26.6612 42.002C27.1793 41.985 27.6705 41.7675 28.0315 41.3954C28.3924 41.0234 28.5949 40.5257 28.5962 40.0074C28.5975 39.489 28.3976 38.9904 28.0385 38.6165C27.6794 38.2426 27.1893 38.0227 26.6713 38.003ZM15.9972 39.331C16.3525 39.331 16.6675 39.6233 16.6675 39.9987C16.6675 40.1758 16.5972 40.3457 16.4719 40.4709C16.3467 40.5961 16.1768 40.6665 15.9997 40.6665C15.8226 40.6665 15.6528 40.5961 15.5276 40.4709C15.4023 40.3457 15.332 40.1758 15.332 39.9987C15.332 39.6233 15.6419 39.331 15.9972 39.331ZM21.3393 39.331C21.6971 39.331 22.002 39.6233 22.002 39.9987C22.002 40.3742 21.6996 40.664 21.3393 40.664C20.979 40.664 20.6665 40.3767 20.6665 39.9987C20.6665 39.6208 20.9815 39.331 21.3393 39.331ZM26.6713 39.331C27.0215 39.331 27.334 39.6233 27.334 39.9987C27.334 40.3742 27.0316 40.664 26.6713 40.664C26.3084 40.664 26.001 40.3767 26.001 39.9987C26.001 39.6208 26.321 39.331 26.6713 39.331ZM30.6652 39.331C29.7959 39.331 29.7959 40.664 30.6652 40.664H36.6725C37.5419 40.664 37.5419 39.3285 36.6725 39.3285L30.6652 39.331ZM39.6686 39.331C38.7968 39.331 38.7968 40.664 39.6686 40.664H41.3368C42.2061 40.664 42.2061 39.3285 41.3368 39.3285L39.6686 39.331ZM14.6642 47.334H17.998V48.667H14.6667L14.6642 47.334ZM41.9995 47.334H45.3332V48.667H42.0045L41.9995 47.334Z" fill="black"/>
</svg>
