<svg width="60" height="60" viewBox="0 0 60 60" fill="none" xmlns="http://www.w3.org/2000/svg">
<path d="M30 60C46.5685 60 60 46.5685 60 30C60 13.4315 46.5685 0 30 0C13.4315 0 0 13.4315 0 30C0 46.5685 13.4315 60 30 60Z" fill="#BAC8D3"/>
<path d="M45.3231 21.8956C45.7525 21.895 46.164 21.724 46.4675 21.4203C46.7709 21.1166 46.9415 20.705 46.9419 20.2756V11.6194C46.9414 11.1903 46.7708 10.7788 46.4675 10.4753C46.1642 10.1717 45.7529 10.0008 45.3237 10H14.62C14.1907 10.0003 13.779 10.1709 13.4753 10.4744C13.1716 10.7779 13.0007 11.1894 13 11.6188V20.2756C13.0005 20.7051 13.1713 21.1169 13.475 21.4206C13.7787 21.7243 14.1905 21.8951 14.62 21.8956H39.7481C39.9139 21.8956 40.0729 21.8298 40.1901 21.7126C40.3073 21.5954 40.3731 21.4364 40.3731 21.2706C40.3731 21.1049 40.3073 20.9459 40.1901 20.8287C40.0729 20.7115 39.9139 20.6456 39.7481 20.6456H14.62C14.5219 20.6456 14.4278 20.6066 14.3584 20.5373C14.289 20.4679 14.25 20.3738 14.25 20.2756V11.6194C14.25 11.4156 14.4162 11.25 14.62 11.25H45.3231C45.5269 11.25 45.6919 11.4156 45.6919 11.6188V20.2756C45.692 20.3241 45.6825 20.3722 45.664 20.417C45.6455 20.4619 45.6184 20.5026 45.5841 20.537C45.5499 20.5714 45.5092 20.5986 45.4644 20.6173C45.4196 20.6359 45.3716 20.6455 45.3231 20.6456H43.495C43.3292 20.6456 43.1703 20.7115 43.0531 20.8287C42.9358 20.9459 42.87 21.1049 42.87 21.2706V24.0519H14.62C14.1905 24.0522 13.7786 24.223 13.4749 24.5267C13.1711 24.8305 13.0003 25.2423 13 25.6719V34.3281C13.0005 34.7576 13.1714 35.1693 13.4751 35.4729C13.7788 35.7765 14.1906 35.9472 14.62 35.9475H39.7481C39.9139 35.9475 40.0729 35.8817 40.1901 35.7644C40.3073 35.6472 40.3731 35.4883 40.3731 35.3225C40.3731 35.1567 40.3073 34.9978 40.1901 34.8806C40.0729 34.7633 39.9139 34.6975 39.7481 34.6975H14.62C14.5221 34.6975 14.4282 34.6587 14.3588 34.5896C14.2895 34.5205 14.2503 34.4267 14.25 34.3287V25.6712C14.25 25.4675 14.4162 25.3019 14.62 25.3019H45.3231C45.5269 25.3019 45.6919 25.4675 45.6919 25.6706V34.3275C45.6919 34.5312 45.5269 34.6969 45.3231 34.6969H43.495C43.3292 34.6969 43.1703 34.7627 43.0531 34.8799C42.9358 34.9971 42.87 35.1561 42.87 35.3219V38.1038H14.62C14.1905 38.1042 13.7787 38.2751 13.475 38.5788C13.1713 38.8825 13.0005 39.2943 13 39.7237V48.38C13.0003 48.8096 13.1711 49.2214 13.4749 49.5251C13.7786 49.8289 14.1905 49.9997 14.62 50H39.7481C39.9139 50 40.0729 49.9342 40.1901 49.8169C40.3073 49.6997 40.3731 49.5408 40.3731 49.375C40.3731 49.2092 40.3073 49.0503 40.1901 48.9331C40.0729 48.8158 39.9139 48.75 39.7481 48.75H14.62C14.5221 48.75 14.4282 48.7112 14.3588 48.6421C14.2895 48.573 14.2503 48.4792 14.25 48.3812V39.7237C14.25 39.5194 14.4162 39.3538 14.62 39.3538H45.3231C45.5269 39.3538 45.6919 39.5194 45.6919 39.7237V48.38C45.6919 48.5838 45.5269 48.7494 45.3231 48.7494H43.495C43.4129 48.7494 43.3317 48.7655 43.2558 48.797C43.18 48.8284 43.1111 48.8744 43.0531 48.9324C42.995 48.9905 42.949 49.0594 42.9176 49.1352C42.8862 49.211 42.87 49.2923 42.87 49.3744C42.87 49.4565 42.8862 49.5377 42.9176 49.6136C42.949 49.6894 42.995 49.7583 43.0531 49.8163C43.1111 49.8744 43.18 49.9204 43.2558 49.9518C43.3317 49.9832 43.4129 49.9994 43.495 49.9994H45.3231C45.7522 49.9987 46.1636 49.828 46.467 49.5245C46.7705 49.2211 46.9412 48.8097 46.9419 48.3806V39.7237C46.9415 39.2944 46.7709 38.8827 46.4675 38.579C46.164 38.2753 45.7525 38.1044 45.3231 38.1038H44.12V35.9475H45.3231C45.7525 35.9468 46.164 35.7759 46.4675 35.4722C46.7709 35.1685 46.9415 34.7568 46.9419 34.3275V25.6712C46.9414 25.242 46.7707 24.8305 46.4672 24.5269C46.1638 24.2234 45.7523 24.0525 45.3231 24.0519H44.12V21.895H45.3231V21.8956Z" fill="black"/>
<path d="M41.2321 13.6499C40.7777 13.6503 40.3337 13.7853 39.956 14.038C39.5784 14.2907 39.2841 14.6496 39.1104 15.0694C38.9367 15.4893 38.8914 15.9512 38.9801 16.3968C39.0688 16.8424 39.2877 17.2518 39.609 17.573C39.9303 17.8943 40.3396 18.1132 40.7852 18.2019C41.2308 18.2906 41.6927 18.2453 42.1126 18.0716C42.5324 17.8979 42.8914 17.6036 43.144 17.226C43.3967 16.8483 43.5317 16.4043 43.5321 15.9499C43.5321 14.6818 42.5009 13.6499 41.2321 13.6499ZM41.2321 16.9955C40.6552 16.9955 40.1865 16.5268 40.1865 15.9505C40.1865 15.3712 40.6552 14.8999 41.2321 14.8999C41.8115 14.8999 42.2821 15.3712 42.2821 15.9499C42.2821 16.5268 41.8115 16.9955 41.2321 16.9955ZM33.1221 15.9499C33.1221 16.5592 33.3642 17.1436 33.795 17.5745C34.2259 18.0053 34.8103 18.2474 35.4196 18.2474C36.0289 18.2474 36.6133 18.0053 37.0442 17.5745C37.475 17.1436 37.7171 16.5592 37.7171 15.9499C37.7171 14.6818 36.6852 13.6499 35.4171 13.6499C34.808 13.6512 34.2242 13.8941 33.794 14.3253C33.3637 14.7565 33.1221 15.3408 33.1221 15.9499ZM36.4671 15.9499C36.4671 16.5268 35.9959 16.9955 35.4171 16.9955C34.8409 16.9955 34.3721 16.5268 34.3721 15.9505C34.3721 15.3712 34.8409 14.8999 35.4165 14.8999C35.9959 14.8999 36.4671 15.3712 36.4671 15.9499ZM17.0371 13.6499C16.8713 13.6499 16.7124 13.7158 16.5952 13.833C16.478 13.9502 16.4121 14.1091 16.4121 14.2749V17.6205C16.4121 17.7863 16.478 17.9453 16.5952 18.0625C16.7124 18.1797 16.8713 18.2455 17.0371 18.2455H30.1371C30.3029 18.2455 30.4618 18.1797 30.5791 18.0625C30.6963 17.9453 30.7621 17.7863 30.7621 17.6205V14.2749C30.7621 14.1091 30.6963 13.9502 30.5791 13.833C30.4618 13.7158 30.3029 13.6499 30.1371 13.6499H17.0371ZM29.5121 16.9955H17.6621V14.8999H29.5121V16.9955ZM41.2321 27.7024C40.7777 27.7028 40.3337 27.8378 39.956 28.0905C39.5784 28.3432 39.2841 28.7021 39.1104 29.1219C38.9367 29.5418 38.8914 30.0037 38.9801 30.4493C39.0688 30.8949 39.2877 31.3043 39.609 31.6255C39.9303 31.9468 40.3396 32.1657 40.7852 32.2544C41.2308 32.3431 41.6927 32.2978 42.1126 32.1241C42.5324 31.9504 42.8914 31.6561 43.144 31.2785C43.3967 30.9008 43.5317 30.4568 43.5321 30.0024C43.5321 28.7337 42.5009 27.7024 41.2321 27.7024ZM41.2321 31.0474C40.6552 31.0474 40.1865 30.5787 40.1865 30.0024C40.1865 29.4237 40.6552 28.9524 41.2321 28.9524C41.8115 28.9524 42.2821 29.4237 42.2821 30.0024C42.2821 30.5787 41.8115 31.0474 41.2321 31.0474ZM33.1221 30.0024C33.1221 30.6117 33.3642 31.1961 33.795 31.627C34.2259 32.0578 34.8103 32.2999 35.4196 32.2999C36.0289 32.2999 36.6133 32.0578 37.0442 31.627C37.475 31.1961 37.7171 30.6117 37.7171 30.0024C37.7171 28.7337 36.6852 27.7024 35.4171 27.7024C34.808 27.7037 34.2242 27.9466 33.794 28.3778C33.3637 28.809 33.1221 29.3933 33.1221 30.0024ZM36.4671 30.0024C36.4671 30.5787 35.9959 31.0474 35.4171 31.0474C34.8409 31.0474 34.3721 30.5787 34.3721 30.0024C34.3721 29.4237 34.8409 28.9524 35.4165 28.9524C35.9959 28.9524 36.4671 29.4237 36.4671 30.0024ZM17.0371 27.7024C16.8713 27.7024 16.7124 27.7683 16.5952 27.8855C16.478 28.0027 16.4121 28.1616 16.4121 28.3274V31.6724C16.4121 31.8382 16.478 31.9971 16.5952 32.1143C16.7124 32.2316 16.8713 32.2974 17.0371 32.2974H30.1371C30.3029 32.2974 30.4618 32.2316 30.5791 32.1143C30.6963 31.9971 30.7621 31.8382 30.7621 31.6724V28.3274C30.7621 28.1616 30.6963 28.0027 30.5791 27.8855C30.4618 27.7683 30.3029 27.7024 30.1371 27.7024H17.0371ZM29.5121 31.0474H17.6621V28.9524H29.5121V31.0474ZM41.2321 41.7543C40.7777 41.7546 40.3337 41.8897 39.956 42.1424C39.5784 42.395 39.2841 42.754 39.1104 43.1738C38.9367 43.5937 38.8914 44.0556 38.9801 44.5012C39.0688 44.9468 39.2877 45.3561 39.609 45.6774C39.9303 45.9987 40.3396 46.2175 40.7852 46.3063C41.2308 46.395 41.6927 46.3497 42.1126 46.176C42.5324 46.0022 42.8914 45.708 43.144 45.3303C43.3967 44.9527 43.5317 44.5086 43.5321 44.0543C43.5321 42.7868 42.5009 41.7543 41.2321 41.7543ZM41.2321 45.0999C40.6552 45.0999 40.1865 44.6312 40.1865 44.0549C40.1865 43.4755 40.6552 43.0049 41.2321 43.0049C41.8115 43.0049 42.2821 43.4755 42.2821 44.0549C42.2821 44.6312 41.8115 45.0999 41.2321 45.0999ZM33.1221 44.0549C33.1221 44.6642 33.3642 45.2486 33.795 45.6795C34.2259 46.1103 34.8103 46.3524 35.4196 46.3524C36.0289 46.3524 36.6133 46.1103 37.0442 45.6795C37.475 45.2486 37.7171 44.6642 37.7171 44.0549C37.7171 42.7862 36.6852 41.7549 35.4171 41.7549C34.808 41.7562 34.2242 41.9991 33.794 42.4303C33.3637 42.8615 33.1221 43.4458 33.1221 44.0549ZM36.4671 44.0549C36.4671 44.6312 35.9959 45.0999 35.4171 45.0999C34.8409 45.0999 34.3721 44.6312 34.3721 44.0549C34.3721 43.4755 34.8409 43.0049 35.4165 43.0049C35.9959 43.0049 36.4671 43.4755 36.4671 44.0549ZM17.0371 41.7543C16.8713 41.7543 16.7124 41.8201 16.5952 41.9373C16.478 42.0545 16.4121 42.2135 16.4121 42.3793V45.7249C16.4121 45.8907 16.478 46.0496 16.5952 46.1668C16.7124 46.2841 16.8713 46.3499 17.0371 46.3499H30.1371C30.3029 46.3499 30.4618 46.2841 30.5791 46.1668C30.6963 46.0496 30.7621 45.8907 30.7621 45.7249V42.3793C30.7621 42.2135 30.6963 42.0545 30.5791 41.9373C30.4618 41.8201 30.3029 41.7543 30.1371 41.7543H17.0371ZM29.5121 45.0999H17.6621V43.0043H29.5121V45.0999Z" fill="black"/>
</svg>
