<svg width="60" height="60" viewBox="0 0 60 60" fill="none" xmlns="http://www.w3.org/2000/svg">
<path d="M30 60C46.5685 60 60 46.5685 60 30C60 13.4315 46.5685 0 30 0C13.4315 0 0 13.4315 0 30C0 46.5685 13.4315 60 30 60Z" fill="#BAC8D3"/>
<path d="M20.0009 20.9091C20.5029 20.9091 20.9099 20.5021 20.9099 20C20.9099 19.4979 20.5029 19.0909 20.0009 19.0909C19.4988 19.0909 19.0918 19.4979 19.0918 20C19.0918 20.5021 19.4988 20.9091 20.0009 20.9091Z" fill="black"/>
<path d="M40.0009 20.9091C40.5029 20.9091 40.9099 20.5021 40.9099 20C40.9099 19.4979 40.5029 19.0909 40.0009 19.0909C39.4988 19.0909 39.0918 19.4979 39.0918 20C39.0918 20.5021 39.4988 20.9091 40.0009 20.9091Z" fill="black"/>
<path d="M20.0009 40.9091C20.5029 40.9091 20.9099 40.5021 20.9099 40C20.9099 39.4979 20.5029 39.0909 20.0009 39.0909C19.4988 39.0909 19.0918 39.4979 19.0918 40C19.0918 40.5021 19.4988 40.9091 20.0009 40.9091Z" fill="black"/>
<path d="M40.0009 40.9091C40.5029 40.9091 40.9099 40.5021 40.9099 40C40.9099 39.4979 40.5029 39.0909 40.0009 39.0909C39.4988 39.0909 39.0918 39.4979 39.0918 40C39.0918 40.5021 39.4988 40.9091 40.0009 40.9091Z" fill="black"/>
<path d="M49.0909 28.1818C49.5937 28.1818 50 27.7745 50 27.2727C50 26.7709 49.5937 26.3637 49.0909 26.3637H44.5455V22.7273H49.0909C49.5937 22.7273 50 22.3201 50 21.8183C50 21.3165 49.5937 20.9092 49.0909 20.9092H44.5455V20C44.5455 17.4937 42.5064 15.4545 40 15.4545H39.0909V10.9091C39.0909 10.4073 38.6845 10 38.1818 10C37.6791 10 37.2727 10.4073 37.2727 10.9091V15.4545H33.6364V10.9091C33.6363 10.4073 33.23 10 32.7273 10C32.2245 10 31.8182 10.4073 31.8182 10.9091V15.4545H28.1819V10.9091C28.1818 10.4073 27.7755 10 27.2727 10C26.77 10 26.3637 10.4073 26.3637 10.9091V15.4545H22.7273V10.9091C22.7273 10.4073 22.3209 10 21.8182 10C21.3155 10 20.9091 10.4073 20.9091 10.9091V15.4545H20C17.4937 15.4545 15.4545 17.4936 15.4545 20V20.9091H10.9091C10.4063 20.9091 10 21.3163 10 21.8182C10 22.32 10.4063 22.7273 10.9091 22.7273H15.4545V26.3636H10.9091C10.4063 26.3637 10 26.7709 10 27.2727C10 27.7745 10.4063 28.1818 10.9091 28.1818H15.4545V31.8181H10.9091C10.4063 31.8182 10 32.2255 10 32.7273C10 33.2291 10.4063 33.6363 10.9091 33.6363H15.4545V37.2727H10.9091C10.4063 37.2727 10 37.68 10 38.1818C10 38.6836 10.4063 39.0909 10.9091 39.0909H15.4545V40C15.4545 42.5063 17.4936 44.5455 20 44.5455H20.9091V49.0909C20.9091 49.5927 21.3154 50 21.8181 50C22.3209 50 22.7272 49.5927 22.7272 49.0909V44.5455H26.3635V49.0909C26.3635 49.5927 26.7698 50 27.2726 50C27.7753 50 28.1816 49.5927 28.1816 49.0909V44.5455H31.818V49.0909C31.818 49.5927 32.2243 50 32.727 50C33.2298 50 33.6361 49.5927 33.6361 49.0909V44.5455H37.2724V49.0909C37.2724 49.5927 37.6787 50 38.1815 50C38.6842 50 39.0905 49.5927 39.0905 49.0909V44.5455H40C42.5063 44.5455 44.5455 42.5064 44.5455 40V39.0909H49.0909C49.5937 39.0909 50 38.6837 50 38.1819C50 37.6801 49.5937 37.2728 49.0909 37.2728H43.6364C43.1337 37.2728 42.7273 37.6801 42.7273 38.1819V40C42.7273 41.5037 41.5037 42.7273 40.0001 42.7273H20C18.4963 42.7273 17.2727 41.5036 17.2727 40V20C17.2727 18.4963 18.4964 17.2727 20 17.2727H40C41.5037 17.2727 42.7273 18.4964 42.7273 20V34.5455C42.7273 35.0473 43.1336 35.4545 43.6363 35.4545C44.1391 35.4545 44.5454 35.0473 44.5454 34.5455V33.6364H49.0909C49.5936 33.6364 49.9999 33.2291 49.9999 32.7273C49.9999 32.2255 49.5936 31.8183 49.0909 31.8183H44.5454V28.182H49.0909V28.1818Z" fill="black"/>
<path d="M27.2729 24.5455C25.7692 24.5455 24.5456 25.7691 24.5456 27.2727C24.5456 28.4564 25.3084 29.4564 26.3638 29.8327V37.2727H23.6366C23.1356 37.2727 22.7284 36.8645 22.7284 36.3637V23.6363C22.7284 23.1354 23.1356 22.7273 23.6374 22.7273H29.0911C29.5938 22.7273 30.0002 22.32 30.0002 21.8182C30.0002 21.3164 29.5938 20.9091 29.0911 20.9091H23.6374C22.1338 20.9091 20.9102 22.1328 20.9102 23.6364V36.3637C20.9102 37.8673 22.1338 39.0909 23.6365 39.0909H27.2728C27.7755 39.0909 28.1819 38.6837 28.1819 38.1819V29.8327C29.2373 29.4564 30.0001 28.4564 30.0001 27.2727C30.0002 25.7691 28.7765 24.5455 27.2729 24.5455ZM27.2729 28.1818C26.7711 28.1818 26.3638 27.7736 26.3638 27.2727C26.3638 26.7718 26.7711 26.3637 27.2729 26.3637C27.7747 26.3637 28.182 26.7719 28.182 27.2727C28.182 27.7737 27.7747 28.1818 27.2729 28.1818ZM36.3629 20.9091H32.7274C32.2247 20.9091 31.8184 21.3163 31.8184 21.8181V30.1672C30.7629 30.5437 30.0002 31.5437 30.0002 32.7273C30.0002 34.2309 31.2238 35.4545 32.7274 35.4545C34.2311 35.4545 35.4547 34.2309 35.4547 32.7273C35.4547 31.5436 34.692 30.5436 33.6365 30.1673V22.7273H36.3628C36.8646 22.7273 37.2719 23.1355 37.2719 23.6363V36.3636C37.2719 36.8645 36.8646 37.2727 36.3628 37.2727H30.9091C30.4064 37.2727 30.0001 37.6799 30.0001 38.1817C30.0001 38.6835 30.4064 39.0908 30.9091 39.0908H36.3628C37.8665 39.0908 39.0901 37.8671 39.0901 36.3635V23.6363C39.0902 22.1327 37.8665 20.9091 36.3629 20.9091ZM32.7274 33.6363C32.2256 33.6363 31.8184 33.2281 31.8184 32.7273C31.8184 32.2263 32.2256 31.8182 32.7274 31.8182C33.2292 31.8182 33.6365 32.2264 33.6365 32.7273C33.6365 33.2282 33.2292 33.6363 32.7274 33.6363Z" fill="black"/>
</svg>
