<svg width="60" height="60" viewBox="0 0 60 60" fill="none" xmlns="http://www.w3.org/2000/svg">
<path d="M30 60C46.5685 60 60 46.5685 60 30C60 13.4315 46.5685 0 30 0C13.4315 0 0 13.4315 0 30C0 46.5685 13.4315 60 30 60Z" fill="#BAC8D3"/>
<path d="M54.9476 33.4546L48.496 16.5192C48.4376 16.3665 48.3342 16.2352 48.1996 16.1425C48.065 16.0498 47.9054 16.0001 47.7419 16H12.2581C12.0946 16.0001 11.935 16.0498 11.8004 16.1425C11.6658 16.2352 11.5624 16.3665 11.504 16.5192L5.05242 33.4546C5.01766 33.5464 4.9999 33.6438 5 33.7419V43.4194C5 43.6332 5.08497 43.8384 5.2362 43.9896C5.38744 44.1408 5.59257 44.2258 5.80645 44.2258H54.1936C54.4074 44.2258 54.6126 44.1408 54.7638 43.9896C54.915 43.8384 55 43.6332 55 43.4194V33.7419C55.0001 33.6438 54.9823 33.5464 54.9476 33.4546ZM12.8135 17.6129H47.1865L53.0232 32.9355H6.97681L12.8135 17.6129ZM53.3871 42.6129H6.6129V34.5484H53.3871V42.6129Z" fill="black"/>
<path d="M8.22637 41.8065H13.0651C13.279 41.8065 13.4841 41.7215 13.6353 41.5703C13.7866 41.419 13.8715 41.2139 13.8715 41V36.1613C13.8715 35.9474 13.7866 35.7423 13.6353 35.5911C13.4841 35.4398 13.279 35.3549 13.0651 35.3549H8.22637C8.01249 35.3549 7.80737 35.4398 7.65613 35.5911C7.50489 35.7423 7.41992 35.9474 7.41992 36.1613V41C7.41992 41.2139 7.50489 41.419 7.65613 41.5703C7.80737 41.7215 8.01249 41.8065 8.22637 41.8065ZM9.03283 36.9678H12.2586V40.1936H9.03283V36.9678ZM15.4844 41.8065H20.3231C20.537 41.8065 20.7422 41.7215 20.8934 41.5703C21.0446 41.419 21.1296 41.2139 21.1296 41V36.1613C21.1296 35.9474 21.0446 35.7423 20.8934 35.5911C20.7422 35.4398 20.537 35.3549 20.3231 35.3549H15.4844C15.2706 35.3549 15.0654 35.4398 14.9142 35.5911C14.763 35.7423 14.678 35.9474 14.678 36.1613V41C14.678 41.2139 14.763 41.419 14.9142 41.5703C15.0654 41.7215 15.2706 41.8065 15.4844 41.8065ZM16.2909 36.9678H19.5167V40.1936H16.2909V36.9678ZM50.1619 36.1613C49.6618 36.1621 49.1743 36.3175 48.766 36.6062C48.3578 36.895 48.0489 37.303 47.8816 37.7742H24.3554C24.1415 37.7742 23.9364 37.8592 23.7852 38.0104C23.6339 38.1617 23.549 38.3668 23.549 38.5807C23.549 38.7945 23.6339 38.9997 23.7852 39.1509C23.9364 39.3022 24.1415 39.3871 24.3554 39.3871H47.8816C48.0295 39.8053 48.2895 40.1748 48.6332 40.4552C48.9769 40.7357 49.391 40.9162 49.8304 40.9771C50.2698 41.038 50.7174 40.977 51.1245 40.8006C51.5315 40.6242 51.8822 40.3394 52.1382 39.9772C52.3943 39.615 52.5458 39.1893 52.5763 38.7468C52.6067 38.3043 52.5149 37.8619 52.3109 37.468C52.1069 37.0741 51.7985 36.7439 51.4195 36.5134C51.0405 36.283 50.6054 36.1612 50.1619 36.1613ZM50.1619 39.3871C50.0024 39.3871 49.8464 39.3398 49.7138 39.2512C49.5812 39.1626 49.4778 39.0366 49.4168 38.8893C49.3558 38.7419 49.3398 38.5798 49.3709 38.4233C49.402 38.2669 49.4788 38.1232 49.5916 38.0104C49.7044 37.8976 49.8481 37.8208 50.0045 37.7897C50.161 37.7586 50.3231 37.7746 50.4705 37.8356C50.6178 37.8966 50.7438 38 50.8324 38.1326C50.921 38.2652 50.9683 38.4212 50.9683 38.5807C50.968 38.7945 50.883 38.9994 50.7318 39.1506C50.5806 39.3018 50.3757 39.3868 50.1619 39.3871Z" fill="black"/>
</svg>
