<svg width="458" height="82" viewBox="0 0 458 82" fill="none" xmlns="http://www.w3.org/2000/svg">
<path opacity="0.9" d="M21.7163 75.9858L24.2285 67.3066H26.1108L25.2319 69.4307L22.8003 78H20.6396L18.1934 69.4307L17.3071 67.3066H19.2114L21.7163 75.9858ZM16.6113 67.3066H18.5522L18.2886 69.1743L18.0762 78H16.0986C16.1279 77.7949 16.1572 77.4507 16.1865 76.9673C16.2158 76.479 16.2476 75.9077 16.2817 75.2534C16.3159 74.5991 16.3477 73.9106 16.377 73.188C16.4111 72.4604 16.4404 71.75 16.4648 71.0566C16.4941 70.3633 16.5186 69.7334 16.5381 69.167C16.5625 68.6006 16.5796 68.1489 16.5894 67.812C16.604 67.4751 16.6113 67.3066 16.6113 67.3066ZM27.3047 78H25.3271L25.144 69.1743L24.8145 67.3066H26.792C26.8164 68.1025 26.8457 68.9448 26.8799 69.8335C26.9141 70.7222 26.9482 71.6035 26.9824 72.4775C27.0215 73.3516 27.0581 74.167 27.0923 74.9238C27.1313 75.6807 27.168 76.3301 27.2021 76.8721C27.2412 77.4092 27.2754 77.7852 27.3047 78ZM37.1704 78H35.2222C35.1538 77.8828 35.0879 77.6899 35.0244 77.4214C34.9609 77.1479 34.9097 76.8647 34.8706 76.5718C34.8364 76.2739 34.8193 76.0347 34.8193 75.854V75.4365C34.6387 75.8564 34.3872 76.2788 34.0649 76.7036C33.7427 77.1235 33.3667 77.4751 32.937 77.7583C32.5073 78.0415 32.0361 78.1831 31.5234 78.1831C30.9082 78.1831 30.3882 77.9121 29.9634 77.3701C29.5386 76.8232 29.3262 76.0322 29.3262 74.9971C29.3262 74.416 29.4116 73.8521 29.5825 73.3052C29.7534 72.7534 30.0171 72.2578 30.3735 71.8184C30.73 71.3789 31.1841 71.0298 31.7358 70.771C32.2876 70.5122 32.9419 70.3828 33.6987 70.3828C34.231 70.3828 34.7583 70.4146 35.2808 70.478C35.8081 70.5366 36.2793 70.6147 36.6943 70.7124V74.1182C36.6943 75.041 36.7383 75.8174 36.8262 76.4473C36.9141 77.0723 37.0288 77.5898 37.1704 78ZM34.5996 72.6533V72.1699C34.4971 72.1455 34.3481 72.1162 34.1528 72.082C33.9575 72.043 33.7036 72.0234 33.3911 72.0234C32.8784 72.0234 32.4756 72.165 32.1826 72.4482C31.8896 72.7314 31.6821 73.1001 31.5601 73.5542C31.438 74.0083 31.377 74.4893 31.377 74.9971C31.377 75.4268 31.4551 75.7759 31.6113 76.0444C31.7725 76.3081 31.9629 76.4399 32.1826 76.4399C32.3877 76.4399 32.6001 76.3374 32.8198 76.1323C33.0444 75.9272 33.2617 75.666 33.4717 75.3486C33.6816 75.0312 33.8721 74.6968 34.043 74.3452C34.2139 73.9937 34.3481 73.6665 34.4458 73.3638C34.5483 73.0562 34.5996 72.8193 34.5996 72.6533ZM39.0015 70.5293H41.1621C41.1621 70.8955 41.1621 71.2861 41.1621 71.7012C41.1621 72.1162 41.1621 72.519 41.1621 72.9097C41.1621 73.2954 41.1621 73.6323 41.1621 73.9204C41.1621 74.2085 41.1621 74.4087 41.1621 74.521C41.1621 74.8335 41.167 75.2144 41.1768 75.6636C41.1914 76.1079 41.2085 76.5425 41.228 76.9673C41.2524 77.3921 41.2793 77.7363 41.3086 78H39.1113C39.1113 77.6484 39.1113 77.2358 39.1113 76.7622C39.1113 76.2886 39.1113 75.8174 39.1113 75.3486C39.1113 74.875 39.1113 74.4648 39.1113 74.1182C39.1113 73.4053 39.104 72.7266 39.0894 72.082C39.0796 71.4326 39.0503 70.915 39.0015 70.5293ZM38.855 67.856C38.855 67.48 38.9746 67.1724 39.2139 66.9331C39.458 66.6938 39.7656 66.5742 40.1367 66.5742C40.5127 66.5742 40.8203 66.6938 41.0596 66.9331C41.2988 67.1724 41.4185 67.48 41.4185 67.856C41.4185 68.2368 41.2988 68.5469 41.0596 68.7861C40.8203 69.0205 40.5127 69.1377 40.1367 69.1377C39.7656 69.1377 39.458 69.0205 39.2139 68.7861C38.9746 68.5469 38.855 68.2368 38.855 67.856ZM43.1396 74.2866C43.1396 73.4468 43.3057 72.7363 43.6377 72.1553C43.9746 71.5742 44.4214 71.1348 44.978 70.8369C45.5347 70.5342 46.1426 70.3828 46.8018 70.3828C47.4951 70.3828 48.1055 70.5342 48.6328 70.8369C49.1602 71.1348 49.5728 71.5742 49.8706 72.1553C50.1685 72.7363 50.3174 73.4468 50.3174 74.2866C50.3174 75.1265 50.1489 75.8369 49.812 76.418C49.48 76.9941 49.0356 77.4336 48.479 77.7363C47.9224 78.0342 47.3145 78.1831 46.6553 78.1831C45.9668 78.1831 45.3589 78.0342 44.8315 77.7363C44.3042 77.4336 43.8892 76.9941 43.5864 76.418C43.2886 75.8369 43.1396 75.1265 43.1396 74.2866ZM45.1904 74.2866C45.1904 74.9849 45.3198 75.5342 45.5786 75.9346C45.8423 76.335 46.2256 76.5352 46.7285 76.5352C47.2021 76.5352 47.5757 76.335 47.8491 75.9346C48.1274 75.5342 48.2666 74.9849 48.2666 74.2866C48.2666 73.5835 48.1348 73.0317 47.8711 72.6313C47.6123 72.231 47.2314 72.0308 46.7285 72.0308C46.2549 72.0308 45.8789 72.231 45.6006 72.6313C45.3271 73.0317 45.1904 73.5835 45.1904 74.2866ZM54.0894 78H52.0386V73.4956C52.0386 72.7778 51.9971 72.1675 51.9141 71.6646C51.8359 71.1616 51.7554 70.7832 51.6724 70.5293H53.6865C53.7256 70.6318 53.7622 70.7734 53.7964 70.9541C53.8354 71.1348 53.8721 71.3179 53.9062 71.5034C53.9404 71.689 53.9648 71.8403 53.9795 71.9575C54.3359 71.4497 54.7266 71.0615 55.1514 70.793C55.5762 70.5195 55.9546 70.3828 56.2866 70.3828C56.7456 70.3828 57.1143 70.5098 57.3926 70.7637C57.6709 71.0127 57.8735 71.3447 58.0005 71.7598C58.1274 72.1748 58.1909 72.6313 58.1909 73.1294L56.5576 73.3857C56.5332 73.0537 56.4526 72.7876 56.3159 72.5874C56.1792 72.3823 55.9546 72.2798 55.6421 72.2798C55.481 72.2798 55.2954 72.3701 55.0854 72.5508C54.8755 72.7314 54.6777 72.9634 54.4922 73.2466C54.3115 73.5249 54.1772 73.8154 54.0894 74.1182V78ZM70.7959 78H68.855C68.7866 77.8438 68.7109 77.6436 68.6279 77.3994C68.5498 77.1504 68.4912 76.8989 68.4521 76.645C68.0225 77.1479 67.5732 77.5312 67.1045 77.7949C66.6406 78.0537 66.1572 78.1831 65.6543 78.1831C64.126 78.1831 63.3618 77.1333 63.3618 75.0337C63.3618 74.9995 63.3618 74.8774 63.3618 74.6675C63.3618 74.4575 63.3618 74.2207 63.3618 73.957C63.3618 73.6885 63.3618 73.4492 63.3618 73.2393C63.3618 73.0293 63.3618 72.9072 63.3618 72.873C63.3618 72.4092 63.3545 72.0137 63.3398 71.6865C63.3252 71.3545 63.2837 70.9688 63.2153 70.5293H65.4126V74.5942C65.4126 75.2583 65.4834 75.7417 65.625 76.0444C65.7715 76.3423 66.0303 76.4912 66.4014 76.4912C66.626 76.4912 66.8628 76.4082 67.1118 76.2422C67.3608 76.0762 67.5903 75.8735 67.8003 75.6343C68.0151 75.395 68.1714 75.1631 68.269 74.9385V72.873C68.269 72.5508 68.2666 72.27 68.2617 72.0308C68.2568 71.7915 68.2422 71.5571 68.2178 71.3276C68.1982 71.0933 68.1665 70.8271 68.1226 70.5293H70.3198V74.7041C70.3198 75.4121 70.3613 76.0371 70.4443 76.5791C70.5273 77.1162 70.6445 77.5898 70.7959 78ZM78.0542 70.9688L77.7686 72.6899C77.4951 72.5483 77.1484 72.397 76.7285 72.2358C76.3135 72.0747 75.8521 71.9941 75.3442 71.9941C74.9146 71.9941 74.6167 72.0674 74.4507 72.2139C74.2896 72.3604 74.209 72.5068 74.209 72.6533C74.209 72.7705 74.2407 72.8706 74.3042 72.9536C74.3726 73.0366 74.5093 73.1147 74.7144 73.188C74.9243 73.2563 75.2441 73.3345 75.6738 73.4224C76.1816 73.52 76.6455 73.6592 77.0654 73.8398C77.4902 74.0156 77.8271 74.2524 78.0762 74.5503C78.3301 74.8481 78.457 75.229 78.457 75.6929C78.457 76.1616 78.3154 76.584 78.0322 76.96C77.749 77.3359 77.3657 77.6338 76.8823 77.8535C76.4038 78.0732 75.8667 78.1831 75.271 78.1831C74.6167 78.1831 74.0137 78.1001 73.4619 77.9341C72.9102 77.7632 72.4756 77.5654 72.1582 77.3408L72.561 75.5464C72.9224 75.8442 73.3618 76.0835 73.8794 76.2642C74.4019 76.4448 74.8779 76.5352 75.3076 76.5352C75.6543 76.5352 75.9351 76.4692 76.1499 76.3374C76.3696 76.2007 76.4795 76.0469 76.4795 75.876C76.4795 75.6611 76.3672 75.4731 76.1426 75.312C75.918 75.146 75.4565 74.9873 74.7583 74.8359C74.0649 74.6846 73.5352 74.5039 73.1689 74.2939C72.8076 74.084 72.561 73.8472 72.4292 73.5835C72.2974 73.3198 72.2314 73.0342 72.2314 72.7266C72.2314 72.5459 72.2803 72.3262 72.3779 72.0674C72.4756 71.8037 72.6416 71.5449 72.876 71.291C73.1152 71.0322 73.4399 70.8174 73.8501 70.6465C74.2651 70.4707 74.7876 70.3828 75.4175 70.3828C76.0132 70.3828 76.5308 70.4463 76.9702 70.5732C77.4097 70.6953 77.771 70.8271 78.0542 70.9688ZM79.6729 74.2866C79.6729 73.4468 79.8389 72.7363 80.1709 72.1553C80.5078 71.5742 80.9546 71.1348 81.5112 70.8369C82.0679 70.5342 82.6758 70.3828 83.335 70.3828C84.0283 70.3828 84.6387 70.5342 85.166 70.8369C85.6934 71.1348 86.106 71.5742 86.4038 72.1553C86.7017 72.7363 86.8506 73.4468 86.8506 74.2866C86.8506 75.1265 86.6821 75.8369 86.3452 76.418C86.0132 76.9941 85.5688 77.4336 85.0122 77.7363C84.4556 78.0342 83.8477 78.1831 83.1885 78.1831C82.5 78.1831 81.8921 78.0342 81.3647 77.7363C80.8374 77.4336 80.4224 76.9941 80.1196 76.418C79.8218 75.8369 79.6729 75.1265 79.6729 74.2866ZM81.7236 74.2866C81.7236 74.9849 81.853 75.5342 82.1118 75.9346C82.3755 76.335 82.7588 76.5352 83.2617 76.5352C83.7354 76.5352 84.1089 76.335 84.3823 75.9346C84.6606 75.5342 84.7998 74.9849 84.7998 74.2866C84.7998 73.5835 84.668 73.0317 84.4043 72.6313C84.1455 72.231 83.7646 72.0308 83.2617 72.0308C82.7881 72.0308 82.4121 72.231 82.1338 72.6313C81.8604 73.0317 81.7236 73.5835 81.7236 74.2866ZM99.7046 66.2812V74.1182C99.7046 75.041 99.7559 75.8174 99.8584 76.4473C99.9658 77.0723 100.098 77.5898 100.254 78H98.2397C98.186 77.8828 98.1201 77.7046 98.042 77.4653C97.9688 77.2212 97.9004 76.9722 97.8369 76.7183C97.5098 77.187 97.1338 77.5483 96.709 77.8022C96.2842 78.0562 95.8179 78.1831 95.3101 78.1831C94.7095 78.1831 94.1797 78.0366 93.7207 77.7437C93.2666 77.4507 92.9102 77.0381 92.6514 76.5059C92.3975 75.9688 92.2705 75.3438 92.2705 74.6309C92.2705 73.7666 92.4316 73.0171 92.7539 72.3823C93.0762 71.7476 93.5083 71.2568 94.0503 70.9102C94.5972 70.5586 95.2002 70.3828 95.8594 70.3828C96.1475 70.3828 96.4526 70.4463 96.7749 70.5732C97.0972 70.7002 97.3901 70.8442 97.6538 71.0054V68.9546C97.6538 68.3687 97.6392 67.8535 97.6099 67.4092C97.5854 66.9648 97.5391 66.5889 97.4707 66.2812H99.7046ZM97.6538 75.0703V72.5947C97.3169 72.4287 97.019 72.3115 96.7603 72.2432C96.5015 72.1748 96.2012 72.1406 95.8594 72.1406C95.6055 72.1406 95.3589 72.231 95.1196 72.4116C94.8853 72.5923 94.6924 72.8511 94.541 73.188C94.3945 73.5249 94.3213 73.9326 94.3213 74.4111C94.3213 75.8271 94.7852 76.5352 95.7129 76.5352C95.9717 76.5352 96.228 76.4644 96.4819 76.3228C96.7358 76.1812 96.9653 75.998 97.1704 75.7734C97.3755 75.5488 97.5366 75.3145 97.6538 75.0703ZM108.208 74.7041H102.583V73.3857H106.34C106.34 72.873 106.228 72.502 106.003 72.2725C105.784 72.0381 105.457 71.9209 105.022 71.9209C104.495 71.9209 104.102 72.104 103.843 72.4702C103.589 72.8315 103.462 73.4419 103.462 74.3013C103.462 75.0776 103.618 75.644 103.931 76.0005C104.243 76.3569 104.702 76.5352 105.308 76.5352C105.786 76.5352 106.255 76.479 106.714 76.3667C107.178 76.2544 107.637 76.064 108.091 75.7954L108.245 77.4507C107.717 77.7192 107.207 77.9072 106.714 78.0146C106.226 78.127 105.696 78.1831 105.125 78.1831C104.48 78.1831 103.879 78.0391 103.323 77.751C102.766 77.4629 102.317 77.0356 101.975 76.4692C101.638 75.9028 101.47 75.2046 101.47 74.3745C101.47 73.564 101.616 72.8608 101.909 72.2651C102.207 71.6694 102.629 71.208 103.176 70.8809C103.723 70.5488 104.373 70.3828 105.125 70.3828C105.74 70.3828 106.245 70.4902 106.641 70.7051C107.041 70.915 107.354 71.1982 107.578 71.5547C107.808 71.9111 107.969 72.3115 108.062 72.7559C108.154 73.1953 108.201 73.6445 108.201 74.1035C108.201 74.1719 108.201 74.272 108.201 74.4038C108.206 74.5356 108.208 74.6357 108.208 74.7041ZM121.868 75.0337L122.234 76.9746C121.936 77.2139 121.575 77.4238 121.15 77.6045C120.725 77.7852 120.281 77.9268 119.817 78.0293C119.358 78.1318 118.918 78.1831 118.499 78.1831C117.488 78.1831 116.619 77.9634 115.891 77.5239C115.164 77.0845 114.604 76.4619 114.214 75.6562C113.823 74.8506 113.628 73.8984 113.628 72.7998C113.628 71.8574 113.762 71.0322 114.031 70.3242C114.304 69.6113 114.678 69.0181 115.151 68.5444C115.625 68.0708 116.167 67.7168 116.777 67.4824C117.393 67.2432 118.04 67.1235 118.718 67.1235C119.392 67.1235 119.995 67.1992 120.527 67.3506C121.064 67.502 121.597 67.7681 122.124 68.1489L121.611 69.9067C121.147 69.5405 120.686 69.2793 120.227 69.123C119.773 68.9619 119.307 68.8813 118.828 68.8813C118.237 68.8813 117.705 69.0205 117.231 69.2988C116.763 69.5771 116.392 69.9922 116.118 70.5439C115.85 71.0957 115.715 71.7866 115.715 72.6167C115.715 73.7935 115.984 74.7163 116.521 75.3853C117.063 76.0542 117.808 76.3887 118.755 76.3887C119.307 76.3887 119.863 76.2666 120.425 76.0225C120.986 75.7734 121.467 75.4438 121.868 75.0337ZM126.416 74.1694V74.814C126.416 75.5366 126.421 76.1763 126.431 76.7329C126.445 77.2896 126.477 77.7119 126.526 78H124.219C124.272 77.707 124.304 77.2847 124.314 76.7329C124.324 76.1763 124.329 75.5366 124.329 74.814V70.6758C124.329 69.958 124.324 69.2915 124.314 68.6763C124.304 68.0562 124.272 67.5996 124.219 67.3066C124.219 67.3066 124.336 67.3042 124.57 67.2993C124.81 67.2896 125.117 67.2798 125.493 67.27C125.869 67.2603 126.272 67.2529 126.702 67.248C127.136 67.2383 127.549 67.2334 127.939 67.2334C128.73 67.2334 129.424 67.3579 130.02 67.6069C130.615 67.856 131.079 68.2319 131.411 68.7349C131.743 69.2329 131.909 69.8555 131.909 70.6025C131.909 71.3545 131.738 72.0039 131.396 72.5508C131.06 73.0928 130.588 73.5103 129.983 73.8032C129.377 74.0962 128.672 74.2427 127.866 74.2427C127.354 74.2427 126.87 74.2183 126.416 74.1694ZM126.416 68.918V72.5801C126.572 72.6045 126.76 72.624 126.98 72.6387C127.2 72.6484 127.422 72.6533 127.646 72.6533C128.354 72.6533 128.894 72.4897 129.265 72.1626C129.636 71.8306 129.822 71.335 129.822 70.6758C129.822 70.1436 129.656 69.7114 129.324 69.3794C128.997 69.0474 128.447 68.8813 127.676 68.8813C127.393 68.8813 127.163 68.8862 126.987 68.896C126.812 68.9009 126.621 68.9082 126.416 68.918ZM139.9 67.3066H142.097C142.048 67.5996 142.017 68.0146 142.002 68.5518C141.992 69.0889 141.987 69.7358 141.987 70.4927V74.228C141.987 75.4194 141.641 76.3765 140.947 77.0991C140.254 77.8218 139.221 78.1831 137.849 78.1831C136.462 78.1831 135.42 77.8218 134.722 77.0991C134.023 76.3765 133.674 75.4194 133.674 74.228V70.4927C133.674 69.77 133.669 69.1328 133.66 68.5811C133.65 68.0244 133.618 67.5996 133.564 67.3066H135.762V73.8984C135.762 74.4258 135.823 74.8848 135.945 75.2754C136.067 75.666 136.279 75.9688 136.582 76.1836C136.885 76.3984 137.307 76.5059 137.849 76.5059C138.381 76.5059 138.794 76.3984 139.087 76.1836C139.385 75.9688 139.595 75.666 139.717 75.2754C139.839 74.8848 139.9 74.4258 139.9 73.8984V67.3066Z" fill="white"/>
<path opacity="0.9" d="M51.1519 16.0957V18H43.9741V16.3887C44.4722 16.0322 44.9946 15.6196 45.5415 15.1509C46.0933 14.6772 46.6084 14.1768 47.0869 13.6494C47.5703 13.1221 47.9634 12.5947 48.2661 12.0674C48.5688 11.5352 48.7202 11.0347 48.7202 10.5659C48.7202 10.1313 48.5884 9.75537 48.3247 9.43799C48.061 9.11572 47.6484 8.95459 47.0869 8.95459C46.6377 8.95459 46.1616 9.08154 45.6587 9.33545C45.1558 9.58936 44.7407 9.91406 44.4136 10.3096L43.9375 8.55176C44.1621 8.27832 44.4551 8.03418 44.8164 7.81934C45.1826 7.60449 45.5781 7.43604 46.0029 7.31396C46.4326 7.18701 46.855 7.12354 47.27 7.12354C47.978 7.12354 48.5981 7.25049 49.1304 7.50439C49.6675 7.75342 50.085 8.10742 50.3828 8.56641C50.6807 9.02539 50.8296 9.56982 50.8296 10.1997C50.8296 10.7954 50.6904 11.3838 50.4121 11.9648C50.1387 12.541 49.7871 13.0903 49.3574 13.6128C48.9277 14.1353 48.4736 14.6187 47.9951 15.063C47.5215 15.5024 47.0845 15.8833 46.6841 16.2056H48.625C49.1084 16.2056 49.499 16.2031 49.7969 16.1982C50.0947 16.1934 50.3462 16.1836 50.5513 16.1689C50.7563 16.1543 50.9565 16.1299 51.1519 16.0957ZM58.4541 12.7632C58.4541 11.4058 58.3052 10.4072 58.0073 9.76758C57.7144 9.12793 57.2529 8.80811 56.623 8.80811C56.0273 8.80811 55.5732 9.11328 55.2607 9.72363C54.9482 10.3291 54.792 11.269 54.792 12.5435C54.792 13.896 54.9434 14.8945 55.2461 15.5391C55.5488 16.1787 56.0078 16.4985 56.623 16.4985C57.2188 16.4985 57.6729 16.1934 57.9854 15.583C58.2979 14.9727 58.4541 14.0327 58.4541 12.7632ZM60.5415 12.5801C60.5415 13.9912 60.3706 15.1069 60.0288 15.9272C59.6919 16.7427 59.2231 17.3237 58.6226 17.6704C58.0269 18.0122 57.3359 18.1831 56.5498 18.1831C55.7734 18.1831 55.0972 18.0122 54.521 17.6704C53.9448 17.3237 53.498 16.7524 53.1807 15.9565C52.8633 15.1558 52.7046 14.0791 52.7046 12.7266C52.7046 11.3496 52.8755 10.2534 53.2173 9.43799C53.5591 8.61768 54.0278 8.02686 54.6235 7.66553C55.2241 7.3042 55.915 7.12354 56.6963 7.12354C57.5264 7.12354 58.2271 7.30176 58.7983 7.6582C59.3696 8.00977 59.8018 8.58594 60.0947 9.38672C60.3926 10.1826 60.5415 11.2471 60.5415 12.5801ZM69.0229 7.16016H70.5317L64.8188 18.1831H63.2954L69.0229 7.16016ZM64.9067 10.1191C64.9067 9.38672 64.8384 8.86914 64.7017 8.56641C64.5649 8.26367 64.3477 8.1123 64.0498 8.1123C63.7666 8.1123 63.5542 8.26123 63.4126 8.55908C63.2759 8.85205 63.2075 9.33545 63.2075 10.0093C63.2075 10.7417 63.2759 11.2617 63.4126 11.5693C63.5493 11.877 63.7617 12.0308 64.0498 12.0308C64.3281 12.0308 64.5405 11.8818 64.687 11.584C64.8335 11.2812 64.9067 10.793 64.9067 10.1191ZM66.4448 10.0239C66.4448 10.7417 66.3374 11.3179 66.1226 11.7524C65.9077 12.187 65.6172 12.502 65.251 12.6973C64.8848 12.8877 64.4746 12.9829 64.0205 12.9829C63.3418 12.9829 62.7803 12.7607 62.3359 12.3164C61.8916 11.8721 61.6694 11.1348 61.6694 10.1045C61.6694 9.41602 61.7769 8.85449 61.9917 8.41992C62.2065 7.98535 62.4971 7.66797 62.8633 7.46777C63.2295 7.2627 63.6372 7.16016 64.0864 7.16016C64.7651 7.16016 65.3267 7.38721 65.771 7.84131C66.2202 8.29541 66.4448 9.02295 66.4448 10.0239ZM70.583 15.3193C70.583 14.5869 70.5146 14.0693 70.3779 13.7666C70.2412 13.4639 70.0239 13.3125 69.7261 13.3125C69.4429 13.3125 69.2305 13.4614 69.0889 13.7593C68.9521 14.0522 68.8838 14.5356 68.8838 15.2095C68.8838 15.9419 68.9521 16.4619 69.0889 16.7695C69.2256 17.0771 69.438 17.231 69.7261 17.231C70.0044 17.231 70.2168 17.082 70.3633 16.7842C70.5098 16.4814 70.583 15.9932 70.583 15.3193ZM72.1211 15.2241C72.1211 15.9419 72.0137 16.5181 71.7988 16.9526C71.584 17.3872 71.2935 17.7021 70.9272 17.8975C70.561 18.0879 70.1509 18.1831 69.6968 18.1831C69.0181 18.1831 68.4565 17.9609 68.0122 17.5166C67.5679 17.0723 67.3457 16.335 67.3457 15.3047C67.3457 14.6162 67.4531 14.0547 67.668 13.6201C67.8828 13.1855 68.1733 12.8682 68.5396 12.668C68.9058 12.4629 69.3135 12.3604 69.7627 12.3604C70.4414 12.3604 71.0029 12.5874 71.4473 13.0415C71.8965 13.4956 72.1211 14.2231 72.1211 15.2241Z" fill="white"/>
<path opacity="0.9" d="M133.606 15.4731H132.434V18H130.493V15.4731H125.586V13.8252L130.237 7.30664H132.434V13.8252H133.606V15.4731ZM130.493 9.61377L127.38 13.8252H130.493V9.61377ZM140.454 12.7632C140.454 11.4058 140.305 10.4072 140.007 9.76758C139.714 9.12793 139.253 8.80811 138.623 8.80811C138.027 8.80811 137.573 9.11328 137.261 9.72363C136.948 10.3291 136.792 11.269 136.792 12.5435C136.792 13.896 136.943 14.8945 137.246 15.5391C137.549 16.1787 138.008 16.4985 138.623 16.4985C139.219 16.4985 139.673 16.1934 139.985 15.583C140.298 14.9727 140.454 14.0327 140.454 12.7632ZM142.542 12.5801C142.542 13.9912 142.371 15.1069 142.029 15.9272C141.692 16.7427 141.223 17.3237 140.623 17.6704C140.027 18.0122 139.336 18.1831 138.55 18.1831C137.773 18.1831 137.097 18.0122 136.521 17.6704C135.945 17.3237 135.498 16.7524 135.181 15.9565C134.863 15.1558 134.705 14.0791 134.705 12.7266C134.705 11.3496 134.875 10.2534 135.217 9.43799C135.559 8.61768 136.028 8.02686 136.624 7.66553C137.224 7.3042 137.915 7.12354 138.696 7.12354C139.526 7.12354 140.227 7.30176 140.798 7.6582C141.37 8.00977 141.802 8.58594 142.095 9.38672C142.393 10.1826 142.542 11.2471 142.542 12.5801ZM151.023 7.16016H152.532L146.819 18.1831H145.295L151.023 7.16016ZM146.907 10.1191C146.907 9.38672 146.838 8.86914 146.702 8.56641C146.565 8.26367 146.348 8.1123 146.05 8.1123C145.767 8.1123 145.554 8.26123 145.413 8.55908C145.276 8.85205 145.208 9.33545 145.208 10.0093C145.208 10.7417 145.276 11.2617 145.413 11.5693C145.549 11.877 145.762 12.0308 146.05 12.0308C146.328 12.0308 146.541 11.8818 146.687 11.584C146.833 11.2812 146.907 10.793 146.907 10.1191ZM148.445 10.0239C148.445 10.7417 148.337 11.3179 148.123 11.7524C147.908 12.187 147.617 12.502 147.251 12.6973C146.885 12.8877 146.475 12.9829 146.021 12.9829C145.342 12.9829 144.78 12.7607 144.336 12.3164C143.892 11.8721 143.669 11.1348 143.669 10.1045C143.669 9.41602 143.777 8.85449 143.992 8.41992C144.207 7.98535 144.497 7.66797 144.863 7.46777C145.229 7.2627 145.637 7.16016 146.086 7.16016C146.765 7.16016 147.327 7.38721 147.771 7.84131C148.22 8.29541 148.445 9.02295 148.445 10.0239ZM152.583 15.3193C152.583 14.5869 152.515 14.0693 152.378 13.7666C152.241 13.4639 152.024 13.3125 151.726 13.3125C151.443 13.3125 151.23 13.4614 151.089 13.7593C150.952 14.0522 150.884 14.5356 150.884 15.2095C150.884 15.9419 150.952 16.4619 151.089 16.7695C151.226 17.0771 151.438 17.231 151.726 17.231C152.004 17.231 152.217 17.082 152.363 16.7842C152.51 16.4814 152.583 15.9932 152.583 15.3193ZM154.121 15.2241C154.121 15.9419 154.014 16.5181 153.799 16.9526C153.584 17.3872 153.293 17.7021 152.927 17.8975C152.561 18.0879 152.151 18.1831 151.697 18.1831C151.018 18.1831 150.457 17.9609 150.012 17.5166C149.568 17.0723 149.346 16.335 149.346 15.3047C149.346 14.6162 149.453 14.0547 149.668 13.6201C149.883 13.1855 150.173 12.8682 150.54 12.668C150.906 12.4629 151.313 12.3604 151.763 12.3604C152.441 12.3604 153.003 12.5874 153.447 13.0415C153.896 13.4956 154.121 14.2231 154.121 15.2241Z" fill="white"/>
<path opacity="0.9" d="M213.932 7.78271L213.463 9.65039C213.151 9.33301 212.814 9.12061 212.453 9.01318C212.091 8.90088 211.735 8.84473 211.383 8.84473C211.022 8.84473 210.678 8.91064 210.351 9.04248C210.028 9.16943 209.74 9.39648 209.486 9.72363C209.232 10.0459 209.032 10.4951 208.886 11.0713C208.744 11.6475 208.673 12.3823 208.673 13.2759C208.673 14.2231 208.874 14.9922 209.274 15.583C209.679 16.1689 210.214 16.4619 210.878 16.4619C211.239 16.4619 211.552 16.3765 211.815 16.2056C212.084 16.0347 212.292 15.8125 212.438 15.5391C212.589 15.2656 212.665 14.9751 212.665 14.6675C212.665 14.1304 212.511 13.686 212.204 13.3345C211.896 12.978 211.452 12.7998 210.871 12.7998C210.304 12.7998 209.792 12.9146 209.333 13.144C208.878 13.3687 208.5 13.6689 208.197 14.0449L207.721 13.2026C208.136 12.6362 208.615 12.165 209.157 11.7891C209.699 11.4131 210.319 11.2251 211.017 11.2251C211.72 11.2251 212.335 11.3716 212.863 11.6646C213.39 11.9575 213.8 12.3555 214.093 12.8584C214.386 13.3564 214.533 13.9229 214.533 14.5576C214.533 15.2656 214.379 15.8931 214.071 16.4399C213.769 16.9868 213.341 17.4141 212.79 17.7217C212.238 18.0293 211.591 18.1831 210.849 18.1831C209.55 18.1831 208.539 17.7412 207.816 16.8574C207.094 15.9736 206.732 14.6943 206.732 13.0195C206.732 12.3066 206.815 11.6011 206.981 10.9028C207.152 10.2046 207.421 9.57227 207.787 9.00586C208.158 8.43457 208.644 7.97803 209.245 7.63623C209.85 7.29443 210.587 7.12354 211.457 7.12354C211.964 7.12354 212.409 7.16992 212.79 7.2627C213.17 7.35059 213.551 7.52393 213.932 7.78271ZM221.454 12.7632C221.454 11.4058 221.305 10.4072 221.007 9.76758C220.714 9.12793 220.253 8.80811 219.623 8.80811C219.027 8.80811 218.573 9.11328 218.261 9.72363C217.948 10.3291 217.792 11.269 217.792 12.5435C217.792 13.896 217.943 14.8945 218.246 15.5391C218.549 16.1787 219.008 16.4985 219.623 16.4985C220.219 16.4985 220.673 16.1934 220.985 15.583C221.298 14.9727 221.454 14.0327 221.454 12.7632ZM223.542 12.5801C223.542 13.9912 223.371 15.1069 223.029 15.9272C222.692 16.7427 222.223 17.3237 221.623 17.6704C221.027 18.0122 220.336 18.1831 219.55 18.1831C218.773 18.1831 218.097 18.0122 217.521 17.6704C216.945 17.3237 216.498 16.7524 216.181 15.9565C215.863 15.1558 215.705 14.0791 215.705 12.7266C215.705 11.3496 215.875 10.2534 216.217 9.43799C216.559 8.61768 217.028 8.02686 217.624 7.66553C218.224 7.3042 218.915 7.12354 219.696 7.12354C220.526 7.12354 221.227 7.30176 221.798 7.6582C222.37 8.00977 222.802 8.58594 223.095 9.38672C223.393 10.1826 223.542 11.2471 223.542 12.5801ZM232.023 7.16016H233.532L227.819 18.1831H226.295L232.023 7.16016ZM227.907 10.1191C227.907 9.38672 227.838 8.86914 227.702 8.56641C227.565 8.26367 227.348 8.1123 227.05 8.1123C226.767 8.1123 226.554 8.26123 226.413 8.55908C226.276 8.85205 226.208 9.33545 226.208 10.0093C226.208 10.7417 226.276 11.2617 226.413 11.5693C226.549 11.877 226.762 12.0308 227.05 12.0308C227.328 12.0308 227.541 11.8818 227.687 11.584C227.833 11.2812 227.907 10.793 227.907 10.1191ZM229.445 10.0239C229.445 10.7417 229.337 11.3179 229.123 11.7524C228.908 12.187 228.617 12.502 228.251 12.6973C227.885 12.8877 227.475 12.9829 227.021 12.9829C226.342 12.9829 225.78 12.7607 225.336 12.3164C224.892 11.8721 224.669 11.1348 224.669 10.1045C224.669 9.41602 224.777 8.85449 224.992 8.41992C225.207 7.98535 225.497 7.66797 225.863 7.46777C226.229 7.2627 226.637 7.16016 227.086 7.16016C227.765 7.16016 228.327 7.38721 228.771 7.84131C229.22 8.29541 229.445 9.02295 229.445 10.0239ZM233.583 15.3193C233.583 14.5869 233.515 14.0693 233.378 13.7666C233.241 13.4639 233.024 13.3125 232.726 13.3125C232.443 13.3125 232.23 13.4614 232.089 13.7593C231.952 14.0522 231.884 14.5356 231.884 15.2095C231.884 15.9419 231.952 16.4619 232.089 16.7695C232.226 17.0771 232.438 17.231 232.726 17.231C233.004 17.231 233.217 17.082 233.363 16.7842C233.51 16.4814 233.583 15.9932 233.583 15.3193ZM235.121 15.2241C235.121 15.9419 235.014 16.5181 234.799 16.9526C234.584 17.3872 234.293 17.7021 233.927 17.8975C233.561 18.0879 233.151 18.1831 232.697 18.1831C232.018 18.1831 231.457 17.9609 231.012 17.5166C230.568 17.0723 230.346 16.335 230.346 15.3047C230.346 14.6162 230.453 14.0547 230.668 13.6201C230.883 13.1855 231.173 12.8682 231.54 12.668C231.906 12.4629 232.313 12.3604 232.763 12.3604C233.441 12.3604 234.003 12.5874 234.447 13.0415C234.896 13.4956 235.121 14.2231 235.121 15.2241Z" fill="white"/>
<path opacity="0.9" d="M295.541 18.1831C294.867 18.1831 294.235 18.0586 293.644 17.8096C293.053 17.5605 292.575 17.2017 292.208 16.7329C291.842 16.2593 291.659 15.6929 291.659 15.0337C291.659 14.4819 291.752 14.0278 291.938 13.6714C292.123 13.3101 292.362 13.0146 292.655 12.7852C292.948 12.5508 293.251 12.3481 293.563 12.1772C293.373 12.0698 293.17 11.9258 292.956 11.7451C292.741 11.5596 292.555 11.3179 292.399 11.02C292.248 10.7222 292.172 10.3511 292.172 9.90674C292.172 9.30615 292.331 8.80078 292.648 8.39062C292.97 7.97559 293.393 7.66064 293.915 7.4458C294.442 7.23096 295.009 7.12354 295.614 7.12354C296.225 7.12354 296.779 7.23096 297.277 7.4458C297.775 7.66064 298.17 7.97559 298.463 8.39062C298.761 8.80078 298.91 9.30615 298.91 9.90674C298.91 10.3511 298.837 10.7222 298.69 11.02C298.544 11.313 298.366 11.5522 298.156 11.7378C297.946 11.9185 297.746 12.0649 297.555 12.1772C297.824 12.314 298.102 12.4946 298.39 12.7192C298.678 12.939 298.922 13.2295 299.123 13.5908C299.323 13.9521 299.423 14.4087 299.423 14.9604C299.423 15.6196 299.24 16.1909 298.874 16.6743C298.507 17.1577 298.029 17.5312 297.438 17.7949C296.852 18.0537 296.22 18.1831 295.541 18.1831ZM297.079 10.0166C297.079 9.66016 296.952 9.35254 296.698 9.09375C296.449 8.83008 296.063 8.69824 295.541 8.69824C295.092 8.69824 294.723 8.82031 294.435 9.06445C294.147 9.30859 294.003 9.62598 294.003 10.0166C294.003 10.4414 294.137 10.7856 294.406 11.0493C294.674 11.313 295.053 11.4448 295.541 11.4448C296.029 11.4448 296.408 11.313 296.676 11.0493C296.945 10.7856 297.079 10.4414 297.079 10.0166ZM297.482 14.7407C297.482 14.2378 297.294 13.8252 296.918 13.5029C296.542 13.1807 296.083 13.0195 295.541 13.0195C294.994 13.0195 294.533 13.1807 294.157 13.5029C293.786 13.8252 293.6 14.2378 293.6 14.7407C293.6 15.0435 293.681 15.3291 293.842 15.5977C294.003 15.8662 294.228 16.0835 294.516 16.2495C294.809 16.4155 295.15 16.4985 295.541 16.4985C296.156 16.4985 296.632 16.3203 296.969 15.9639C297.311 15.6074 297.482 15.1997 297.482 14.7407ZM306.454 12.7632C306.454 11.4058 306.305 10.4072 306.007 9.76758C305.714 9.12793 305.253 8.80811 304.623 8.80811C304.027 8.80811 303.573 9.11328 303.261 9.72363C302.948 10.3291 302.792 11.269 302.792 12.5435C302.792 13.896 302.943 14.8945 303.246 15.5391C303.549 16.1787 304.008 16.4985 304.623 16.4985C305.219 16.4985 305.673 16.1934 305.985 15.583C306.298 14.9727 306.454 14.0327 306.454 12.7632ZM308.542 12.5801C308.542 13.9912 308.371 15.1069 308.029 15.9272C307.692 16.7427 307.223 17.3237 306.623 17.6704C306.027 18.0122 305.336 18.1831 304.55 18.1831C303.773 18.1831 303.097 18.0122 302.521 17.6704C301.945 17.3237 301.498 16.7524 301.181 15.9565C300.863 15.1558 300.705 14.0791 300.705 12.7266C300.705 11.3496 300.875 10.2534 301.217 9.43799C301.559 8.61768 302.028 8.02686 302.624 7.66553C303.224 7.3042 303.915 7.12354 304.696 7.12354C305.526 7.12354 306.227 7.30176 306.798 7.6582C307.37 8.00977 307.802 8.58594 308.095 9.38672C308.393 10.1826 308.542 11.2471 308.542 12.5801ZM317.023 7.16016H318.532L312.819 18.1831H311.295L317.023 7.16016ZM312.907 10.1191C312.907 9.38672 312.838 8.86914 312.702 8.56641C312.565 8.26367 312.348 8.1123 312.05 8.1123C311.767 8.1123 311.554 8.26123 311.413 8.55908C311.276 8.85205 311.208 9.33545 311.208 10.0093C311.208 10.7417 311.276 11.2617 311.413 11.5693C311.549 11.877 311.762 12.0308 312.05 12.0308C312.328 12.0308 312.541 11.8818 312.687 11.584C312.833 11.2812 312.907 10.793 312.907 10.1191ZM314.445 10.0239C314.445 10.7417 314.337 11.3179 314.123 11.7524C313.908 12.187 313.617 12.502 313.251 12.6973C312.885 12.8877 312.475 12.9829 312.021 12.9829C311.342 12.9829 310.78 12.7607 310.336 12.3164C309.892 11.8721 309.669 11.1348 309.669 10.1045C309.669 9.41602 309.777 8.85449 309.992 8.41992C310.207 7.98535 310.497 7.66797 310.863 7.46777C311.229 7.2627 311.637 7.16016 312.086 7.16016C312.765 7.16016 313.327 7.38721 313.771 7.84131C314.22 8.29541 314.445 9.02295 314.445 10.0239ZM318.583 15.3193C318.583 14.5869 318.515 14.0693 318.378 13.7666C318.241 13.4639 318.024 13.3125 317.726 13.3125C317.443 13.3125 317.23 13.4614 317.089 13.7593C316.952 14.0522 316.884 14.5356 316.884 15.2095C316.884 15.9419 316.952 16.4619 317.089 16.7695C317.226 17.0771 317.438 17.231 317.726 17.231C318.004 17.231 318.217 17.082 318.363 16.7842C318.51 16.4814 318.583 15.9932 318.583 15.3193ZM320.121 15.2241C320.121 15.9419 320.014 16.5181 319.799 16.9526C319.584 17.3872 319.293 17.7021 318.927 17.8975C318.561 18.0879 318.151 18.1831 317.697 18.1831C317.018 18.1831 316.457 17.9609 316.012 17.5166C315.568 17.0723 315.346 16.335 315.346 15.3047C315.346 14.6162 315.453 14.0547 315.668 13.6201C315.883 13.1855 316.173 12.8682 316.54 12.668C316.906 12.4629 317.313 12.3604 317.763 12.3604C318.441 12.3604 319.003 12.5874 319.447 13.0415C319.896 13.4956 320.121 14.2231 320.121 15.2241Z" fill="white"/>
<path opacity="0.9" d="M378.983 18H372.465V16.2788H374.713V9.43066L372.663 10.5439L372.406 8.63965L374.713 7.30664H376.728V16.2788H378.983V18ZM386.454 12.7632C386.454 11.4058 386.305 10.4072 386.007 9.76758C385.714 9.12793 385.253 8.80811 384.623 8.80811C384.027 8.80811 383.573 9.11328 383.261 9.72363C382.948 10.3291 382.792 11.269 382.792 12.5435C382.792 13.896 382.943 14.8945 383.246 15.5391C383.549 16.1787 384.008 16.4985 384.623 16.4985C385.219 16.4985 385.673 16.1934 385.985 15.583C386.298 14.9727 386.454 14.0327 386.454 12.7632ZM388.542 12.5801C388.542 13.9912 388.371 15.1069 388.029 15.9272C387.692 16.7427 387.223 17.3237 386.623 17.6704C386.027 18.0122 385.336 18.1831 384.55 18.1831C383.773 18.1831 383.097 18.0122 382.521 17.6704C381.945 17.3237 381.498 16.7524 381.181 15.9565C380.863 15.1558 380.705 14.0791 380.705 12.7266C380.705 11.3496 380.875 10.2534 381.217 9.43799C381.559 8.61768 382.028 8.02686 382.624 7.66553C383.224 7.3042 383.915 7.12354 384.696 7.12354C385.526 7.12354 386.227 7.30176 386.798 7.6582C387.37 8.00977 387.802 8.58594 388.095 9.38672C388.393 10.1826 388.542 11.2471 388.542 12.5801ZM395.536 12.7632C395.536 11.4058 395.387 10.4072 395.089 9.76758C394.796 9.12793 394.335 8.80811 393.705 8.80811C393.109 8.80811 392.655 9.11328 392.343 9.72363C392.03 10.3291 391.874 11.269 391.874 12.5435C391.874 13.896 392.025 14.8945 392.328 15.5391C392.631 16.1787 393.09 16.4985 393.705 16.4985C394.301 16.4985 394.755 16.1934 395.067 15.583C395.38 14.9727 395.536 14.0327 395.536 12.7632ZM397.624 12.5801C397.624 13.9912 397.453 15.1069 397.111 15.9272C396.774 16.7427 396.305 17.3237 395.705 17.6704C395.109 18.0122 394.418 18.1831 393.632 18.1831C392.855 18.1831 392.179 18.0122 391.603 17.6704C391.027 17.3237 390.58 16.7524 390.263 15.9565C389.945 15.1558 389.787 14.0791 389.787 12.7266C389.787 11.3496 389.958 10.2534 390.299 9.43799C390.641 8.61768 391.11 8.02686 391.706 7.66553C392.306 7.3042 392.997 7.12354 393.778 7.12354C394.608 7.12354 395.309 7.30176 395.88 7.6582C396.452 8.00977 396.884 8.58594 397.177 9.38672C397.475 10.1826 397.624 11.2471 397.624 12.5801ZM406.105 7.16016H407.614L401.901 18.1831H400.377L406.105 7.16016ZM401.989 10.1191C401.989 9.38672 401.92 8.86914 401.784 8.56641C401.647 8.26367 401.43 8.1123 401.132 8.1123C400.849 8.1123 400.636 8.26123 400.495 8.55908C400.358 8.85205 400.29 9.33545 400.29 10.0093C400.29 10.7417 400.358 11.2617 400.495 11.5693C400.631 11.877 400.844 12.0308 401.132 12.0308C401.41 12.0308 401.623 11.8818 401.769 11.584C401.916 11.2812 401.989 10.793 401.989 10.1191ZM403.527 10.0239C403.527 10.7417 403.419 11.3179 403.205 11.7524C402.99 12.187 402.699 12.502 402.333 12.6973C401.967 12.8877 401.557 12.9829 401.103 12.9829C400.424 12.9829 399.862 12.7607 399.418 12.3164C398.974 11.8721 398.751 11.1348 398.751 10.1045C398.751 9.41602 398.859 8.85449 399.074 8.41992C399.289 7.98535 399.579 7.66797 399.945 7.46777C400.312 7.2627 400.719 7.16016 401.168 7.16016C401.847 7.16016 402.409 7.38721 402.853 7.84131C403.302 8.29541 403.527 9.02295 403.527 10.0239ZM407.665 15.3193C407.665 14.5869 407.597 14.0693 407.46 13.7666C407.323 13.4639 407.106 13.3125 406.808 13.3125C406.525 13.3125 406.312 13.4614 406.171 13.7593C406.034 14.0522 405.966 14.5356 405.966 15.2095C405.966 15.9419 406.034 16.4619 406.171 16.7695C406.308 17.0771 406.52 17.231 406.808 17.231C407.086 17.231 407.299 17.082 407.445 16.7842C407.592 16.4814 407.665 15.9932 407.665 15.3193ZM409.203 15.2241C409.203 15.9419 409.096 16.5181 408.881 16.9526C408.666 17.3872 408.375 17.7021 408.009 17.8975C407.643 18.0879 407.233 18.1831 406.779 18.1831C406.1 18.1831 405.539 17.9609 405.094 17.5166C404.65 17.0723 404.428 16.335 404.428 15.3047C404.428 14.6162 404.535 14.0547 404.75 13.6201C404.965 13.1855 405.255 12.8682 405.622 12.668C405.988 12.4629 406.396 12.3604 406.845 12.3604C407.523 12.3604 408.085 12.5874 408.529 13.0415C408.979 13.4956 409.203 14.2231 409.203 15.2241Z" fill="white"/>
<path opacity="0.9" d="M303.968 75.9858L306.48 67.3066H308.363L307.484 69.4307L305.052 78H302.892L300.445 69.4307L299.559 67.3066H301.463L303.968 75.9858ZM298.863 67.3066H300.804L300.541 69.1743L300.328 78H298.351C298.38 77.7949 298.409 77.4507 298.438 76.9673C298.468 76.479 298.5 75.9077 298.534 75.2534C298.568 74.5991 298.6 73.9106 298.629 73.188C298.663 72.4604 298.692 71.75 298.717 71.0566C298.746 70.3633 298.771 69.7334 298.79 69.167C298.814 68.6006 298.832 68.1489 298.841 67.812C298.856 67.4751 298.863 67.3066 298.863 67.3066ZM309.557 78H307.579L307.396 69.1743L307.066 67.3066H309.044C309.068 68.1025 309.098 68.9448 309.132 69.8335C309.166 70.7222 309.2 71.6035 309.234 72.4775C309.273 73.3516 309.31 74.167 309.344 74.9238C309.383 75.6807 309.42 76.3301 309.454 76.8721C309.493 77.4092 309.527 77.7852 309.557 78ZM318.243 74.7041H312.618V73.3857H316.375C316.375 72.873 316.263 72.502 316.039 72.2725C315.819 72.0381 315.492 71.9209 315.057 71.9209C314.53 71.9209 314.137 72.104 313.878 72.4702C313.624 72.8315 313.497 73.4419 313.497 74.3013C313.497 75.0776 313.653 75.644 313.966 76.0005C314.278 76.3569 314.737 76.5352 315.343 76.5352C315.821 76.5352 316.29 76.479 316.749 76.3667C317.213 76.2544 317.672 76.064 318.126 75.7954L318.28 77.4507C317.752 77.7192 317.242 77.9072 316.749 78.0146C316.261 78.127 315.731 78.1831 315.16 78.1831C314.515 78.1831 313.915 78.0391 313.358 77.751C312.801 77.4629 312.352 77.0356 312.01 76.4692C311.673 75.9028 311.505 75.2046 311.505 74.3745C311.505 73.564 311.651 72.8608 311.944 72.2651C312.242 71.6694 312.665 71.208 313.211 70.8809C313.758 70.5488 314.408 70.3828 315.16 70.3828C315.775 70.3828 316.28 70.4902 316.676 70.7051C317.076 70.915 317.389 71.1982 317.613 71.5547C317.843 71.9111 318.004 72.3115 318.097 72.7559C318.189 73.1953 318.236 73.6445 318.236 74.1035C318.236 74.1719 318.236 74.272 318.236 74.4038C318.241 74.5356 318.243 74.6357 318.243 74.7041ZM327.179 78H325.128C325.128 78 325.128 77.895 325.128 77.6851C325.128 77.4751 325.128 77.2041 325.128 76.8721C325.128 76.54 325.128 76.1885 325.128 75.8174C325.128 75.4463 325.128 75.0972 325.128 74.77C325.128 74.438 325.128 74.1719 325.128 73.9717C325.128 73.2979 325.035 72.8315 324.85 72.5728C324.669 72.3091 324.383 72.1772 323.993 72.1772C323.714 72.1772 323.446 72.2578 323.187 72.4189C322.928 72.5752 322.701 72.7729 322.506 73.0122C322.315 73.2515 322.176 73.498 322.088 73.752V78H320.038C320.038 78 320.038 77.8926 320.038 77.6777C320.038 77.458 320.038 77.1748 320.038 76.8281C320.038 76.4814 320.038 76.1055 320.038 75.7002C320.038 75.29 320.038 74.8921 320.038 74.5063C320.038 74.1157 320.038 73.7788 320.038 73.4956C320.038 72.7778 319.996 72.1675 319.913 71.6646C319.835 71.1616 319.754 70.7832 319.671 70.5293H321.686C321.725 70.627 321.761 70.7612 321.795 70.9321C321.834 71.103 321.871 71.2764 321.905 71.4521C321.939 71.6279 321.964 71.772 321.979 71.8843C322.442 71.3521 322.899 70.9688 323.348 70.7344C323.797 70.5 324.281 70.3828 324.798 70.3828C325.541 70.3828 326.122 70.6392 326.542 71.1519C326.966 71.6597 327.179 72.4165 327.179 73.4224C327.179 73.6665 327.179 73.979 327.179 74.3599C327.179 74.7358 327.179 75.1338 327.179 75.5537C327.179 75.9736 327.179 76.3691 327.179 76.7402C327.179 77.1113 327.179 77.4141 327.179 77.6484C327.179 77.8828 327.179 78 327.179 78ZM328.761 74.2866C328.761 73.4468 328.927 72.7363 329.259 72.1553C329.596 71.5742 330.042 71.1348 330.599 70.8369C331.156 70.5342 331.764 70.3828 332.423 70.3828C333.116 70.3828 333.727 70.5342 334.254 70.8369C334.781 71.1348 335.194 71.5742 335.492 72.1553C335.79 72.7363 335.938 73.4468 335.938 74.2866C335.938 75.1265 335.77 75.8369 335.433 76.418C335.101 76.9941 334.657 77.4336 334.1 77.7363C333.543 78.0342 332.936 78.1831 332.276 78.1831C331.588 78.1831 330.98 78.0342 330.453 77.7363C329.925 77.4336 329.51 76.9941 329.208 76.418C328.91 75.8369 328.761 75.1265 328.761 74.2866ZM330.812 74.2866C330.812 74.9849 330.941 75.5342 331.2 75.9346C331.463 76.335 331.847 76.5352 332.35 76.5352C332.823 76.5352 333.197 76.335 333.47 75.9346C333.749 75.5342 333.888 74.9849 333.888 74.2866C333.888 73.5835 333.756 73.0317 333.492 72.6313C333.233 72.231 332.853 72.0308 332.35 72.0308C331.876 72.0308 331.5 72.231 331.222 72.6313C330.948 73.0317 330.812 73.5835 330.812 74.2866ZM339.71 78H337.66V73.4956C337.66 72.7778 337.618 72.1675 337.535 71.6646C337.457 71.1616 337.376 70.7832 337.293 70.5293H339.308C339.347 70.6318 339.383 70.7734 339.417 70.9541C339.457 71.1348 339.493 71.3179 339.527 71.5034C339.562 71.689 339.586 71.8403 339.601 71.9575C339.957 71.4497 340.348 71.0615 340.772 70.793C341.197 70.5195 341.576 70.3828 341.908 70.3828C342.367 70.3828 342.735 70.5098 343.014 70.7637C343.292 71.0127 343.495 71.3447 343.622 71.7598C343.749 72.1748 343.812 72.6313 343.812 73.1294L342.179 73.3857C342.154 73.0537 342.074 72.7876 341.937 72.5874C341.8 72.3823 341.576 72.2798 341.263 72.2798C341.102 72.2798 340.917 72.3701 340.707 72.5508C340.497 72.7314 340.299 72.9634 340.113 73.2466C339.933 73.5249 339.798 73.8154 339.71 74.1182V78ZM356.417 78H354.476C354.408 77.8438 354.332 77.6436 354.249 77.3994C354.171 77.1504 354.112 76.8989 354.073 76.645C353.644 77.1479 353.194 77.5312 352.726 77.7949C352.262 78.0537 351.778 78.1831 351.275 78.1831C349.747 78.1831 348.983 77.1333 348.983 75.0337C348.983 74.9995 348.983 74.8774 348.983 74.6675C348.983 74.4575 348.983 74.2207 348.983 73.957C348.983 73.6885 348.983 73.4492 348.983 73.2393C348.983 73.0293 348.983 72.9072 348.983 72.873C348.983 72.4092 348.976 72.0137 348.961 71.6865C348.946 71.3545 348.905 70.9688 348.836 70.5293H351.034V74.5942C351.034 75.2583 351.104 75.7417 351.246 76.0444C351.393 76.3423 351.651 76.4912 352.022 76.4912C352.247 76.4912 352.484 76.4082 352.733 76.2422C352.982 76.0762 353.211 75.8735 353.421 75.6343C353.636 75.395 353.792 75.1631 353.89 74.9385V72.873C353.89 72.5508 353.888 72.27 353.883 72.0308C353.878 71.7915 353.863 71.5571 353.839 71.3276C353.819 71.0933 353.788 70.8271 353.744 70.5293H355.941V74.7041C355.941 75.4121 355.982 76.0371 356.065 76.5791C356.148 77.1162 356.266 77.5898 356.417 78ZM363.675 70.9688L363.39 72.6899C363.116 72.5483 362.77 72.397 362.35 72.2358C361.935 72.0747 361.473 71.9941 360.965 71.9941C360.536 71.9941 360.238 72.0674 360.072 72.2139C359.911 72.3604 359.83 72.5068 359.83 72.6533C359.83 72.7705 359.862 72.8706 359.925 72.9536C359.994 73.0366 360.13 73.1147 360.335 73.188C360.545 73.2563 360.865 73.3345 361.295 73.4224C361.803 73.52 362.267 73.6592 362.687 73.8398C363.111 74.0156 363.448 74.2524 363.697 74.5503C363.951 74.8481 364.078 75.229 364.078 75.6929C364.078 76.1616 363.937 76.584 363.653 76.96C363.37 77.3359 362.987 77.6338 362.503 77.8535C362.025 78.0732 361.488 78.1831 360.892 78.1831C360.238 78.1831 359.635 78.1001 359.083 77.9341C358.531 77.7632 358.097 77.5654 357.779 77.3408L358.182 75.5464C358.543 75.8442 358.983 76.0835 359.5 76.2642C360.023 76.4448 360.499 76.5352 360.929 76.5352C361.275 76.5352 361.556 76.4692 361.771 76.3374C361.991 76.2007 362.101 76.0469 362.101 75.876C362.101 75.6611 361.988 75.4731 361.764 75.312C361.539 75.146 361.078 74.9873 360.379 74.8359C359.686 74.6846 359.156 74.5039 358.79 74.2939C358.429 74.084 358.182 73.8472 358.05 73.5835C357.918 73.3198 357.853 73.0342 357.853 72.7266C357.853 72.5459 357.901 72.3262 357.999 72.0674C358.097 71.8037 358.263 71.5449 358.497 71.291C358.736 71.0322 359.061 70.8174 359.471 70.6465C359.886 70.4707 360.409 70.3828 361.039 70.3828C361.634 70.3828 362.152 70.4463 362.591 70.5732C363.031 70.6953 363.392 70.8271 363.675 70.9688ZM365.294 74.2866C365.294 73.4468 365.46 72.7363 365.792 72.1553C366.129 71.5742 366.576 71.1348 367.132 70.8369C367.689 70.5342 368.297 70.3828 368.956 70.3828C369.649 70.3828 370.26 70.5342 370.787 70.8369C371.314 71.1348 371.727 71.5742 372.025 72.1553C372.323 72.7363 372.472 73.4468 372.472 74.2866C372.472 75.1265 372.303 75.8369 371.966 76.418C371.634 76.9941 371.19 77.4336 370.633 77.7363C370.077 78.0342 369.469 78.1831 368.81 78.1831C368.121 78.1831 367.513 78.0342 366.986 77.7363C366.458 77.4336 366.043 76.9941 365.741 76.418C365.443 75.8369 365.294 75.1265 365.294 74.2866ZM367.345 74.2866C367.345 74.9849 367.474 75.5342 367.733 75.9346C367.997 76.335 368.38 76.5352 368.883 76.5352C369.356 76.5352 369.73 76.335 370.003 75.9346C370.282 75.5342 370.421 74.9849 370.421 74.2866C370.421 73.5835 370.289 73.0317 370.025 72.6313C369.767 72.231 369.386 72.0308 368.883 72.0308C368.409 72.0308 368.033 72.231 367.755 72.6313C367.481 73.0317 367.345 73.5835 367.345 74.2866ZM385.326 66.2812V74.1182C385.326 75.041 385.377 75.8174 385.479 76.4473C385.587 77.0723 385.719 77.5898 385.875 78H383.861C383.807 77.8828 383.741 77.7046 383.663 77.4653C383.59 77.2212 383.521 76.9722 383.458 76.7183C383.131 77.187 382.755 77.5483 382.33 77.8022C381.905 78.0562 381.439 78.1831 380.931 78.1831C380.331 78.1831 379.801 78.0366 379.342 77.7437C378.888 77.4507 378.531 77.0381 378.272 76.5059C378.019 75.9688 377.892 75.3438 377.892 74.6309C377.892 73.7666 378.053 73.0171 378.375 72.3823C378.697 71.7476 379.129 71.2568 379.671 70.9102C380.218 70.5586 380.821 70.3828 381.48 70.3828C381.769 70.3828 382.074 70.4463 382.396 70.5732C382.718 70.7002 383.011 70.8442 383.275 71.0054V68.9546C383.275 68.3687 383.26 67.8535 383.231 67.4092C383.207 66.9648 383.16 66.5889 383.092 66.2812H385.326ZM383.275 75.0703V72.5947C382.938 72.4287 382.64 72.3115 382.381 72.2432C382.123 72.1748 381.822 72.1406 381.48 72.1406C381.227 72.1406 380.98 72.231 380.741 72.4116C380.506 72.5923 380.313 72.8511 380.162 73.188C380.016 73.5249 379.942 73.9326 379.942 74.4111C379.942 75.8271 380.406 76.5352 381.334 76.5352C381.593 76.5352 381.849 76.4644 382.103 76.3228C382.357 76.1812 382.586 75.998 382.792 75.7734C382.997 75.5488 383.158 75.3145 383.275 75.0703ZM393.829 74.7041H388.204V73.3857H391.961C391.961 72.873 391.849 72.502 391.625 72.2725C391.405 72.0381 391.078 71.9209 390.643 71.9209C390.116 71.9209 389.723 72.104 389.464 72.4702C389.21 72.8315 389.083 73.4419 389.083 74.3013C389.083 75.0776 389.239 75.644 389.552 76.0005C389.864 76.3569 390.323 76.5352 390.929 76.5352C391.407 76.5352 391.876 76.479 392.335 76.3667C392.799 76.2544 393.258 76.064 393.712 75.7954L393.866 77.4507C393.338 77.7192 392.828 77.9072 392.335 78.0146C391.847 78.127 391.317 78.1831 390.746 78.1831C390.101 78.1831 389.5 78.0391 388.944 77.751C388.387 77.4629 387.938 77.0356 387.596 76.4692C387.259 75.9028 387.091 75.2046 387.091 74.3745C387.091 73.564 387.237 72.8608 387.53 72.2651C387.828 71.6694 388.25 71.208 388.797 70.8809C389.344 70.5488 389.994 70.3828 390.746 70.3828C391.361 70.3828 391.866 70.4902 392.262 70.7051C392.662 70.915 392.975 71.1982 393.199 71.5547C393.429 71.9111 393.59 72.3115 393.683 72.7559C393.775 73.1953 393.822 73.6445 393.822 74.1035C393.822 74.1719 393.822 74.272 393.822 74.4038C393.827 74.5356 393.829 74.6357 393.829 74.7041ZM407.489 75.0337L407.855 76.9746C407.557 77.2139 407.196 77.4238 406.771 77.6045C406.346 77.7852 405.902 77.9268 405.438 78.0293C404.979 78.1318 404.54 78.1831 404.12 78.1831C403.109 78.1831 402.24 77.9634 401.512 77.5239C400.785 77.0845 400.226 76.4619 399.835 75.6562C399.444 74.8506 399.249 73.8984 399.249 72.7998C399.249 71.8574 399.383 71.0322 399.652 70.3242C399.925 69.6113 400.299 69.0181 400.772 68.5444C401.246 68.0708 401.788 67.7168 402.398 67.4824C403.014 67.2432 403.661 67.1235 404.339 67.1235C405.013 67.1235 405.616 67.1992 406.148 67.3506C406.686 67.502 407.218 67.7681 407.745 68.1489L407.232 69.9067C406.769 69.5405 406.307 69.2793 405.848 69.123C405.394 68.9619 404.928 68.8813 404.449 68.8813C403.858 68.8813 403.326 69.0205 402.853 69.2988C402.384 69.5771 402.013 69.9922 401.739 70.5439C401.471 71.0957 401.336 71.7866 401.336 72.6167C401.336 73.7935 401.605 74.7163 402.142 75.3853C402.684 76.0542 403.429 76.3887 404.376 76.3887C404.928 76.3887 405.484 76.2666 406.046 76.0225C406.607 75.7734 407.088 75.4438 407.489 75.0337ZM412.037 74.1694V74.814C412.037 75.5366 412.042 76.1763 412.052 76.7329C412.066 77.2896 412.098 77.7119 412.147 78H409.84C409.894 77.707 409.925 77.2847 409.935 76.7329C409.945 76.1763 409.95 75.5366 409.95 74.814V70.6758C409.95 69.958 409.945 69.2915 409.935 68.6763C409.925 68.0562 409.894 67.5996 409.84 67.3066C409.84 67.3066 409.957 67.3042 410.191 67.2993C410.431 67.2896 410.738 67.2798 411.114 67.27C411.49 67.2603 411.893 67.2529 412.323 67.248C412.757 67.2383 413.17 67.2334 413.561 67.2334C414.352 67.2334 415.045 67.3579 415.641 67.6069C416.236 67.856 416.7 68.2319 417.032 68.7349C417.364 69.2329 417.53 69.8555 417.53 70.6025C417.53 71.3545 417.359 72.0039 417.018 72.5508C416.681 73.0928 416.209 73.5103 415.604 73.8032C414.999 74.0962 414.293 74.2427 413.487 74.2427C412.975 74.2427 412.491 74.2183 412.037 74.1694ZM412.037 68.918V72.5801C412.193 72.6045 412.381 72.624 412.601 72.6387C412.821 72.6484 413.043 72.6533 413.268 72.6533C413.976 72.6533 414.515 72.4897 414.886 72.1626C415.257 71.8306 415.443 71.335 415.443 70.6758C415.443 70.1436 415.277 69.7114 414.945 69.3794C414.618 69.0474 414.068 68.8813 413.297 68.8813C413.014 68.8813 412.784 68.8862 412.608 68.896C412.433 68.9009 412.242 68.9082 412.037 68.918ZM425.521 67.3066H427.718C427.669 67.5996 427.638 68.0146 427.623 68.5518C427.613 69.0889 427.608 69.7358 427.608 70.4927V74.228C427.608 75.4194 427.262 76.3765 426.568 77.0991C425.875 77.8218 424.842 78.1831 423.47 78.1831C422.083 78.1831 421.041 77.8218 420.343 77.0991C419.645 76.3765 419.295 75.4194 419.295 74.228V70.4927C419.295 69.77 419.291 69.1328 419.281 68.5811C419.271 68.0244 419.239 67.5996 419.186 67.3066H421.383V73.8984C421.383 74.4258 421.444 74.8848 421.566 75.2754C421.688 75.666 421.9 75.9688 422.203 76.1836C422.506 76.3984 422.928 76.5059 423.47 76.5059C424.002 76.5059 424.415 76.3984 424.708 76.1836C425.006 75.9688 425.216 75.666 425.338 75.2754C425.46 74.8848 425.521 74.4258 425.521 73.8984V67.3066Z" fill="white"/>
<path d="M21 55H90" stroke="#54A5BA" stroke-width="13" stroke-linecap="square"/>
<path d="M103 55H172" stroke="#3E8AA2" stroke-width="13" stroke-linecap="square"/>
<path d="M185 55H254" stroke="#2C6C84" stroke-width="13" stroke-linecap="square"/>
<path d="M267 55H336" stroke="#1B4E66" stroke-width="13" stroke-linecap="square"/>
<path d="M349 55H423" stroke="#093048" stroke-width="13" stroke-linecap="square"/>
<path d="M15.5 19V40" stroke="white" stroke-opacity="0.5"/>
<path d="M55.5 19V40" stroke="white" stroke-opacity="0.5"/>
<path d="M138 19V40" stroke="white" stroke-opacity="0.5"/>
<path d="M218 19V40" stroke="white" stroke-opacity="0.5"/>
<path d="M302 19V40" stroke="white" stroke-opacity="0.5"/>
<path d="M429 30L15 30" stroke="white" stroke-opacity="0.5"/>
<path d="M429 19V40" stroke="white" stroke-opacity="0.5"/>
<path d="M386 19V40" stroke="white" stroke-opacity="0.5"/>
</svg>
