<svg width="458" height="82" viewBox="0 0 458 82" fill="none" xmlns="http://www.w3.org/2000/svg">
<path opacity="0.9" d="M21.7163 75.9858L24.2285 67.3066H26.1108L25.2319 69.4307L22.8003 78H20.6396L18.1934 69.4307L17.3071 67.3066H19.2114L21.7163 75.9858ZM16.6113 67.3066H18.5522L18.2886 69.1743L18.0762 78H16.0986C16.1279 77.7949 16.1572 77.4507 16.1865 76.9673C16.2158 76.479 16.2476 75.9077 16.2817 75.2534C16.3159 74.5991 16.3477 73.9106 16.377 73.188C16.4111 72.4604 16.4404 71.75 16.4648 71.0566C16.4941 70.3633 16.5186 69.7334 16.5381 69.167C16.5625 68.6006 16.5796 68.1489 16.5894 67.812C16.604 67.4751 16.6113 67.3066 16.6113 67.3066ZM27.3047 78H25.3271L25.144 69.1743L24.8145 67.3066H26.792C26.8164 68.1025 26.8457 68.9448 26.8799 69.8335C26.9141 70.7222 26.9482 71.6035 26.9824 72.4775C27.0215 73.3516 27.0581 74.167 27.0923 74.9238C27.1313 75.6807 27.168 76.3301 27.2021 76.8721C27.2412 77.4092 27.2754 77.7852 27.3047 78ZM35.9912 74.7041H30.3662V73.3857H34.1235C34.1235 72.873 34.0112 72.502 33.7866 72.2725C33.5669 72.0381 33.2397 71.9209 32.8052 71.9209C32.2778 71.9209 31.8848 72.104 31.626 72.4702C31.3721 72.8315 31.2451 73.4419 31.2451 74.3013C31.2451 75.0776 31.4014 75.644 31.7139 76.0005C32.0264 76.3569 32.4854 76.5352 33.0908 76.5352C33.5693 76.5352 34.0381 76.479 34.4971 76.3667C34.9609 76.2544 35.4199 76.064 35.874 75.7954L36.0278 77.4507C35.5005 77.7192 34.9902 77.9072 34.4971 78.0146C34.0088 78.127 33.479 78.1831 32.9077 78.1831C32.2632 78.1831 31.6626 78.0391 31.106 77.751C30.5493 77.4629 30.1001 77.0356 29.7583 76.4692C29.4214 75.9028 29.2529 75.2046 29.2529 74.3745C29.2529 73.564 29.3994 72.8608 29.6924 72.2651C29.9902 71.6694 30.4126 71.208 30.9595 70.8809C31.5063 70.5488 32.1558 70.3828 32.9077 70.3828C33.5229 70.3828 34.0283 70.4902 34.4238 70.7051C34.8242 70.915 35.1367 71.1982 35.3613 71.5547C35.5908 71.9111 35.752 72.3115 35.8447 72.7559C35.9375 73.1953 35.9839 73.6445 35.9839 74.1035C35.9839 74.1719 35.9839 74.272 35.9839 74.4038C35.9888 74.5356 35.9912 74.6357 35.9912 74.7041ZM44.9268 78H42.876C42.876 78 42.876 77.895 42.876 77.6851C42.876 77.4751 42.876 77.2041 42.876 76.8721C42.876 76.54 42.876 76.1885 42.876 75.8174C42.876 75.4463 42.876 75.0972 42.876 74.77C42.876 74.438 42.876 74.1719 42.876 73.9717C42.876 73.2979 42.7832 72.8315 42.5977 72.5728C42.417 72.3091 42.1313 72.1772 41.7407 72.1772C41.4624 72.1772 41.1938 72.2578 40.9351 72.4189C40.6763 72.5752 40.4492 72.7729 40.2539 73.0122C40.0635 73.2515 39.9243 73.498 39.8364 73.752V78H37.7856C37.7856 78 37.7856 77.8926 37.7856 77.6777C37.7856 77.458 37.7856 77.1748 37.7856 76.8281C37.7856 76.4814 37.7856 76.1055 37.7856 75.7002C37.7856 75.29 37.7856 74.8921 37.7856 74.5063C37.7856 74.1157 37.7856 73.7788 37.7856 73.4956C37.7856 72.7778 37.7441 72.1675 37.6611 71.6646C37.583 71.1616 37.5024 70.7832 37.4194 70.5293H39.4336C39.4727 70.627 39.5093 70.7612 39.5435 70.9321C39.5825 71.103 39.6191 71.2764 39.6533 71.4521C39.6875 71.6279 39.7119 71.772 39.7266 71.8843C40.1904 71.3521 40.647 70.9688 41.0962 70.7344C41.5454 70.5 42.0288 70.3828 42.5464 70.3828C43.2886 70.3828 43.8696 70.6392 44.2896 71.1519C44.7144 71.6597 44.9268 72.4165 44.9268 73.4224C44.9268 73.6665 44.9268 73.979 44.9268 74.3599C44.9268 74.7358 44.9268 75.1338 44.9268 75.5537C44.9268 75.9736 44.9268 76.3691 44.9268 76.7402C44.9268 77.1113 44.9268 77.4141 44.9268 77.6484C44.9268 77.8828 44.9268 78 44.9268 78ZM46.5088 74.2866C46.5088 73.4468 46.6748 72.7363 47.0068 72.1553C47.3438 71.5742 47.7905 71.1348 48.3472 70.8369C48.9038 70.5342 49.5117 70.3828 50.1709 70.3828C50.8643 70.3828 51.4746 70.5342 52.002 70.8369C52.5293 71.1348 52.9419 71.5742 53.2397 72.1553C53.5376 72.7363 53.6865 73.4468 53.6865 74.2866C53.6865 75.1265 53.5181 75.8369 53.1812 76.418C52.8491 76.9941 52.4048 77.4336 51.8481 77.7363C51.2915 78.0342 50.6836 78.1831 50.0244 78.1831C49.3359 78.1831 48.728 78.0342 48.2007 77.7363C47.6733 77.4336 47.2583 76.9941 46.9556 76.418C46.6577 75.8369 46.5088 75.1265 46.5088 74.2866ZM48.5596 74.2866C48.5596 74.9849 48.689 75.5342 48.9478 75.9346C49.2114 76.335 49.5947 76.5352 50.0977 76.5352C50.5713 76.5352 50.9448 76.335 51.2183 75.9346C51.4966 75.5342 51.6357 74.9849 51.6357 74.2866C51.6357 73.5835 51.5039 73.0317 51.2402 72.6313C50.9814 72.231 50.6006 72.0308 50.0977 72.0308C49.624 72.0308 49.248 72.231 48.9697 72.6313C48.6963 73.0317 48.5596 73.5835 48.5596 74.2866ZM57.4585 78H55.4077V73.4956C55.4077 72.7778 55.3662 72.1675 55.2832 71.6646C55.2051 71.1616 55.1245 70.7832 55.0415 70.5293H57.0557C57.0947 70.6318 57.1313 70.7734 57.1655 70.9541C57.2046 71.1348 57.2412 71.3179 57.2754 71.5034C57.3096 71.689 57.334 71.8403 57.3486 71.9575C57.7051 71.4497 58.0957 71.0615 58.5205 70.793C58.9453 70.5195 59.3237 70.3828 59.6558 70.3828C60.1147 70.3828 60.4834 70.5098 60.7617 70.7637C61.04 71.0127 61.2427 71.3447 61.3696 71.7598C61.4966 72.1748 61.5601 72.6313 61.5601 73.1294L59.9268 73.3857C59.9023 73.0537 59.8218 72.7876 59.6851 72.5874C59.5483 72.3823 59.3237 72.2798 59.0112 72.2798C58.8501 72.2798 58.6646 72.3701 58.4546 72.5508C58.2446 72.7314 58.0469 72.9634 57.8613 73.2466C57.6807 73.5249 57.5464 73.8154 57.4585 74.1182V78ZM74.165 78H72.2241C72.1558 77.8438 72.0801 77.6436 71.9971 77.3994C71.9189 77.1504 71.8604 76.8989 71.8213 76.645C71.3916 77.1479 70.9424 77.5312 70.4736 77.7949C70.0098 78.0537 69.5264 78.1831 69.0234 78.1831C67.4951 78.1831 66.731 77.1333 66.731 75.0337C66.731 74.9995 66.731 74.8774 66.731 74.6675C66.731 74.4575 66.731 74.2207 66.731 73.957C66.731 73.6885 66.731 73.4492 66.731 73.2393C66.731 73.0293 66.731 72.9072 66.731 72.873C66.731 72.4092 66.7236 72.0137 66.709 71.6865C66.6943 71.3545 66.6528 70.9688 66.5845 70.5293H68.7817V74.5942C68.7817 75.2583 68.8525 75.7417 68.9941 76.0444C69.1406 76.3423 69.3994 76.4912 69.7705 76.4912C69.9951 76.4912 70.2319 76.4082 70.481 76.2422C70.73 76.0762 70.9595 75.8735 71.1694 75.6343C71.3843 75.395 71.5405 75.1631 71.6382 74.9385V72.873C71.6382 72.5508 71.6357 72.27 71.6309 72.0308C71.626 71.7915 71.6113 71.5571 71.5869 71.3276C71.5674 71.0933 71.5356 70.8271 71.4917 70.5293H73.689V74.7041C73.689 75.4121 73.7305 76.0371 73.8135 76.5791C73.8965 77.1162 74.0137 77.5898 74.165 78ZM81.4233 70.9688L81.1377 72.6899C80.8643 72.5483 80.5176 72.397 80.0977 72.2358C79.6826 72.0747 79.2212 71.9941 78.7134 71.9941C78.2837 71.9941 77.9858 72.0674 77.8198 72.2139C77.6587 72.3604 77.5781 72.5068 77.5781 72.6533C77.5781 72.7705 77.6099 72.8706 77.6733 72.9536C77.7417 73.0366 77.8784 73.1147 78.0835 73.188C78.2935 73.2563 78.6133 73.3345 79.043 73.4224C79.5508 73.52 80.0146 73.6592 80.4346 73.8398C80.8594 74.0156 81.1963 74.2524 81.4453 74.5503C81.6992 74.8481 81.8262 75.229 81.8262 75.6929C81.8262 76.1616 81.6846 76.584 81.4014 76.96C81.1182 77.3359 80.7349 77.6338 80.2515 77.8535C79.7729 78.0732 79.2358 78.1831 78.6401 78.1831C77.9858 78.1831 77.3828 78.1001 76.8311 77.9341C76.2793 77.7632 75.8447 77.5654 75.5273 77.3408L75.9302 75.5464C76.2915 75.8442 76.731 76.0835 77.2485 76.2642C77.771 76.4448 78.2471 76.5352 78.6768 76.5352C79.0234 76.5352 79.3042 76.4692 79.519 76.3374C79.7388 76.2007 79.8486 76.0469 79.8486 75.876C79.8486 75.6611 79.7363 75.4731 79.5117 75.312C79.2871 75.146 78.8257 74.9873 78.1274 74.8359C77.4341 74.6846 76.9043 74.5039 76.5381 74.2939C76.1768 74.084 75.9302 73.8472 75.7983 73.5835C75.6665 73.3198 75.6006 73.0342 75.6006 72.7266C75.6006 72.5459 75.6494 72.3262 75.7471 72.0674C75.8447 71.8037 76.0107 71.5449 76.2451 71.291C76.4844 71.0322 76.8091 70.8174 77.2192 70.6465C77.6343 70.4707 78.1567 70.3828 78.7866 70.3828C79.3823 70.3828 79.8999 70.4463 80.3394 70.5732C80.7788 70.6953 81.1401 70.8271 81.4233 70.9688ZM83.042 74.2866C83.042 73.4468 83.208 72.7363 83.54 72.1553C83.877 71.5742 84.3237 71.1348 84.8804 70.8369C85.437 70.5342 86.0449 70.3828 86.7041 70.3828C87.3975 70.3828 88.0078 70.5342 88.5352 70.8369C89.0625 71.1348 89.4751 71.5742 89.7729 72.1553C90.0708 72.7363 90.2197 73.4468 90.2197 74.2866C90.2197 75.1265 90.0513 75.8369 89.7144 76.418C89.3823 76.9941 88.938 77.4336 88.3813 77.7363C87.8247 78.0342 87.2168 78.1831 86.5576 78.1831C85.8691 78.1831 85.2612 78.0342 84.7339 77.7363C84.2065 77.4336 83.7915 76.9941 83.4888 76.418C83.1909 75.8369 83.042 75.1265 83.042 74.2866ZM85.0928 74.2866C85.0928 74.9849 85.2222 75.5342 85.481 75.9346C85.7446 76.335 86.1279 76.5352 86.6309 76.5352C87.1045 76.5352 87.478 76.335 87.7515 75.9346C88.0298 75.5342 88.1689 74.9849 88.1689 74.2866C88.1689 73.5835 88.0371 73.0317 87.7734 72.6313C87.5146 72.231 87.1338 72.0308 86.6309 72.0308C86.1572 72.0308 85.7812 72.231 85.5029 72.6313C85.2295 73.0317 85.0928 73.5835 85.0928 74.2866ZM103.074 66.2812V74.1182C103.074 75.041 103.125 75.8174 103.228 76.4473C103.335 77.0723 103.467 77.5898 103.623 78H101.609C101.555 77.8828 101.489 77.7046 101.411 77.4653C101.338 77.2212 101.27 76.9722 101.206 76.7183C100.879 77.187 100.503 77.5483 100.078 77.8022C99.6533 78.0562 99.187 78.1831 98.6792 78.1831C98.0786 78.1831 97.5488 78.0366 97.0898 77.7437C96.6357 77.4507 96.2793 77.0381 96.0205 76.5059C95.7666 75.9688 95.6396 75.3438 95.6396 74.6309C95.6396 73.7666 95.8008 73.0171 96.123 72.3823C96.4453 71.7476 96.8774 71.2568 97.4194 70.9102C97.9663 70.5586 98.5693 70.3828 99.2285 70.3828C99.5166 70.3828 99.8218 70.4463 100.144 70.5732C100.466 70.7002 100.759 70.8442 101.023 71.0054V68.9546C101.023 68.3687 101.008 67.8535 100.979 67.4092C100.955 66.9648 100.908 66.5889 100.84 66.2812H103.074ZM101.023 75.0703V72.5947C100.686 72.4287 100.388 72.3115 100.129 72.2432C99.8706 72.1748 99.5703 72.1406 99.2285 72.1406C98.9746 72.1406 98.728 72.231 98.4888 72.4116C98.2544 72.5923 98.0615 72.8511 97.9102 73.188C97.7637 73.5249 97.6904 73.9326 97.6904 74.4111C97.6904 75.8271 98.1543 76.5352 99.082 76.5352C99.3408 76.5352 99.5972 76.4644 99.8511 76.3228C100.105 76.1812 100.334 75.998 100.54 75.7734C100.745 75.5488 100.906 75.3145 101.023 75.0703ZM111.577 74.7041H105.952V73.3857H109.709C109.709 72.873 109.597 72.502 109.373 72.2725C109.153 72.0381 108.826 71.9209 108.391 71.9209C107.864 71.9209 107.471 72.104 107.212 72.4702C106.958 72.8315 106.831 73.4419 106.831 74.3013C106.831 75.0776 106.987 75.644 107.3 76.0005C107.612 76.3569 108.071 76.5352 108.677 76.5352C109.155 76.5352 109.624 76.479 110.083 76.3667C110.547 76.2544 111.006 76.064 111.46 75.7954L111.614 77.4507C111.086 77.7192 110.576 77.9072 110.083 78.0146C109.595 78.127 109.065 78.1831 108.494 78.1831C107.849 78.1831 107.249 78.0391 106.692 77.751C106.135 77.4629 105.686 77.0356 105.344 76.4692C105.007 75.9028 104.839 75.2046 104.839 74.3745C104.839 73.564 104.985 72.8608 105.278 72.2651C105.576 71.6694 105.999 71.208 106.545 70.8809C107.092 70.5488 107.742 70.3828 108.494 70.3828C109.109 70.3828 109.614 70.4902 110.01 70.7051C110.41 70.915 110.723 71.1982 110.947 71.5547C111.177 71.9111 111.338 72.3115 111.431 72.7559C111.523 73.1953 111.57 73.6445 111.57 74.1035C111.57 74.1719 111.57 74.272 111.57 74.4038C111.575 74.5356 111.577 74.6357 111.577 74.7041ZM125.237 75.0337L125.603 76.9746C125.305 77.2139 124.944 77.4238 124.519 77.6045C124.094 77.7852 123.65 77.9268 123.186 78.0293C122.727 78.1318 122.288 78.1831 121.868 78.1831C120.857 78.1831 119.988 77.9634 119.26 77.5239C118.533 77.0845 117.974 76.4619 117.583 75.6562C117.192 74.8506 116.997 73.8984 116.997 72.7998C116.997 71.8574 117.131 71.0322 117.4 70.3242C117.673 69.6113 118.047 69.0181 118.521 68.5444C118.994 68.0708 119.536 67.7168 120.146 67.4824C120.762 67.2432 121.409 67.1235 122.087 67.1235C122.761 67.1235 123.364 67.1992 123.896 67.3506C124.434 67.502 124.966 67.7681 125.493 68.1489L124.98 69.9067C124.517 69.5405 124.055 69.2793 123.596 69.123C123.142 68.9619 122.676 68.8813 122.197 68.8813C121.606 68.8813 121.074 69.0205 120.601 69.2988C120.132 69.5771 119.761 69.9922 119.487 70.5439C119.219 71.0957 119.084 71.7866 119.084 72.6167C119.084 73.7935 119.353 74.7163 119.89 75.3853C120.432 76.0542 121.177 76.3887 122.124 76.3887C122.676 76.3887 123.232 76.2666 123.794 76.0225C124.355 75.7734 124.836 75.4438 125.237 75.0337ZM129.785 74.1694V74.814C129.785 75.5366 129.79 76.1763 129.8 76.7329C129.814 77.2896 129.846 77.7119 129.895 78H127.588C127.642 77.707 127.673 77.2847 127.683 76.7329C127.693 76.1763 127.698 75.5366 127.698 74.814V70.6758C127.698 69.958 127.693 69.2915 127.683 68.6763C127.673 68.0562 127.642 67.5996 127.588 67.3066C127.588 67.3066 127.705 67.3042 127.939 67.2993C128.179 67.2896 128.486 67.2798 128.862 67.27C129.238 67.2603 129.641 67.2529 130.071 67.248C130.505 67.2383 130.918 67.2334 131.309 67.2334C132.1 67.2334 132.793 67.3579 133.389 67.6069C133.984 67.856 134.448 68.2319 134.78 68.7349C135.112 69.2329 135.278 69.8555 135.278 70.6025C135.278 71.3545 135.107 72.0039 134.766 72.5508C134.429 73.0928 133.958 73.5103 133.352 73.8032C132.747 74.0962 132.041 74.2427 131.235 74.2427C130.723 74.2427 130.239 74.2183 129.785 74.1694ZM129.785 68.918V72.5801C129.941 72.6045 130.129 72.624 130.349 72.6387C130.569 72.6484 130.791 72.6533 131.016 72.6533C131.724 72.6533 132.263 72.4897 132.634 72.1626C133.005 71.8306 133.191 71.335 133.191 70.6758C133.191 70.1436 133.025 69.7114 132.693 69.3794C132.366 69.0474 131.816 68.8813 131.045 68.8813C130.762 68.8813 130.532 68.8862 130.356 68.896C130.181 68.9009 129.99 68.9082 129.785 68.918ZM143.269 67.3066H145.466C145.417 67.5996 145.386 68.0146 145.371 68.5518C145.361 69.0889 145.356 69.7358 145.356 70.4927V74.228C145.356 75.4194 145.01 76.3765 144.316 77.0991C143.623 77.8218 142.59 78.1831 141.218 78.1831C139.832 78.1831 138.789 77.8218 138.091 77.0991C137.393 76.3765 137.043 75.4194 137.043 74.228V70.4927C137.043 69.77 137.039 69.1328 137.029 68.5811C137.019 68.0244 136.987 67.5996 136.934 67.3066H139.131V73.8984C139.131 74.4258 139.192 74.8848 139.314 75.2754C139.436 75.666 139.648 75.9688 139.951 76.1836C140.254 76.3984 140.676 76.5059 141.218 76.5059C141.75 76.5059 142.163 76.3984 142.456 76.1836C142.754 75.9688 142.964 75.666 143.086 75.2754C143.208 74.8848 143.269 74.4258 143.269 73.8984V67.3066Z" fill="white"/>
<path opacity="0.9" d="M51.1519 16.0957V18H43.9741V16.3887C44.4722 16.0322 44.9946 15.6196 45.5415 15.1509C46.0933 14.6772 46.6084 14.1768 47.0869 13.6494C47.5703 13.1221 47.9634 12.5947 48.2661 12.0674C48.5688 11.5352 48.7202 11.0347 48.7202 10.5659C48.7202 10.1313 48.5884 9.75537 48.3247 9.43799C48.061 9.11572 47.6484 8.95459 47.0869 8.95459C46.6377 8.95459 46.1616 9.08154 45.6587 9.33545C45.1558 9.58936 44.7407 9.91406 44.4136 10.3096L43.9375 8.55176C44.1621 8.27832 44.4551 8.03418 44.8164 7.81934C45.1826 7.60449 45.5781 7.43604 46.0029 7.31396C46.4326 7.18701 46.855 7.12354 47.27 7.12354C47.978 7.12354 48.5981 7.25049 49.1304 7.50439C49.6675 7.75342 50.085 8.10742 50.3828 8.56641C50.6807 9.02539 50.8296 9.56982 50.8296 10.1997C50.8296 10.7954 50.6904 11.3838 50.4121 11.9648C50.1387 12.541 49.7871 13.0903 49.3574 13.6128C48.9277 14.1353 48.4736 14.6187 47.9951 15.063C47.5215 15.5024 47.0845 15.8833 46.6841 16.2056H48.625C49.1084 16.2056 49.499 16.2031 49.7969 16.1982C50.0947 16.1934 50.3462 16.1836 50.5513 16.1689C50.7563 16.1543 50.9565 16.1299 51.1519 16.0957ZM58.4541 12.7632C58.4541 11.4058 58.3052 10.4072 58.0073 9.76758C57.7144 9.12793 57.2529 8.80811 56.623 8.80811C56.0273 8.80811 55.5732 9.11328 55.2607 9.72363C54.9482 10.3291 54.792 11.269 54.792 12.5435C54.792 13.896 54.9434 14.8945 55.2461 15.5391C55.5488 16.1787 56.0078 16.4985 56.623 16.4985C57.2188 16.4985 57.6729 16.1934 57.9854 15.583C58.2979 14.9727 58.4541 14.0327 58.4541 12.7632ZM60.5415 12.5801C60.5415 13.9912 60.3706 15.1069 60.0288 15.9272C59.6919 16.7427 59.2231 17.3237 58.6226 17.6704C58.0269 18.0122 57.3359 18.1831 56.5498 18.1831C55.7734 18.1831 55.0972 18.0122 54.521 17.6704C53.9448 17.3237 53.498 16.7524 53.1807 15.9565C52.8633 15.1558 52.7046 14.0791 52.7046 12.7266C52.7046 11.3496 52.8755 10.2534 53.2173 9.43799C53.5591 8.61768 54.0278 8.02686 54.6235 7.66553C55.2241 7.3042 55.915 7.12354 56.6963 7.12354C57.5264 7.12354 58.2271 7.30176 58.7983 7.6582C59.3696 8.00977 59.8018 8.58594 60.0947 9.38672C60.3926 10.1826 60.5415 11.2471 60.5415 12.5801ZM69.0229 7.16016H70.5317L64.8188 18.1831H63.2954L69.0229 7.16016ZM64.9067 10.1191C64.9067 9.38672 64.8384 8.86914 64.7017 8.56641C64.5649 8.26367 64.3477 8.1123 64.0498 8.1123C63.7666 8.1123 63.5542 8.26123 63.4126 8.55908C63.2759 8.85205 63.2075 9.33545 63.2075 10.0093C63.2075 10.7417 63.2759 11.2617 63.4126 11.5693C63.5493 11.877 63.7617 12.0308 64.0498 12.0308C64.3281 12.0308 64.5405 11.8818 64.687 11.584C64.8335 11.2812 64.9067 10.793 64.9067 10.1191ZM66.4448 10.0239C66.4448 10.7417 66.3374 11.3179 66.1226 11.7524C65.9077 12.187 65.6172 12.502 65.251 12.6973C64.8848 12.8877 64.4746 12.9829 64.0205 12.9829C63.3418 12.9829 62.7803 12.7607 62.3359 12.3164C61.8916 11.8721 61.6694 11.1348 61.6694 10.1045C61.6694 9.41602 61.7769 8.85449 61.9917 8.41992C62.2065 7.98535 62.4971 7.66797 62.8633 7.46777C63.2295 7.2627 63.6372 7.16016 64.0864 7.16016C64.7651 7.16016 65.3267 7.38721 65.771 7.84131C66.2202 8.29541 66.4448 9.02295 66.4448 10.0239ZM70.583 15.3193C70.583 14.5869 70.5146 14.0693 70.3779 13.7666C70.2412 13.4639 70.0239 13.3125 69.7261 13.3125C69.4429 13.3125 69.2305 13.4614 69.0889 13.7593C68.9521 14.0522 68.8838 14.5356 68.8838 15.2095C68.8838 15.9419 68.9521 16.4619 69.0889 16.7695C69.2256 17.0771 69.438 17.231 69.7261 17.231C70.0044 17.231 70.2168 17.082 70.3633 16.7842C70.5098 16.4814 70.583 15.9932 70.583 15.3193ZM72.1211 15.2241C72.1211 15.9419 72.0137 16.5181 71.7988 16.9526C71.584 17.3872 71.2935 17.7021 70.9272 17.8975C70.561 18.0879 70.1509 18.1831 69.6968 18.1831C69.0181 18.1831 68.4565 17.9609 68.0122 17.5166C67.5679 17.0723 67.3457 16.335 67.3457 15.3047C67.3457 14.6162 67.4531 14.0547 67.668 13.6201C67.8828 13.1855 68.1733 12.8682 68.5396 12.668C68.9058 12.4629 69.3135 12.3604 69.7627 12.3604C70.4414 12.3604 71.0029 12.5874 71.4473 13.0415C71.8965 13.4956 72.1211 14.2231 72.1211 15.2241Z" fill="white"/>
<path opacity="0.9" d="M133.606 15.4731H132.434V18H130.493V15.4731H125.586V13.8252L130.237 7.30664H132.434V13.8252H133.606V15.4731ZM130.493 9.61377L127.38 13.8252H130.493V9.61377ZM140.454 12.7632C140.454 11.4058 140.305 10.4072 140.007 9.76758C139.714 9.12793 139.253 8.80811 138.623 8.80811C138.027 8.80811 137.573 9.11328 137.261 9.72363C136.948 10.3291 136.792 11.269 136.792 12.5435C136.792 13.896 136.943 14.8945 137.246 15.5391C137.549 16.1787 138.008 16.4985 138.623 16.4985C139.219 16.4985 139.673 16.1934 139.985 15.583C140.298 14.9727 140.454 14.0327 140.454 12.7632ZM142.542 12.5801C142.542 13.9912 142.371 15.1069 142.029 15.9272C141.692 16.7427 141.223 17.3237 140.623 17.6704C140.027 18.0122 139.336 18.1831 138.55 18.1831C137.773 18.1831 137.097 18.0122 136.521 17.6704C135.945 17.3237 135.498 16.7524 135.181 15.9565C134.863 15.1558 134.705 14.0791 134.705 12.7266C134.705 11.3496 134.875 10.2534 135.217 9.43799C135.559 8.61768 136.028 8.02686 136.624 7.66553C137.224 7.3042 137.915 7.12354 138.696 7.12354C139.526 7.12354 140.227 7.30176 140.798 7.6582C141.37 8.00977 141.802 8.58594 142.095 9.38672C142.393 10.1826 142.542 11.2471 142.542 12.5801ZM151.023 7.16016H152.532L146.819 18.1831H145.295L151.023 7.16016ZM146.907 10.1191C146.907 9.38672 146.838 8.86914 146.702 8.56641C146.565 8.26367 146.348 8.1123 146.05 8.1123C145.767 8.1123 145.554 8.26123 145.413 8.55908C145.276 8.85205 145.208 9.33545 145.208 10.0093C145.208 10.7417 145.276 11.2617 145.413 11.5693C145.549 11.877 145.762 12.0308 146.05 12.0308C146.328 12.0308 146.541 11.8818 146.687 11.584C146.833 11.2812 146.907 10.793 146.907 10.1191ZM148.445 10.0239C148.445 10.7417 148.337 11.3179 148.123 11.7524C147.908 12.187 147.617 12.502 147.251 12.6973C146.885 12.8877 146.475 12.9829 146.021 12.9829C145.342 12.9829 144.78 12.7607 144.336 12.3164C143.892 11.8721 143.669 11.1348 143.669 10.1045C143.669 9.41602 143.777 8.85449 143.992 8.41992C144.207 7.98535 144.497 7.66797 144.863 7.46777C145.229 7.2627 145.637 7.16016 146.086 7.16016C146.765 7.16016 147.327 7.38721 147.771 7.84131C148.22 8.29541 148.445 9.02295 148.445 10.0239ZM152.583 15.3193C152.583 14.5869 152.515 14.0693 152.378 13.7666C152.241 13.4639 152.024 13.3125 151.726 13.3125C151.443 13.3125 151.23 13.4614 151.089 13.7593C150.952 14.0522 150.884 14.5356 150.884 15.2095C150.884 15.9419 150.952 16.4619 151.089 16.7695C151.226 17.0771 151.438 17.231 151.726 17.231C152.004 17.231 152.217 17.082 152.363 16.7842C152.51 16.4814 152.583 15.9932 152.583 15.3193ZM154.121 15.2241C154.121 15.9419 154.014 16.5181 153.799 16.9526C153.584 17.3872 153.293 17.7021 152.927 17.8975C152.561 18.0879 152.151 18.1831 151.697 18.1831C151.018 18.1831 150.457 17.9609 150.012 17.5166C149.568 17.0723 149.346 16.335 149.346 15.3047C149.346 14.6162 149.453 14.0547 149.668 13.6201C149.883 13.1855 150.173 12.8682 150.54 12.668C150.906 12.4629 151.313 12.3604 151.763 12.3604C152.441 12.3604 153.003 12.5874 153.447 13.0415C153.896 13.4956 154.121 14.2231 154.121 15.2241Z" fill="white"/>
<path opacity="0.9" d="M213.932 7.78271L213.463 9.65039C213.151 9.33301 212.814 9.12061 212.453 9.01318C212.091 8.90088 211.735 8.84473 211.383 8.84473C211.022 8.84473 210.678 8.91064 210.351 9.04248C210.028 9.16943 209.74 9.39648 209.486 9.72363C209.232 10.0459 209.032 10.4951 208.886 11.0713C208.744 11.6475 208.673 12.3823 208.673 13.2759C208.673 14.2231 208.874 14.9922 209.274 15.583C209.679 16.1689 210.214 16.4619 210.878 16.4619C211.239 16.4619 211.552 16.3765 211.815 16.2056C212.084 16.0347 212.292 15.8125 212.438 15.5391C212.589 15.2656 212.665 14.9751 212.665 14.6675C212.665 14.1304 212.511 13.686 212.204 13.3345C211.896 12.978 211.452 12.7998 210.871 12.7998C210.304 12.7998 209.792 12.9146 209.333 13.144C208.878 13.3687 208.5 13.6689 208.197 14.0449L207.721 13.2026C208.136 12.6362 208.615 12.165 209.157 11.7891C209.699 11.4131 210.319 11.2251 211.017 11.2251C211.72 11.2251 212.335 11.3716 212.863 11.6646C213.39 11.9575 213.8 12.3555 214.093 12.8584C214.386 13.3564 214.533 13.9229 214.533 14.5576C214.533 15.2656 214.379 15.8931 214.071 16.4399C213.769 16.9868 213.341 17.4141 212.79 17.7217C212.238 18.0293 211.591 18.1831 210.849 18.1831C209.55 18.1831 208.539 17.7412 207.816 16.8574C207.094 15.9736 206.732 14.6943 206.732 13.0195C206.732 12.3066 206.815 11.6011 206.981 10.9028C207.152 10.2046 207.421 9.57227 207.787 9.00586C208.158 8.43457 208.644 7.97803 209.245 7.63623C209.85 7.29443 210.587 7.12354 211.457 7.12354C211.964 7.12354 212.409 7.16992 212.79 7.2627C213.17 7.35059 213.551 7.52393 213.932 7.78271ZM221.454 12.7632C221.454 11.4058 221.305 10.4072 221.007 9.76758C220.714 9.12793 220.253 8.80811 219.623 8.80811C219.027 8.80811 218.573 9.11328 218.261 9.72363C217.948 10.3291 217.792 11.269 217.792 12.5435C217.792 13.896 217.943 14.8945 218.246 15.5391C218.549 16.1787 219.008 16.4985 219.623 16.4985C220.219 16.4985 220.673 16.1934 220.985 15.583C221.298 14.9727 221.454 14.0327 221.454 12.7632ZM223.542 12.5801C223.542 13.9912 223.371 15.1069 223.029 15.9272C222.692 16.7427 222.223 17.3237 221.623 17.6704C221.027 18.0122 220.336 18.1831 219.55 18.1831C218.773 18.1831 218.097 18.0122 217.521 17.6704C216.945 17.3237 216.498 16.7524 216.181 15.9565C215.863 15.1558 215.705 14.0791 215.705 12.7266C215.705 11.3496 215.875 10.2534 216.217 9.43799C216.559 8.61768 217.028 8.02686 217.624 7.66553C218.224 7.3042 218.915 7.12354 219.696 7.12354C220.526 7.12354 221.227 7.30176 221.798 7.6582C222.37 8.00977 222.802 8.58594 223.095 9.38672C223.393 10.1826 223.542 11.2471 223.542 12.5801ZM232.023 7.16016H233.532L227.819 18.1831H226.295L232.023 7.16016ZM227.907 10.1191C227.907 9.38672 227.838 8.86914 227.702 8.56641C227.565 8.26367 227.348 8.1123 227.05 8.1123C226.767 8.1123 226.554 8.26123 226.413 8.55908C226.276 8.85205 226.208 9.33545 226.208 10.0093C226.208 10.7417 226.276 11.2617 226.413 11.5693C226.549 11.877 226.762 12.0308 227.05 12.0308C227.328 12.0308 227.541 11.8818 227.687 11.584C227.833 11.2812 227.907 10.793 227.907 10.1191ZM229.445 10.0239C229.445 10.7417 229.337 11.3179 229.123 11.7524C228.908 12.187 228.617 12.502 228.251 12.6973C227.885 12.8877 227.475 12.9829 227.021 12.9829C226.342 12.9829 225.78 12.7607 225.336 12.3164C224.892 11.8721 224.669 11.1348 224.669 10.1045C224.669 9.41602 224.777 8.85449 224.992 8.41992C225.207 7.98535 225.497 7.66797 225.863 7.46777C226.229 7.2627 226.637 7.16016 227.086 7.16016C227.765 7.16016 228.327 7.38721 228.771 7.84131C229.22 8.29541 229.445 9.02295 229.445 10.0239ZM233.583 15.3193C233.583 14.5869 233.515 14.0693 233.378 13.7666C233.241 13.4639 233.024 13.3125 232.726 13.3125C232.443 13.3125 232.23 13.4614 232.089 13.7593C231.952 14.0522 231.884 14.5356 231.884 15.2095C231.884 15.9419 231.952 16.4619 232.089 16.7695C232.226 17.0771 232.438 17.231 232.726 17.231C233.004 17.231 233.217 17.082 233.363 16.7842C233.51 16.4814 233.583 15.9932 233.583 15.3193ZM235.121 15.2241C235.121 15.9419 235.014 16.5181 234.799 16.9526C234.584 17.3872 234.293 17.7021 233.927 17.8975C233.561 18.0879 233.151 18.1831 232.697 18.1831C232.018 18.1831 231.457 17.9609 231.012 17.5166C230.568 17.0723 230.346 16.335 230.346 15.3047C230.346 14.6162 230.453 14.0547 230.668 13.6201C230.883 13.1855 231.173 12.8682 231.54 12.668C231.906 12.4629 232.313 12.3604 232.763 12.3604C233.441 12.3604 234.003 12.5874 234.447 13.0415C234.896 13.4956 235.121 14.2231 235.121 15.2241Z" fill="white"/>
<path opacity="0.9" d="M295.541 18.1831C294.867 18.1831 294.235 18.0586 293.644 17.8096C293.053 17.5605 292.575 17.2017 292.208 16.7329C291.842 16.2593 291.659 15.6929 291.659 15.0337C291.659 14.4819 291.752 14.0278 291.938 13.6714C292.123 13.3101 292.362 13.0146 292.655 12.7852C292.948 12.5508 293.251 12.3481 293.563 12.1772C293.373 12.0698 293.17 11.9258 292.956 11.7451C292.741 11.5596 292.555 11.3179 292.399 11.02C292.248 10.7222 292.172 10.3511 292.172 9.90674C292.172 9.30615 292.331 8.80078 292.648 8.39062C292.97 7.97559 293.393 7.66064 293.915 7.4458C294.442 7.23096 295.009 7.12354 295.614 7.12354C296.225 7.12354 296.779 7.23096 297.277 7.4458C297.775 7.66064 298.17 7.97559 298.463 8.39062C298.761 8.80078 298.91 9.30615 298.91 9.90674C298.91 10.3511 298.837 10.7222 298.69 11.02C298.544 11.313 298.366 11.5522 298.156 11.7378C297.946 11.9185 297.746 12.0649 297.555 12.1772C297.824 12.314 298.102 12.4946 298.39 12.7192C298.678 12.939 298.922 13.2295 299.123 13.5908C299.323 13.9521 299.423 14.4087 299.423 14.9604C299.423 15.6196 299.24 16.1909 298.874 16.6743C298.507 17.1577 298.029 17.5312 297.438 17.7949C296.852 18.0537 296.22 18.1831 295.541 18.1831ZM297.079 10.0166C297.079 9.66016 296.952 9.35254 296.698 9.09375C296.449 8.83008 296.063 8.69824 295.541 8.69824C295.092 8.69824 294.723 8.82031 294.435 9.06445C294.147 9.30859 294.003 9.62598 294.003 10.0166C294.003 10.4414 294.137 10.7856 294.406 11.0493C294.674 11.313 295.053 11.4448 295.541 11.4448C296.029 11.4448 296.408 11.313 296.676 11.0493C296.945 10.7856 297.079 10.4414 297.079 10.0166ZM297.482 14.7407C297.482 14.2378 297.294 13.8252 296.918 13.5029C296.542 13.1807 296.083 13.0195 295.541 13.0195C294.994 13.0195 294.533 13.1807 294.157 13.5029C293.786 13.8252 293.6 14.2378 293.6 14.7407C293.6 15.0435 293.681 15.3291 293.842 15.5977C294.003 15.8662 294.228 16.0835 294.516 16.2495C294.809 16.4155 295.15 16.4985 295.541 16.4985C296.156 16.4985 296.632 16.3203 296.969 15.9639C297.311 15.6074 297.482 15.1997 297.482 14.7407ZM306.454 12.7632C306.454 11.4058 306.305 10.4072 306.007 9.76758C305.714 9.12793 305.253 8.80811 304.623 8.80811C304.027 8.80811 303.573 9.11328 303.261 9.72363C302.948 10.3291 302.792 11.269 302.792 12.5435C302.792 13.896 302.943 14.8945 303.246 15.5391C303.549 16.1787 304.008 16.4985 304.623 16.4985C305.219 16.4985 305.673 16.1934 305.985 15.583C306.298 14.9727 306.454 14.0327 306.454 12.7632ZM308.542 12.5801C308.542 13.9912 308.371 15.1069 308.029 15.9272C307.692 16.7427 307.223 17.3237 306.623 17.6704C306.027 18.0122 305.336 18.1831 304.55 18.1831C303.773 18.1831 303.097 18.0122 302.521 17.6704C301.945 17.3237 301.498 16.7524 301.181 15.9565C300.863 15.1558 300.705 14.0791 300.705 12.7266C300.705 11.3496 300.875 10.2534 301.217 9.43799C301.559 8.61768 302.028 8.02686 302.624 7.66553C303.224 7.3042 303.915 7.12354 304.696 7.12354C305.526 7.12354 306.227 7.30176 306.798 7.6582C307.37 8.00977 307.802 8.58594 308.095 9.38672C308.393 10.1826 308.542 11.2471 308.542 12.5801ZM317.023 7.16016H318.532L312.819 18.1831H311.295L317.023 7.16016ZM312.907 10.1191C312.907 9.38672 312.838 8.86914 312.702 8.56641C312.565 8.26367 312.348 8.1123 312.05 8.1123C311.767 8.1123 311.554 8.26123 311.413 8.55908C311.276 8.85205 311.208 9.33545 311.208 10.0093C311.208 10.7417 311.276 11.2617 311.413 11.5693C311.549 11.877 311.762 12.0308 312.05 12.0308C312.328 12.0308 312.541 11.8818 312.687 11.584C312.833 11.2812 312.907 10.793 312.907 10.1191ZM314.445 10.0239C314.445 10.7417 314.337 11.3179 314.123 11.7524C313.908 12.187 313.617 12.502 313.251 12.6973C312.885 12.8877 312.475 12.9829 312.021 12.9829C311.342 12.9829 310.78 12.7607 310.336 12.3164C309.892 11.8721 309.669 11.1348 309.669 10.1045C309.669 9.41602 309.777 8.85449 309.992 8.41992C310.207 7.98535 310.497 7.66797 310.863 7.46777C311.229 7.2627 311.637 7.16016 312.086 7.16016C312.765 7.16016 313.327 7.38721 313.771 7.84131C314.22 8.29541 314.445 9.02295 314.445 10.0239ZM318.583 15.3193C318.583 14.5869 318.515 14.0693 318.378 13.7666C318.241 13.4639 318.024 13.3125 317.726 13.3125C317.443 13.3125 317.23 13.4614 317.089 13.7593C316.952 14.0522 316.884 14.5356 316.884 15.2095C316.884 15.9419 316.952 16.4619 317.089 16.7695C317.226 17.0771 317.438 17.231 317.726 17.231C318.004 17.231 318.217 17.082 318.363 16.7842C318.51 16.4814 318.583 15.9932 318.583 15.3193ZM320.121 15.2241C320.121 15.9419 320.014 16.5181 319.799 16.9526C319.584 17.3872 319.293 17.7021 318.927 17.8975C318.561 18.0879 318.151 18.1831 317.697 18.1831C317.018 18.1831 316.457 17.9609 316.012 17.5166C315.568 17.0723 315.346 16.335 315.346 15.3047C315.346 14.6162 315.453 14.0547 315.668 13.6201C315.883 13.1855 316.173 12.8682 316.54 12.668C316.906 12.4629 317.313 12.3604 317.763 12.3604C318.441 12.3604 319.003 12.5874 319.447 13.0415C319.896 13.4956 320.121 14.2231 320.121 15.2241Z" fill="white"/>
<path opacity="0.9" d="M378.983 18H372.465V16.2788H374.713V9.43066L372.663 10.5439L372.406 8.63965L374.713 7.30664H376.728V16.2788H378.983V18ZM386.454 12.7632C386.454 11.4058 386.305 10.4072 386.007 9.76758C385.714 9.12793 385.253 8.80811 384.623 8.80811C384.027 8.80811 383.573 9.11328 383.261 9.72363C382.948 10.3291 382.792 11.269 382.792 12.5435C382.792 13.896 382.943 14.8945 383.246 15.5391C383.549 16.1787 384.008 16.4985 384.623 16.4985C385.219 16.4985 385.673 16.1934 385.985 15.583C386.298 14.9727 386.454 14.0327 386.454 12.7632ZM388.542 12.5801C388.542 13.9912 388.371 15.1069 388.029 15.9272C387.692 16.7427 387.223 17.3237 386.623 17.6704C386.027 18.0122 385.336 18.1831 384.55 18.1831C383.773 18.1831 383.097 18.0122 382.521 17.6704C381.945 17.3237 381.498 16.7524 381.181 15.9565C380.863 15.1558 380.705 14.0791 380.705 12.7266C380.705 11.3496 380.875 10.2534 381.217 9.43799C381.559 8.61768 382.028 8.02686 382.624 7.66553C383.224 7.3042 383.915 7.12354 384.696 7.12354C385.526 7.12354 386.227 7.30176 386.798 7.6582C387.37 8.00977 387.802 8.58594 388.095 9.38672C388.393 10.1826 388.542 11.2471 388.542 12.5801ZM395.536 12.7632C395.536 11.4058 395.387 10.4072 395.089 9.76758C394.796 9.12793 394.335 8.80811 393.705 8.80811C393.109 8.80811 392.655 9.11328 392.343 9.72363C392.03 10.3291 391.874 11.269 391.874 12.5435C391.874 13.896 392.025 14.8945 392.328 15.5391C392.631 16.1787 393.09 16.4985 393.705 16.4985C394.301 16.4985 394.755 16.1934 395.067 15.583C395.38 14.9727 395.536 14.0327 395.536 12.7632ZM397.624 12.5801C397.624 13.9912 397.453 15.1069 397.111 15.9272C396.774 16.7427 396.305 17.3237 395.705 17.6704C395.109 18.0122 394.418 18.1831 393.632 18.1831C392.855 18.1831 392.179 18.0122 391.603 17.6704C391.027 17.3237 390.58 16.7524 390.263 15.9565C389.945 15.1558 389.787 14.0791 389.787 12.7266C389.787 11.3496 389.958 10.2534 390.299 9.43799C390.641 8.61768 391.11 8.02686 391.706 7.66553C392.306 7.3042 392.997 7.12354 393.778 7.12354C394.608 7.12354 395.309 7.30176 395.88 7.6582C396.452 8.00977 396.884 8.58594 397.177 9.38672C397.475 10.1826 397.624 11.2471 397.624 12.5801ZM406.105 7.16016H407.614L401.901 18.1831H400.377L406.105 7.16016ZM401.989 10.1191C401.989 9.38672 401.92 8.86914 401.784 8.56641C401.647 8.26367 401.43 8.1123 401.132 8.1123C400.849 8.1123 400.636 8.26123 400.495 8.55908C400.358 8.85205 400.29 9.33545 400.29 10.0093C400.29 10.7417 400.358 11.2617 400.495 11.5693C400.631 11.877 400.844 12.0308 401.132 12.0308C401.41 12.0308 401.623 11.8818 401.769 11.584C401.916 11.2812 401.989 10.793 401.989 10.1191ZM403.527 10.0239C403.527 10.7417 403.419 11.3179 403.205 11.7524C402.99 12.187 402.699 12.502 402.333 12.6973C401.967 12.8877 401.557 12.9829 401.103 12.9829C400.424 12.9829 399.862 12.7607 399.418 12.3164C398.974 11.8721 398.751 11.1348 398.751 10.1045C398.751 9.41602 398.859 8.85449 399.074 8.41992C399.289 7.98535 399.579 7.66797 399.945 7.46777C400.312 7.2627 400.719 7.16016 401.168 7.16016C401.847 7.16016 402.409 7.38721 402.853 7.84131C403.302 8.29541 403.527 9.02295 403.527 10.0239ZM407.665 15.3193C407.665 14.5869 407.597 14.0693 407.46 13.7666C407.323 13.4639 407.106 13.3125 406.808 13.3125C406.525 13.3125 406.312 13.4614 406.171 13.7593C406.034 14.0522 405.966 14.5356 405.966 15.2095C405.966 15.9419 406.034 16.4619 406.171 16.7695C406.308 17.0771 406.52 17.231 406.808 17.231C407.086 17.231 407.299 17.082 407.445 16.7842C407.592 16.4814 407.665 15.9932 407.665 15.3193ZM409.203 15.2241C409.203 15.9419 409.096 16.5181 408.881 16.9526C408.666 17.3872 408.375 17.7021 408.009 17.8975C407.643 18.0879 407.233 18.1831 406.779 18.1831C406.1 18.1831 405.539 17.9609 405.094 17.5166C404.65 17.0723 404.428 16.335 404.428 15.3047C404.428 14.6162 404.535 14.0547 404.75 13.6201C404.965 13.1855 405.255 12.8682 405.622 12.668C405.988 12.4629 406.396 12.3604 406.845 12.3604C407.523 12.3604 408.085 12.5874 408.529 13.0415C408.979 13.4956 409.203 14.2231 409.203 15.2241Z" fill="white"/>
<path opacity="0.9" d="M307.337 75.9858L309.85 67.3066H311.732L310.853 69.4307L308.421 78H306.261L303.814 69.4307L302.928 67.3066H304.833L307.337 75.9858ZM302.232 67.3066H304.173L303.91 69.1743L303.697 78H301.72C301.749 77.7949 301.778 77.4507 301.808 76.9673C301.837 76.479 301.869 75.9077 301.903 75.2534C301.937 74.5991 301.969 73.9106 301.998 73.188C302.032 72.4604 302.062 71.75 302.086 71.0566C302.115 70.3633 302.14 69.7334 302.159 69.167C302.184 68.6006 302.201 68.1489 302.21 67.812C302.225 67.4751 302.232 67.3066 302.232 67.3066ZM312.926 78H310.948L310.765 69.1743L310.436 67.3066H312.413C312.438 68.1025 312.467 68.9448 312.501 69.8335C312.535 70.7222 312.569 71.6035 312.604 72.4775C312.643 73.3516 312.679 74.167 312.713 74.9238C312.752 75.6807 312.789 76.3301 312.823 76.8721C312.862 77.4092 312.896 77.7852 312.926 78ZM322.792 78H320.843C320.775 77.8828 320.709 77.6899 320.646 77.4214C320.582 77.1479 320.531 76.8647 320.492 76.5718C320.458 76.2739 320.44 76.0347 320.44 75.854V75.4365C320.26 75.8564 320.008 76.2788 319.686 76.7036C319.364 77.1235 318.988 77.4751 318.558 77.7583C318.128 78.0415 317.657 78.1831 317.145 78.1831C316.529 78.1831 316.009 77.9121 315.584 77.3701C315.16 76.8232 314.947 76.0322 314.947 74.9971C314.947 74.416 315.033 73.8521 315.204 73.3052C315.375 72.7534 315.638 72.2578 315.995 71.8184C316.351 71.3789 316.805 71.0298 317.357 70.771C317.909 70.5122 318.563 70.3828 319.32 70.3828C319.852 70.3828 320.379 70.4146 320.902 70.478C321.429 70.5366 321.9 70.6147 322.315 70.7124V74.1182C322.315 75.041 322.359 75.8174 322.447 76.4473C322.535 77.0723 322.65 77.5898 322.792 78ZM320.221 72.6533V72.1699C320.118 72.1455 319.969 72.1162 319.774 72.082C319.579 72.043 319.325 72.0234 319.012 72.0234C318.5 72.0234 318.097 72.165 317.804 72.4482C317.511 72.7314 317.303 73.1001 317.181 73.5542C317.059 74.0083 316.998 74.4893 316.998 74.9971C316.998 75.4268 317.076 75.7759 317.232 76.0444C317.394 76.3081 317.584 76.4399 317.804 76.4399C318.009 76.4399 318.221 76.3374 318.441 76.1323C318.666 75.9272 318.883 75.666 319.093 75.3486C319.303 75.0312 319.493 74.6968 319.664 74.3452C319.835 73.9937 319.969 73.6665 320.067 73.3638C320.169 73.0562 320.221 72.8193 320.221 72.6533ZM324.623 70.5293H326.783C326.783 70.8955 326.783 71.2861 326.783 71.7012C326.783 72.1162 326.783 72.519 326.783 72.9097C326.783 73.2954 326.783 73.6323 326.783 73.9204C326.783 74.2085 326.783 74.4087 326.783 74.521C326.783 74.8335 326.788 75.2144 326.798 75.6636C326.812 76.1079 326.83 76.5425 326.849 76.9673C326.874 77.3921 326.9 77.7363 326.93 78H324.732C324.732 77.6484 324.732 77.2358 324.732 76.7622C324.732 76.2886 324.732 75.8174 324.732 75.3486C324.732 74.875 324.732 74.4648 324.732 74.1182C324.732 73.4053 324.725 72.7266 324.71 72.082C324.701 71.4326 324.671 70.915 324.623 70.5293ZM324.476 67.856C324.476 67.48 324.596 67.1724 324.835 66.9331C325.079 66.6938 325.387 66.5742 325.758 66.5742C326.134 66.5742 326.441 66.6938 326.681 66.9331C326.92 67.1724 327.04 67.48 327.04 67.856C327.04 68.2368 326.92 68.5469 326.681 68.7861C326.441 69.0205 326.134 69.1377 325.758 69.1377C325.387 69.1377 325.079 69.0205 324.835 68.7861C324.596 68.5469 324.476 68.2368 324.476 67.856ZM328.761 74.2866C328.761 73.4468 328.927 72.7363 329.259 72.1553C329.596 71.5742 330.042 71.1348 330.599 70.8369C331.156 70.5342 331.764 70.3828 332.423 70.3828C333.116 70.3828 333.727 70.5342 334.254 70.8369C334.781 71.1348 335.194 71.5742 335.492 72.1553C335.79 72.7363 335.938 73.4468 335.938 74.2866C335.938 75.1265 335.77 75.8369 335.433 76.418C335.101 76.9941 334.657 77.4336 334.1 77.7363C333.543 78.0342 332.936 78.1831 332.276 78.1831C331.588 78.1831 330.98 78.0342 330.453 77.7363C329.925 77.4336 329.51 76.9941 329.208 76.418C328.91 75.8369 328.761 75.1265 328.761 74.2866ZM330.812 74.2866C330.812 74.9849 330.941 75.5342 331.2 75.9346C331.463 76.335 331.847 76.5352 332.35 76.5352C332.823 76.5352 333.197 76.335 333.47 75.9346C333.749 75.5342 333.888 74.9849 333.888 74.2866C333.888 73.5835 333.756 73.0317 333.492 72.6313C333.233 72.231 332.853 72.0308 332.35 72.0308C331.876 72.0308 331.5 72.231 331.222 72.6313C330.948 73.0317 330.812 73.5835 330.812 74.2866ZM339.71 78H337.66V73.4956C337.66 72.7778 337.618 72.1675 337.535 71.6646C337.457 71.1616 337.376 70.7832 337.293 70.5293H339.308C339.347 70.6318 339.383 70.7734 339.417 70.9541C339.457 71.1348 339.493 71.3179 339.527 71.5034C339.562 71.689 339.586 71.8403 339.601 71.9575C339.957 71.4497 340.348 71.0615 340.772 70.793C341.197 70.5195 341.576 70.3828 341.908 70.3828C342.367 70.3828 342.735 70.5098 343.014 70.7637C343.292 71.0127 343.495 71.3447 343.622 71.7598C343.749 72.1748 343.812 72.6313 343.812 73.1294L342.179 73.3857C342.154 73.0537 342.074 72.7876 341.937 72.5874C341.8 72.3823 341.576 72.2798 341.263 72.2798C341.102 72.2798 340.917 72.3701 340.707 72.5508C340.497 72.7314 340.299 72.9634 340.113 73.2466C339.933 73.5249 339.798 73.8154 339.71 74.1182V78ZM356.417 78H354.476C354.408 77.8438 354.332 77.6436 354.249 77.3994C354.171 77.1504 354.112 76.8989 354.073 76.645C353.644 77.1479 353.194 77.5312 352.726 77.7949C352.262 78.0537 351.778 78.1831 351.275 78.1831C349.747 78.1831 348.983 77.1333 348.983 75.0337C348.983 74.9995 348.983 74.8774 348.983 74.6675C348.983 74.4575 348.983 74.2207 348.983 73.957C348.983 73.6885 348.983 73.4492 348.983 73.2393C348.983 73.0293 348.983 72.9072 348.983 72.873C348.983 72.4092 348.976 72.0137 348.961 71.6865C348.946 71.3545 348.905 70.9688 348.836 70.5293H351.034V74.5942C351.034 75.2583 351.104 75.7417 351.246 76.0444C351.393 76.3423 351.651 76.4912 352.022 76.4912C352.247 76.4912 352.484 76.4082 352.733 76.2422C352.982 76.0762 353.211 75.8735 353.421 75.6343C353.636 75.395 353.792 75.1631 353.89 74.9385V72.873C353.89 72.5508 353.888 72.27 353.883 72.0308C353.878 71.7915 353.863 71.5571 353.839 71.3276C353.819 71.0933 353.788 70.8271 353.744 70.5293H355.941V74.7041C355.941 75.4121 355.982 76.0371 356.065 76.5791C356.148 77.1162 356.266 77.5898 356.417 78ZM363.675 70.9688L363.39 72.6899C363.116 72.5483 362.77 72.397 362.35 72.2358C361.935 72.0747 361.473 71.9941 360.965 71.9941C360.536 71.9941 360.238 72.0674 360.072 72.2139C359.911 72.3604 359.83 72.5068 359.83 72.6533C359.83 72.7705 359.862 72.8706 359.925 72.9536C359.994 73.0366 360.13 73.1147 360.335 73.188C360.545 73.2563 360.865 73.3345 361.295 73.4224C361.803 73.52 362.267 73.6592 362.687 73.8398C363.111 74.0156 363.448 74.2524 363.697 74.5503C363.951 74.8481 364.078 75.229 364.078 75.6929C364.078 76.1616 363.937 76.584 363.653 76.96C363.37 77.3359 362.987 77.6338 362.503 77.8535C362.025 78.0732 361.488 78.1831 360.892 78.1831C360.238 78.1831 359.635 78.1001 359.083 77.9341C358.531 77.7632 358.097 77.5654 357.779 77.3408L358.182 75.5464C358.543 75.8442 358.983 76.0835 359.5 76.2642C360.023 76.4448 360.499 76.5352 360.929 76.5352C361.275 76.5352 361.556 76.4692 361.771 76.3374C361.991 76.2007 362.101 76.0469 362.101 75.876C362.101 75.6611 361.988 75.4731 361.764 75.312C361.539 75.146 361.078 74.9873 360.379 74.8359C359.686 74.6846 359.156 74.5039 358.79 74.2939C358.429 74.084 358.182 73.8472 358.05 73.5835C357.918 73.3198 357.853 73.0342 357.853 72.7266C357.853 72.5459 357.901 72.3262 357.999 72.0674C358.097 71.8037 358.263 71.5449 358.497 71.291C358.736 71.0322 359.061 70.8174 359.471 70.6465C359.886 70.4707 360.409 70.3828 361.039 70.3828C361.634 70.3828 362.152 70.4463 362.591 70.5732C363.031 70.6953 363.392 70.8271 363.675 70.9688ZM365.294 74.2866C365.294 73.4468 365.46 72.7363 365.792 72.1553C366.129 71.5742 366.576 71.1348 367.132 70.8369C367.689 70.5342 368.297 70.3828 368.956 70.3828C369.649 70.3828 370.26 70.5342 370.787 70.8369C371.314 71.1348 371.727 71.5742 372.025 72.1553C372.323 72.7363 372.472 73.4468 372.472 74.2866C372.472 75.1265 372.303 75.8369 371.966 76.418C371.634 76.9941 371.19 77.4336 370.633 77.7363C370.077 78.0342 369.469 78.1831 368.81 78.1831C368.121 78.1831 367.513 78.0342 366.986 77.7363C366.458 77.4336 366.043 76.9941 365.741 76.418C365.443 75.8369 365.294 75.1265 365.294 74.2866ZM367.345 74.2866C367.345 74.9849 367.474 75.5342 367.733 75.9346C367.997 76.335 368.38 76.5352 368.883 76.5352C369.356 76.5352 369.73 76.335 370.003 75.9346C370.282 75.5342 370.421 74.9849 370.421 74.2866C370.421 73.5835 370.289 73.0317 370.025 72.6313C369.767 72.231 369.386 72.0308 368.883 72.0308C368.409 72.0308 368.033 72.231 367.755 72.6313C367.481 73.0317 367.345 73.5835 367.345 74.2866ZM385.326 66.2812V74.1182C385.326 75.041 385.377 75.8174 385.479 76.4473C385.587 77.0723 385.719 77.5898 385.875 78H383.861C383.807 77.8828 383.741 77.7046 383.663 77.4653C383.59 77.2212 383.521 76.9722 383.458 76.7183C383.131 77.187 382.755 77.5483 382.33 77.8022C381.905 78.0562 381.439 78.1831 380.931 78.1831C380.331 78.1831 379.801 78.0366 379.342 77.7437C378.888 77.4507 378.531 77.0381 378.272 76.5059C378.019 75.9688 377.892 75.3438 377.892 74.6309C377.892 73.7666 378.053 73.0171 378.375 72.3823C378.697 71.7476 379.129 71.2568 379.671 70.9102C380.218 70.5586 380.821 70.3828 381.48 70.3828C381.769 70.3828 382.074 70.4463 382.396 70.5732C382.718 70.7002 383.011 70.8442 383.275 71.0054V68.9546C383.275 68.3687 383.26 67.8535 383.231 67.4092C383.207 66.9648 383.16 66.5889 383.092 66.2812H385.326ZM383.275 75.0703V72.5947C382.938 72.4287 382.64 72.3115 382.381 72.2432C382.123 72.1748 381.822 72.1406 381.48 72.1406C381.227 72.1406 380.98 72.231 380.741 72.4116C380.506 72.5923 380.313 72.8511 380.162 73.188C380.016 73.5249 379.942 73.9326 379.942 74.4111C379.942 75.8271 380.406 76.5352 381.334 76.5352C381.593 76.5352 381.849 76.4644 382.103 76.3228C382.357 76.1812 382.586 75.998 382.792 75.7734C382.997 75.5488 383.158 75.3145 383.275 75.0703ZM393.829 74.7041H388.204V73.3857H391.961C391.961 72.873 391.849 72.502 391.625 72.2725C391.405 72.0381 391.078 71.9209 390.643 71.9209C390.116 71.9209 389.723 72.104 389.464 72.4702C389.21 72.8315 389.083 73.4419 389.083 74.3013C389.083 75.0776 389.239 75.644 389.552 76.0005C389.864 76.3569 390.323 76.5352 390.929 76.5352C391.407 76.5352 391.876 76.479 392.335 76.3667C392.799 76.2544 393.258 76.064 393.712 75.7954L393.866 77.4507C393.338 77.7192 392.828 77.9072 392.335 78.0146C391.847 78.127 391.317 78.1831 390.746 78.1831C390.101 78.1831 389.5 78.0391 388.944 77.751C388.387 77.4629 387.938 77.0356 387.596 76.4692C387.259 75.9028 387.091 75.2046 387.091 74.3745C387.091 73.564 387.237 72.8608 387.53 72.2651C387.828 71.6694 388.25 71.208 388.797 70.8809C389.344 70.5488 389.994 70.3828 390.746 70.3828C391.361 70.3828 391.866 70.4902 392.262 70.7051C392.662 70.915 392.975 71.1982 393.199 71.5547C393.429 71.9111 393.59 72.3115 393.683 72.7559C393.775 73.1953 393.822 73.6445 393.822 74.1035C393.822 74.1719 393.822 74.272 393.822 74.4038C393.827 74.5356 393.829 74.6357 393.829 74.7041ZM407.489 75.0337L407.855 76.9746C407.557 77.2139 407.196 77.4238 406.771 77.6045C406.346 77.7852 405.902 77.9268 405.438 78.0293C404.979 78.1318 404.54 78.1831 404.12 78.1831C403.109 78.1831 402.24 77.9634 401.512 77.5239C400.785 77.0845 400.226 76.4619 399.835 75.6562C399.444 74.8506 399.249 73.8984 399.249 72.7998C399.249 71.8574 399.383 71.0322 399.652 70.3242C399.925 69.6113 400.299 69.0181 400.772 68.5444C401.246 68.0708 401.788 67.7168 402.398 67.4824C403.014 67.2432 403.661 67.1235 404.339 67.1235C405.013 67.1235 405.616 67.1992 406.148 67.3506C406.686 67.502 407.218 67.7681 407.745 68.1489L407.232 69.9067C406.769 69.5405 406.307 69.2793 405.848 69.123C405.394 68.9619 404.928 68.8813 404.449 68.8813C403.858 68.8813 403.326 69.0205 402.853 69.2988C402.384 69.5771 402.013 69.9922 401.739 70.5439C401.471 71.0957 401.336 71.7866 401.336 72.6167C401.336 73.7935 401.605 74.7163 402.142 75.3853C402.684 76.0542 403.429 76.3887 404.376 76.3887C404.928 76.3887 405.484 76.2666 406.046 76.0225C406.607 75.7734 407.088 75.4438 407.489 75.0337ZM412.037 74.1694V74.814C412.037 75.5366 412.042 76.1763 412.052 76.7329C412.066 77.2896 412.098 77.7119 412.147 78H409.84C409.894 77.707 409.925 77.2847 409.935 76.7329C409.945 76.1763 409.95 75.5366 409.95 74.814V70.6758C409.95 69.958 409.945 69.2915 409.935 68.6763C409.925 68.0562 409.894 67.5996 409.84 67.3066C409.84 67.3066 409.957 67.3042 410.191 67.2993C410.431 67.2896 410.738 67.2798 411.114 67.27C411.49 67.2603 411.893 67.2529 412.323 67.248C412.757 67.2383 413.17 67.2334 413.561 67.2334C414.352 67.2334 415.045 67.3579 415.641 67.6069C416.236 67.856 416.7 68.2319 417.032 68.7349C417.364 69.2329 417.53 69.8555 417.53 70.6025C417.53 71.3545 417.359 72.0039 417.018 72.5508C416.681 73.0928 416.209 73.5103 415.604 73.8032C414.999 74.0962 414.293 74.2427 413.487 74.2427C412.975 74.2427 412.491 74.2183 412.037 74.1694ZM412.037 68.918V72.5801C412.193 72.6045 412.381 72.624 412.601 72.6387C412.821 72.6484 413.043 72.6533 413.268 72.6533C413.976 72.6533 414.515 72.4897 414.886 72.1626C415.257 71.8306 415.443 71.335 415.443 70.6758C415.443 70.1436 415.277 69.7114 414.945 69.3794C414.618 69.0474 414.068 68.8813 413.297 68.8813C413.014 68.8813 412.784 68.8862 412.608 68.896C412.433 68.9009 412.242 68.9082 412.037 68.918ZM425.521 67.3066H427.718C427.669 67.5996 427.638 68.0146 427.623 68.5518C427.613 69.0889 427.608 69.7358 427.608 70.4927V74.228C427.608 75.4194 427.262 76.3765 426.568 77.0991C425.875 77.8218 424.842 78.1831 423.47 78.1831C422.083 78.1831 421.041 77.8218 420.343 77.0991C419.645 76.3765 419.295 75.4194 419.295 74.228V70.4927C419.295 69.77 419.291 69.1328 419.281 68.5811C419.271 68.0244 419.239 67.5996 419.186 67.3066H421.383V73.8984C421.383 74.4258 421.444 74.8848 421.566 75.2754C421.688 75.666 421.9 75.9688 422.203 76.1836C422.506 76.3984 422.928 76.5059 423.47 76.5059C424.002 76.5059 424.415 76.3984 424.708 76.1836C425.006 75.9688 425.216 75.666 425.338 75.2754C425.46 74.8848 425.521 74.4258 425.521 73.8984V67.3066Z" fill="white"/>
<path d="M21 55H90" stroke="#54A5BA" stroke-width="13" stroke-linecap="square"/>
<path d="M103 55H172" stroke="#3E8AA2" stroke-width="13" stroke-linecap="square"/>
<path d="M185 55H254" stroke="#2C6C84" stroke-width="13" stroke-linecap="square"/>
<path d="M267 55H336" stroke="#1B4E66" stroke-width="13" stroke-linecap="square"/>
<path d="M349 55H423" stroke="#093048" stroke-width="13" stroke-linecap="square"/>
<path d="M15.5 19V40" stroke="white" stroke-opacity="0.5"/>
<path d="M55.5 19V40" stroke="white" stroke-opacity="0.5"/>
<path d="M138 19V40" stroke="white" stroke-opacity="0.5"/>
<path d="M218 19V40" stroke="white" stroke-opacity="0.5"/>
<path d="M302 19V40" stroke="white" stroke-opacity="0.5"/>
<path d="M429 30L15 30" stroke="white" stroke-opacity="0.5"/>
<path d="M429 19V40" stroke="white" stroke-opacity="0.5"/>
<path d="M386 19V40" stroke="white" stroke-opacity="0.5"/>
</svg>
