<svg width="458" height="82" viewBox="0 0 458 82" fill="none" xmlns="http://www.w3.org/2000/svg">
<path opacity="0.9" d="M21.7163 75.9858L24.2285 67.3066H26.1108L25.2319 69.4307L22.8003 78H20.6396L18.1934 69.4307L17.3071 67.3066H19.2114L21.7163 75.9858ZM16.6113 67.3066H18.5522L18.2886 69.1743L18.0762 78H16.0986C16.1279 77.7949 16.1572 77.4507 16.1865 76.9673C16.2158 76.479 16.2476 75.9077 16.2817 75.2534C16.3159 74.5991 16.3477 73.9106 16.377 73.188C16.4111 72.4604 16.4404 71.75 16.4648 71.0566C16.4941 70.3633 16.5186 69.7334 16.5381 69.167C16.5625 68.6006 16.5796 68.1489 16.5894 67.812C16.604 67.4751 16.6113 67.3066 16.6113 67.3066ZM27.3047 78H25.3271L25.144 69.1743L24.8145 67.3066H26.792C26.8164 68.1025 26.8457 68.9448 26.8799 69.8335C26.9141 70.7222 26.9482 71.6035 26.9824 72.4775C27.0215 73.3516 27.0581 74.167 27.0923 74.9238C27.1313 75.6807 27.168 76.3301 27.2021 76.8721C27.2412 77.4092 27.2754 77.7852 27.3047 78ZM37.1704 78H35.2222C35.1538 77.8828 35.0879 77.6899 35.0244 77.4214C34.9609 77.1479 34.9097 76.8647 34.8706 76.5718C34.8364 76.2739 34.8193 76.0347 34.8193 75.854V75.4365C34.6387 75.8564 34.3872 76.2788 34.0649 76.7036C33.7427 77.1235 33.3667 77.4751 32.937 77.7583C32.5073 78.0415 32.0361 78.1831 31.5234 78.1831C30.9082 78.1831 30.3882 77.9121 29.9634 77.3701C29.5386 76.8232 29.3262 76.0322 29.3262 74.9971C29.3262 74.416 29.4116 73.8521 29.5825 73.3052C29.7534 72.7534 30.0171 72.2578 30.3735 71.8184C30.73 71.3789 31.1841 71.0298 31.7358 70.771C32.2876 70.5122 32.9419 70.3828 33.6987 70.3828C34.231 70.3828 34.7583 70.4146 35.2808 70.478C35.8081 70.5366 36.2793 70.6147 36.6943 70.7124V74.1182C36.6943 75.041 36.7383 75.8174 36.8262 76.4473C36.9141 77.0723 37.0288 77.5898 37.1704 78ZM34.5996 72.6533V72.1699C34.4971 72.1455 34.3481 72.1162 34.1528 72.082C33.9575 72.043 33.7036 72.0234 33.3911 72.0234C32.8784 72.0234 32.4756 72.165 32.1826 72.4482C31.8896 72.7314 31.6821 73.1001 31.5601 73.5542C31.438 74.0083 31.377 74.4893 31.377 74.9971C31.377 75.4268 31.4551 75.7759 31.6113 76.0444C31.7725 76.3081 31.9629 76.4399 32.1826 76.4399C32.3877 76.4399 32.6001 76.3374 32.8198 76.1323C33.0444 75.9272 33.2617 75.666 33.4717 75.3486C33.6816 75.0312 33.8721 74.6968 34.043 74.3452C34.2139 73.9937 34.3481 73.6665 34.4458 73.3638C34.5483 73.0562 34.5996 72.8193 34.5996 72.6533ZM39.0015 70.5293H41.1621C41.1621 70.8955 41.1621 71.2861 41.1621 71.7012C41.1621 72.1162 41.1621 72.519 41.1621 72.9097C41.1621 73.2954 41.1621 73.6323 41.1621 73.9204C41.1621 74.2085 41.1621 74.4087 41.1621 74.521C41.1621 74.8335 41.167 75.2144 41.1768 75.6636C41.1914 76.1079 41.2085 76.5425 41.228 76.9673C41.2524 77.3921 41.2793 77.7363 41.3086 78H39.1113C39.1113 77.6484 39.1113 77.2358 39.1113 76.7622C39.1113 76.2886 39.1113 75.8174 39.1113 75.3486C39.1113 74.875 39.1113 74.4648 39.1113 74.1182C39.1113 73.4053 39.104 72.7266 39.0894 72.082C39.0796 71.4326 39.0503 70.915 39.0015 70.5293ZM38.855 67.856C38.855 67.48 38.9746 67.1724 39.2139 66.9331C39.458 66.6938 39.7656 66.5742 40.1367 66.5742C40.5127 66.5742 40.8203 66.6938 41.0596 66.9331C41.2988 67.1724 41.4185 67.48 41.4185 67.856C41.4185 68.2368 41.2988 68.5469 41.0596 68.7861C40.8203 69.0205 40.5127 69.1377 40.1367 69.1377C39.7656 69.1377 39.458 69.0205 39.2139 68.7861C38.9746 68.5469 38.855 68.2368 38.855 67.856ZM43.1396 74.2866C43.1396 73.4468 43.3057 72.7363 43.6377 72.1553C43.9746 71.5742 44.4214 71.1348 44.978 70.8369C45.5347 70.5342 46.1426 70.3828 46.8018 70.3828C47.4951 70.3828 48.1055 70.5342 48.6328 70.8369C49.1602 71.1348 49.5728 71.5742 49.8706 72.1553C50.1685 72.7363 50.3174 73.4468 50.3174 74.2866C50.3174 75.1265 50.1489 75.8369 49.812 76.418C49.48 76.9941 49.0356 77.4336 48.479 77.7363C47.9224 78.0342 47.3145 78.1831 46.6553 78.1831C45.9668 78.1831 45.3589 78.0342 44.8315 77.7363C44.3042 77.4336 43.8892 76.9941 43.5864 76.418C43.2886 75.8369 43.1396 75.1265 43.1396 74.2866ZM45.1904 74.2866C45.1904 74.9849 45.3198 75.5342 45.5786 75.9346C45.8423 76.335 46.2256 76.5352 46.7285 76.5352C47.2021 76.5352 47.5757 76.335 47.8491 75.9346C48.1274 75.5342 48.2666 74.9849 48.2666 74.2866C48.2666 73.5835 48.1348 73.0317 47.8711 72.6313C47.6123 72.231 47.2314 72.0308 46.7285 72.0308C46.2549 72.0308 45.8789 72.231 45.6006 72.6313C45.3271 73.0317 45.1904 73.5835 45.1904 74.2866ZM54.0894 78H52.0386V73.4956C52.0386 72.7778 51.9971 72.1675 51.9141 71.6646C51.8359 71.1616 51.7554 70.7832 51.6724 70.5293H53.6865C53.7256 70.6318 53.7622 70.7734 53.7964 70.9541C53.8354 71.1348 53.8721 71.3179 53.9062 71.5034C53.9404 71.689 53.9648 71.8403 53.9795 71.9575C54.3359 71.4497 54.7266 71.0615 55.1514 70.793C55.5762 70.5195 55.9546 70.3828 56.2866 70.3828C56.7456 70.3828 57.1143 70.5098 57.3926 70.7637C57.6709 71.0127 57.8735 71.3447 58.0005 71.7598C58.1274 72.1748 58.1909 72.6313 58.1909 73.1294L56.5576 73.3857C56.5332 73.0537 56.4526 72.7876 56.3159 72.5874C56.1792 72.3823 55.9546 72.2798 55.6421 72.2798C55.481 72.2798 55.2954 72.3701 55.0854 72.5508C54.8755 72.7314 54.6777 72.9634 54.4922 73.2466C54.3115 73.5249 54.1772 73.8154 54.0894 74.1182V78ZM63.5083 74.6675V70.6758C63.5083 69.958 63.5034 69.2915 63.4937 68.6763C63.4839 68.0562 63.4521 67.5996 63.3984 67.3066C63.5596 67.2969 63.7817 67.2871 64.0649 67.2773C64.353 67.2676 64.6655 67.2603 65.0024 67.2554C65.3442 67.2456 65.6812 67.2407 66.0132 67.2407C66.3501 67.2358 66.6504 67.2334 66.9141 67.2334C67.3193 67.2334 67.7637 67.2725 68.2471 67.3506C68.7305 67.4238 69.2114 67.5679 69.6899 67.7827C70.1733 67.9927 70.6128 68.2954 71.0083 68.6909C71.4087 69.0864 71.7285 69.6016 71.9678 70.2363C72.2119 70.8711 72.334 71.6523 72.334 72.5801C72.334 73.4492 72.2144 74.1987 71.9751 74.8286C71.7407 75.4536 71.4233 75.9761 71.0229 76.396C70.6274 76.8159 70.1855 77.1479 69.6973 77.3921C69.2139 77.6362 68.7158 77.812 68.2031 77.9194C67.6953 78.022 67.2144 78.0732 66.7603 78.0732C66.5112 78.0732 66.1987 78.0684 65.8228 78.0586C65.4517 78.0537 65.0806 78.0464 64.7095 78.0366C64.3384 78.0269 64.0259 78.0171 63.772 78.0073C63.5229 78.0024 63.3984 78 63.3984 78C63.4521 77.707 63.4814 77.2603 63.4863 76.6597C63.4961 76.0542 63.5034 75.3901 63.5083 74.6675ZM65.5957 68.9106V76.3081C65.7373 76.3228 65.9229 76.3398 66.1523 76.3594C66.3867 76.374 66.6479 76.3813 66.936 76.3813C67.4829 76.3813 68.0103 76.2617 68.5181 76.0225C69.0259 75.7832 69.4434 75.395 69.7705 74.8579C70.1025 74.3208 70.2686 73.6104 70.2686 72.7266C70.2686 71.7549 70.1245 70.9883 69.8364 70.4268C69.5532 69.8652 69.1626 69.4673 68.6646 69.2329C68.1665 68.9937 67.6001 68.874 66.9653 68.874C66.7651 68.874 66.5259 68.8789 66.2476 68.8887C65.9692 68.8936 65.752 68.9009 65.5957 68.9106ZM80.5811 74.7041H74.9561V73.3857H78.7134C78.7134 72.873 78.6011 72.502 78.3765 72.2725C78.1567 72.0381 77.8296 71.9209 77.395 71.9209C76.8677 71.9209 76.4746 72.104 76.2158 72.4702C75.9619 72.8315 75.835 73.4419 75.835 74.3013C75.835 75.0776 75.9912 75.644 76.3037 76.0005C76.6162 76.3569 77.0752 76.5352 77.6807 76.5352C78.1592 76.5352 78.6279 76.479 79.0869 76.3667C79.5508 76.2544 80.0098 76.064 80.4639 75.7954L80.6177 77.4507C80.0903 77.7192 79.5801 77.9072 79.0869 78.0146C78.5986 78.127 78.0688 78.1831 77.4976 78.1831C76.853 78.1831 76.2524 78.0391 75.6958 77.751C75.1392 77.4629 74.6899 77.0356 74.3481 76.4692C74.0112 75.9028 73.8428 75.2046 73.8428 74.3745C73.8428 73.564 73.9893 72.8608 74.2822 72.2651C74.5801 71.6694 75.0024 71.208 75.5493 70.8809C76.0962 70.5488 76.7456 70.3828 77.4976 70.3828C78.1128 70.3828 78.6182 70.4902 79.0137 70.7051C79.4141 70.915 79.7266 71.1982 79.9512 71.5547C80.1807 71.9111 80.3418 72.3115 80.4346 72.7559C80.5273 73.1953 80.5737 73.6445 80.5737 74.1035C80.5737 74.1719 80.5737 74.272 80.5737 74.4038C80.5786 74.5356 80.5811 74.6357 80.5811 74.7041ZM89.5166 78H87.4658C87.4658 78 87.4658 77.895 87.4658 77.6851C87.4658 77.4751 87.4658 77.2041 87.4658 76.8721C87.4658 76.54 87.4658 76.1885 87.4658 75.8174C87.4658 75.4463 87.4658 75.0972 87.4658 74.77C87.4658 74.438 87.4658 74.1719 87.4658 73.9717C87.4658 73.2979 87.373 72.8315 87.1875 72.5728C87.0068 72.3091 86.7212 72.1772 86.3306 72.1772C86.0522 72.1772 85.7837 72.2578 85.5249 72.4189C85.2661 72.5752 85.0391 72.7729 84.8438 73.0122C84.6533 73.2515 84.5142 73.498 84.4263 73.752V78H82.3755C82.3755 78 82.3755 77.8926 82.3755 77.6777C82.3755 77.458 82.3755 77.1748 82.3755 76.8281C82.3755 76.4814 82.3755 76.1055 82.3755 75.7002C82.3755 75.29 82.3755 74.8921 82.3755 74.5063C82.3755 74.1157 82.3755 73.7788 82.3755 73.4956C82.3755 72.7778 82.334 72.1675 82.251 71.6646C82.1729 71.1616 82.0923 70.7832 82.0093 70.5293H84.0234C84.0625 70.627 84.0991 70.7612 84.1333 70.9321C84.1724 71.103 84.209 71.2764 84.2432 71.4521C84.2773 71.6279 84.3018 71.772 84.3164 71.8843C84.7803 71.3521 85.2368 70.9688 85.686 70.7344C86.1353 70.5 86.6187 70.3828 87.1362 70.3828C87.8784 70.3828 88.4595 70.6392 88.8794 71.1519C89.3042 71.6597 89.5166 72.4165 89.5166 73.4224C89.5166 73.6665 89.5166 73.979 89.5166 74.3599C89.5166 74.7358 89.5166 75.1338 89.5166 75.5537C89.5166 75.9736 89.5166 76.3691 89.5166 76.7402C89.5166 77.1113 89.5166 77.4141 89.5166 77.6484C89.5166 77.8828 89.5166 78 89.5166 78ZM97.0679 70.9688L96.7822 72.6899C96.5088 72.5483 96.1621 72.397 95.7422 72.2358C95.3271 72.0747 94.8657 71.9941 94.3579 71.9941C93.9282 71.9941 93.6304 72.0674 93.4644 72.2139C93.3032 72.3604 93.2227 72.5068 93.2227 72.6533C93.2227 72.7705 93.2544 72.8706 93.3179 72.9536C93.3862 73.0366 93.5229 73.1147 93.728 73.188C93.938 73.2563 94.2578 73.3345 94.6875 73.4224C95.1953 73.52 95.6592 73.6592 96.0791 73.8398C96.5039 74.0156 96.8408 74.2524 97.0898 74.5503C97.3438 74.8481 97.4707 75.229 97.4707 75.6929C97.4707 76.1616 97.3291 76.584 97.0459 76.96C96.7627 77.3359 96.3794 77.6338 95.896 77.8535C95.4175 78.0732 94.8804 78.1831 94.2847 78.1831C93.6304 78.1831 93.0273 78.1001 92.4756 77.9341C91.9238 77.7632 91.4893 77.5654 91.1719 77.3408L91.5747 75.5464C91.936 75.8442 92.3755 76.0835 92.8931 76.2642C93.4155 76.4448 93.8916 76.5352 94.3213 76.5352C94.668 76.5352 94.9487 76.4692 95.1636 76.3374C95.3833 76.2007 95.4932 76.0469 95.4932 75.876C95.4932 75.6611 95.3809 75.4731 95.1562 75.312C94.9316 75.146 94.4702 74.9873 93.772 74.8359C93.0786 74.6846 92.5488 74.5039 92.1826 74.2939C91.8213 74.084 91.5747 73.8472 91.4429 73.5835C91.311 73.3198 91.2451 73.0342 91.2451 72.7266C91.2451 72.5459 91.2939 72.3262 91.3916 72.0674C91.4893 71.8037 91.6553 71.5449 91.8896 71.291C92.1289 71.0322 92.4536 70.8174 92.8638 70.6465C93.2788 70.4707 93.8013 70.3828 94.4312 70.3828C95.0269 70.3828 95.5444 70.4463 95.9839 70.5732C96.4233 70.6953 96.7847 70.8271 97.0679 70.9688ZM99.2358 70.5293H101.396C101.396 70.8955 101.396 71.2861 101.396 71.7012C101.396 72.1162 101.396 72.519 101.396 72.9097C101.396 73.2954 101.396 73.6323 101.396 73.9204C101.396 74.2085 101.396 74.4087 101.396 74.521C101.396 74.8335 101.401 75.2144 101.411 75.6636C101.426 76.1079 101.443 76.5425 101.462 76.9673C101.487 77.3921 101.514 77.7363 101.543 78H99.3457C99.3457 77.6484 99.3457 77.2358 99.3457 76.7622C99.3457 76.2886 99.3457 75.8174 99.3457 75.3486C99.3457 74.875 99.3457 74.4648 99.3457 74.1182C99.3457 73.4053 99.3384 72.7266 99.3237 72.082C99.314 71.4326 99.2847 70.915 99.2358 70.5293ZM99.0894 67.856C99.0894 67.48 99.209 67.1724 99.4482 66.9331C99.6924 66.6938 100 66.5742 100.371 66.5742C100.747 66.5742 101.055 66.6938 101.294 66.9331C101.533 67.1724 101.653 67.48 101.653 67.856C101.653 68.2368 101.533 68.5469 101.294 68.7861C101.055 69.0205 100.747 69.1377 100.371 69.1377C100 69.1377 99.6924 69.0205 99.4482 68.7861C99.209 68.5469 99.0894 68.2368 99.0894 67.856ZM110.881 66.2812V74.1182C110.881 75.041 110.933 75.8174 111.035 76.4473C111.143 77.0723 111.274 77.5898 111.431 78H109.417C109.363 77.8828 109.297 77.7046 109.219 77.4653C109.146 77.2212 109.077 76.9722 109.014 76.7183C108.687 77.187 108.311 77.5483 107.886 77.8022C107.461 78.0562 106.995 78.1831 106.487 78.1831C105.886 78.1831 105.356 78.0366 104.897 77.7437C104.443 77.4507 104.087 77.0381 103.828 76.5059C103.574 75.9688 103.447 75.3438 103.447 74.6309C103.447 73.7666 103.608 73.0171 103.931 72.3823C104.253 71.7476 104.685 71.2568 105.227 70.9102C105.774 70.5586 106.377 70.3828 107.036 70.3828C107.324 70.3828 107.629 70.4463 107.952 70.5732C108.274 70.7002 108.567 70.8442 108.831 71.0054V68.9546C108.831 68.3687 108.816 67.8535 108.787 67.4092C108.762 66.9648 108.716 66.5889 108.647 66.2812H110.881ZM108.831 75.0703V72.5947C108.494 72.4287 108.196 72.3115 107.937 72.2432C107.678 72.1748 107.378 72.1406 107.036 72.1406C106.782 72.1406 106.536 72.231 106.296 72.4116C106.062 72.5923 105.869 72.8511 105.718 73.188C105.571 73.5249 105.498 73.9326 105.498 74.4111C105.498 75.8271 105.962 76.5352 106.89 76.5352C107.148 76.5352 107.405 76.4644 107.659 76.3228C107.913 76.1812 108.142 75.998 108.347 75.7734C108.552 75.5488 108.713 75.3145 108.831 75.0703ZM120.564 78H118.616C118.547 77.8828 118.481 77.6899 118.418 77.4214C118.354 77.1479 118.303 76.8647 118.264 76.5718C118.23 76.2739 118.213 76.0347 118.213 75.854V75.4365C118.032 75.8564 117.781 76.2788 117.458 76.7036C117.136 77.1235 116.76 77.4751 116.331 77.7583C115.901 78.0415 115.43 78.1831 114.917 78.1831C114.302 78.1831 113.782 77.9121 113.357 77.3701C112.932 76.8232 112.72 76.0322 112.72 74.9971C112.72 74.416 112.805 73.8521 112.976 73.3052C113.147 72.7534 113.411 72.2578 113.767 71.8184C114.124 71.3789 114.578 71.0298 115.129 70.771C115.681 70.5122 116.335 70.3828 117.092 70.3828C117.625 70.3828 118.152 70.4146 118.674 70.478C119.202 70.5366 119.673 70.6147 120.088 70.7124V74.1182C120.088 75.041 120.132 75.8174 120.22 76.4473C120.308 77.0723 120.422 77.5898 120.564 78ZM117.993 72.6533V72.1699C117.891 72.1455 117.742 72.1162 117.546 72.082C117.351 72.043 117.097 72.0234 116.785 72.0234C116.272 72.0234 115.869 72.165 115.576 72.4482C115.283 72.7314 115.076 73.1001 114.954 73.5542C114.832 74.0083 114.771 74.4893 114.771 74.9971C114.771 75.4268 114.849 75.7759 115.005 76.0444C115.166 76.3081 115.356 76.4399 115.576 76.4399C115.781 76.4399 115.994 76.3374 116.213 76.1323C116.438 75.9272 116.655 75.666 116.865 75.3486C117.075 75.0312 117.266 74.6968 117.437 74.3452C117.607 73.9937 117.742 73.6665 117.839 73.3638C117.942 73.0562 117.993 72.8193 117.993 72.6533ZM129.353 66.2812V74.1182C129.353 75.041 129.404 75.8174 129.507 76.4473C129.614 77.0723 129.746 77.5898 129.902 78H127.888C127.834 77.8828 127.769 77.7046 127.69 77.4653C127.617 77.2212 127.549 76.9722 127.485 76.7183C127.158 77.187 126.782 77.5483 126.357 77.8022C125.933 78.0562 125.466 78.1831 124.958 78.1831C124.358 78.1831 123.828 78.0366 123.369 77.7437C122.915 77.4507 122.559 77.0381 122.3 76.5059C122.046 75.9688 121.919 75.3438 121.919 74.6309C121.919 73.7666 122.08 73.0171 122.402 72.3823C122.725 71.7476 123.157 71.2568 123.699 70.9102C124.246 70.5586 124.849 70.3828 125.508 70.3828C125.796 70.3828 126.101 70.4463 126.423 70.5732C126.746 70.7002 127.039 70.8442 127.302 71.0054V68.9546C127.302 68.3687 127.288 67.8535 127.258 67.4092C127.234 66.9648 127.188 66.5889 127.119 66.2812H129.353ZM127.302 75.0703V72.5947C126.965 72.4287 126.667 72.3115 126.409 72.2432C126.15 72.1748 125.85 72.1406 125.508 72.1406C125.254 72.1406 125.007 72.231 124.768 72.4116C124.534 72.5923 124.341 72.8511 124.189 73.188C124.043 73.5249 123.97 73.9326 123.97 74.4111C123.97 75.8271 124.434 76.5352 125.361 76.5352C125.62 76.5352 125.876 76.4644 126.13 76.3228C126.384 76.1812 126.614 75.998 126.819 75.7734C127.024 75.5488 127.185 75.3145 127.302 75.0703ZM137.856 74.7041H132.231V73.3857H135.989C135.989 72.873 135.876 72.502 135.652 72.2725C135.432 72.0381 135.105 71.9209 134.67 71.9209C134.143 71.9209 133.75 72.104 133.491 72.4702C133.237 72.8315 133.11 73.4419 133.11 74.3013C133.11 75.0776 133.267 75.644 133.579 76.0005C133.892 76.3569 134.351 76.5352 134.956 76.5352C135.435 76.5352 135.903 76.479 136.362 76.3667C136.826 76.2544 137.285 76.064 137.739 75.7954L137.893 77.4507C137.366 77.7192 136.855 77.9072 136.362 78.0146C135.874 78.127 135.344 78.1831 134.773 78.1831C134.128 78.1831 133.528 78.0391 132.971 77.751C132.415 77.4629 131.965 77.0356 131.624 76.4692C131.287 75.9028 131.118 75.2046 131.118 74.3745C131.118 73.564 131.265 72.8608 131.558 72.2651C131.855 71.6694 132.278 71.208 132.825 70.8809C133.372 70.5488 134.021 70.3828 134.773 70.3828C135.388 70.3828 135.894 70.4902 136.289 70.7051C136.689 70.915 137.002 71.1982 137.227 71.5547C137.456 71.9111 137.617 72.3115 137.71 72.7559C137.803 73.1953 137.849 73.6445 137.849 74.1035C137.849 74.1719 137.849 74.272 137.849 74.4038C137.854 74.5356 137.856 74.6357 137.856 74.7041Z" fill="white"/>
<path opacity="0.9" d="M7.9834 18H1.46484V16.2788H3.71338V9.43066L1.6626 10.5439L1.40625 8.63965L3.71338 7.30664H5.72754V16.2788H7.9834V18ZM15.4541 12.7632C15.4541 11.4058 15.3052 10.4072 15.0073 9.76758C14.7144 9.12793 14.2529 8.80811 13.623 8.80811C13.0273 8.80811 12.5732 9.11328 12.2607 9.72363C11.9482 10.3291 11.792 11.269 11.792 12.5435C11.792 13.896 11.9434 14.8945 12.2461 15.5391C12.5488 16.1787 13.0078 16.4985 13.623 16.4985C14.2188 16.4985 14.6729 16.1934 14.9854 15.583C15.2979 14.9727 15.4541 14.0327 15.4541 12.7632ZM17.5415 12.5801C17.5415 13.9912 17.3706 15.1069 17.0288 15.9272C16.6919 16.7427 16.2231 17.3237 15.6226 17.6704C15.0269 18.0122 14.3359 18.1831 13.5498 18.1831C12.7734 18.1831 12.0972 18.0122 11.521 17.6704C10.9448 17.3237 10.498 16.7524 10.1807 15.9565C9.86328 15.1558 9.70459 14.0791 9.70459 12.7266C9.70459 11.3496 9.87549 10.2534 10.2173 9.43799C10.5591 8.61768 11.0278 8.02686 11.6235 7.66553C12.2241 7.3042 12.915 7.12354 13.6963 7.12354C14.5264 7.12354 15.2271 7.30176 15.7983 7.6582C16.3696 8.00977 16.8018 8.58594 17.0947 9.38672C17.3926 10.1826 17.5415 11.2471 17.5415 12.5801ZM24.5361 12.7632C24.5361 11.4058 24.3872 10.4072 24.0894 9.76758C23.7964 9.12793 23.335 8.80811 22.7051 8.80811C22.1094 8.80811 21.6553 9.11328 21.3428 9.72363C21.0303 10.3291 20.874 11.269 20.874 12.5435C20.874 13.896 21.0254 14.8945 21.3281 15.5391C21.6309 16.1787 22.0898 16.4985 22.7051 16.4985C23.3008 16.4985 23.7549 16.1934 24.0674 15.583C24.3799 14.9727 24.5361 14.0327 24.5361 12.7632ZM26.6235 12.5801C26.6235 13.9912 26.4526 15.1069 26.1108 15.9272C25.7739 16.7427 25.3052 17.3237 24.7046 17.6704C24.1089 18.0122 23.418 18.1831 22.6318 18.1831C21.8555 18.1831 21.1792 18.0122 20.603 17.6704C20.0269 17.3237 19.5801 16.7524 19.2627 15.9565C18.9453 15.1558 18.7866 14.0791 18.7866 12.7266C18.7866 11.3496 18.9575 10.2534 19.2993 9.43799C19.6411 8.61768 20.1099 8.02686 20.7056 7.66553C21.3062 7.3042 21.9971 7.12354 22.7783 7.12354C23.6084 7.12354 24.3091 7.30176 24.8804 7.6582C25.4517 8.00977 25.8838 8.58594 26.1768 9.38672C26.4746 10.1826 26.6235 11.2471 26.6235 12.5801ZM35.105 7.16016H36.6138L30.9009 18.1831H29.3774L35.105 7.16016ZM30.9888 10.1191C30.9888 9.38672 30.9204 8.86914 30.7837 8.56641C30.647 8.26367 30.4297 8.1123 30.1318 8.1123C29.8486 8.1123 29.6362 8.26123 29.4946 8.55908C29.3579 8.85205 29.2896 9.33545 29.2896 10.0093C29.2896 10.7417 29.3579 11.2617 29.4946 11.5693C29.6313 11.877 29.8438 12.0308 30.1318 12.0308C30.4102 12.0308 30.6226 11.8818 30.769 11.584C30.9155 11.2812 30.9888 10.793 30.9888 10.1191ZM32.5269 10.0239C32.5269 10.7417 32.4194 11.3179 32.2046 11.7524C31.9897 12.187 31.6992 12.502 31.333 12.6973C30.9668 12.8877 30.5566 12.9829 30.1025 12.9829C29.4238 12.9829 28.8623 12.7607 28.418 12.3164C27.9736 11.8721 27.7515 11.1348 27.7515 10.1045C27.7515 9.41602 27.8589 8.85449 28.0737 8.41992C28.2886 7.98535 28.5791 7.66797 28.9453 7.46777C29.3115 7.2627 29.7192 7.16016 30.1685 7.16016C30.8472 7.16016 31.4087 7.38721 31.853 7.84131C32.3022 8.29541 32.5269 9.02295 32.5269 10.0239ZM36.665 15.3193C36.665 14.5869 36.5967 14.0693 36.46 13.7666C36.3232 13.4639 36.106 13.3125 35.8081 13.3125C35.5249 13.3125 35.3125 13.4614 35.1709 13.7593C35.0342 14.0522 34.9658 14.5356 34.9658 15.2095C34.9658 15.9419 35.0342 16.4619 35.1709 16.7695C35.3076 17.0771 35.52 17.231 35.8081 17.231C36.0864 17.231 36.2988 17.082 36.4453 16.7842C36.5918 16.4814 36.665 15.9932 36.665 15.3193ZM38.2031 15.2241C38.2031 15.9419 38.0957 16.5181 37.8809 16.9526C37.666 17.3872 37.3755 17.7021 37.0093 17.8975C36.6431 18.0879 36.2329 18.1831 35.7788 18.1831C35.1001 18.1831 34.5386 17.9609 34.0942 17.5166C33.6499 17.0723 33.4277 16.335 33.4277 15.3047C33.4277 14.6162 33.5352 14.0547 33.75 13.6201C33.9648 13.1855 34.2554 12.8682 34.6216 12.668C34.9878 12.4629 35.3955 12.3604 35.8447 12.3604C36.5234 12.3604 37.085 12.5874 37.5293 13.0415C37.9785 13.4956 38.2031 14.2231 38.2031 15.2241Z" fill="white"/>
<path opacity="0.9" d="M87.8086 18H85.7212C86.0386 16.9648 86.3438 16.0444 86.6367 15.2388C86.9346 14.4331 87.2422 13.6934 87.5596 13.0195C87.877 12.3457 88.2212 11.6963 88.5923 11.0713C88.9634 10.4414 89.3857 9.78467 89.8594 9.10107H87.5156C86.8271 9.10107 86.2607 9.11084 85.8164 9.13037C85.3721 9.1499 85.0107 9.18896 84.7324 9.24756V7.30664H92.2764V8.77148C91.1924 10.2559 90.2939 11.7451 89.5811 13.2393C88.873 14.7334 88.2822 16.3203 87.8086 18ZM99.4541 12.7632C99.4541 11.4058 99.3052 10.4072 99.0073 9.76758C98.7144 9.12793 98.2529 8.80811 97.623 8.80811C97.0273 8.80811 96.5732 9.11328 96.2607 9.72363C95.9482 10.3291 95.792 11.269 95.792 12.5435C95.792 13.896 95.9434 14.8945 96.2461 15.5391C96.5488 16.1787 97.0078 16.4985 97.623 16.4985C98.2188 16.4985 98.6729 16.1934 98.9854 15.583C99.2979 14.9727 99.4541 14.0327 99.4541 12.7632ZM101.542 12.5801C101.542 13.9912 101.371 15.1069 101.029 15.9272C100.692 16.7427 100.223 17.3237 99.6226 17.6704C99.0269 18.0122 98.3359 18.1831 97.5498 18.1831C96.7734 18.1831 96.0972 18.0122 95.521 17.6704C94.9448 17.3237 94.498 16.7524 94.1807 15.9565C93.8633 15.1558 93.7046 14.0791 93.7046 12.7266C93.7046 11.3496 93.8755 10.2534 94.2173 9.43799C94.5591 8.61768 95.0278 8.02686 95.6235 7.66553C96.2241 7.3042 96.915 7.12354 97.6963 7.12354C98.5264 7.12354 99.2271 7.30176 99.7983 7.6582C100.37 8.00977 100.802 8.58594 101.095 9.38672C101.393 10.1826 101.542 11.2471 101.542 12.5801ZM110.023 7.16016H111.532L105.819 18.1831H104.295L110.023 7.16016ZM105.907 10.1191C105.907 9.38672 105.838 8.86914 105.702 8.56641C105.565 8.26367 105.348 8.1123 105.05 8.1123C104.767 8.1123 104.554 8.26123 104.413 8.55908C104.276 8.85205 104.208 9.33545 104.208 10.0093C104.208 10.7417 104.276 11.2617 104.413 11.5693C104.549 11.877 104.762 12.0308 105.05 12.0308C105.328 12.0308 105.541 11.8818 105.687 11.584C105.833 11.2812 105.907 10.793 105.907 10.1191ZM107.445 10.0239C107.445 10.7417 107.337 11.3179 107.123 11.7524C106.908 12.187 106.617 12.502 106.251 12.6973C105.885 12.8877 105.475 12.9829 105.021 12.9829C104.342 12.9829 103.78 12.7607 103.336 12.3164C102.892 11.8721 102.669 11.1348 102.669 10.1045C102.669 9.41602 102.777 8.85449 102.992 8.41992C103.207 7.98535 103.497 7.66797 103.863 7.46777C104.229 7.2627 104.637 7.16016 105.086 7.16016C105.765 7.16016 106.327 7.38721 106.771 7.84131C107.22 8.29541 107.445 9.02295 107.445 10.0239ZM111.583 15.3193C111.583 14.5869 111.515 14.0693 111.378 13.7666C111.241 13.4639 111.024 13.3125 110.726 13.3125C110.443 13.3125 110.23 13.4614 110.089 13.7593C109.952 14.0522 109.884 14.5356 109.884 15.2095C109.884 15.9419 109.952 16.4619 110.089 16.7695C110.226 17.0771 110.438 17.231 110.726 17.231C111.004 17.231 111.217 17.082 111.363 16.7842C111.51 16.4814 111.583 15.9932 111.583 15.3193ZM113.121 15.2241C113.121 15.9419 113.014 16.5181 112.799 16.9526C112.584 17.3872 112.293 17.7021 111.927 17.8975C111.561 18.0879 111.151 18.1831 110.697 18.1831C110.018 18.1831 109.457 17.9609 109.012 17.5166C108.568 17.0723 108.346 16.335 108.346 15.3047C108.346 14.6162 108.453 14.0547 108.668 13.6201C108.883 13.1855 109.173 12.8682 109.54 12.668C109.906 12.4629 110.313 12.3604 110.763 12.3604C111.441 12.3604 112.003 12.5874 112.447 13.0415C112.896 13.4956 113.121 14.2231 113.121 15.2241Z" fill="white"/>
<path opacity="0.9" d="M204.428 13.2759V7.30664H210.69V9.24756C210.417 9.18896 210.102 9.1499 209.746 9.13037C209.389 9.11084 209.057 9.10107 208.75 9.10107H206.333V11.4448C206.455 11.3862 206.635 11.3301 206.875 11.2764C207.119 11.2178 207.353 11.1885 207.578 11.1885C208.256 11.1885 208.862 11.3252 209.394 11.5986C209.931 11.8721 210.354 12.2578 210.661 12.7559C210.974 13.2539 211.13 13.8423 211.13 14.521C211.13 15.2827 210.939 15.937 210.559 16.4839C210.183 17.0308 209.68 17.4507 209.05 17.7437C208.42 18.0366 207.722 18.1831 206.955 18.1831C206.389 18.1831 205.849 18.1245 205.336 18.0073C204.824 17.895 204.338 17.6973 203.879 17.4141L204.172 15.3633C204.665 15.7588 205.136 16.0347 205.585 16.1909C206.035 16.3472 206.516 16.4253 207.028 16.4253C207.614 16.4253 208.103 16.2544 208.493 15.9126C208.884 15.5659 209.079 15.1143 209.079 14.5576C209.079 14.1621 208.977 13.835 208.771 13.5762C208.571 13.3174 208.303 13.1245 207.966 12.9976C207.634 12.8657 207.272 12.7998 206.882 12.7998C206.496 12.7998 206.103 12.8364 205.703 12.9097C205.307 12.978 204.882 13.1001 204.428 13.2759ZM218.454 12.7632C218.454 11.4058 218.305 10.4072 218.007 9.76758C217.714 9.12793 217.253 8.80811 216.623 8.80811C216.027 8.80811 215.573 9.11328 215.261 9.72363C214.948 10.3291 214.792 11.269 214.792 12.5435C214.792 13.896 214.943 14.8945 215.246 15.5391C215.549 16.1787 216.008 16.4985 216.623 16.4985C217.219 16.4985 217.673 16.1934 217.985 15.583C218.298 14.9727 218.454 14.0327 218.454 12.7632ZM220.542 12.5801C220.542 13.9912 220.371 15.1069 220.029 15.9272C219.692 16.7427 219.223 17.3237 218.623 17.6704C218.027 18.0122 217.336 18.1831 216.55 18.1831C215.773 18.1831 215.097 18.0122 214.521 17.6704C213.945 17.3237 213.498 16.7524 213.181 15.9565C212.863 15.1558 212.705 14.0791 212.705 12.7266C212.705 11.3496 212.875 10.2534 213.217 9.43799C213.559 8.61768 214.028 8.02686 214.624 7.66553C215.224 7.3042 215.915 7.12354 216.696 7.12354C217.526 7.12354 218.227 7.30176 218.798 7.6582C219.37 8.00977 219.802 8.58594 220.095 9.38672C220.393 10.1826 220.542 11.2471 220.542 12.5801ZM229.023 7.16016H230.532L224.819 18.1831H223.295L229.023 7.16016ZM224.907 10.1191C224.907 9.38672 224.838 8.86914 224.702 8.56641C224.565 8.26367 224.348 8.1123 224.05 8.1123C223.767 8.1123 223.554 8.26123 223.413 8.55908C223.276 8.85205 223.208 9.33545 223.208 10.0093C223.208 10.7417 223.276 11.2617 223.413 11.5693C223.549 11.877 223.762 12.0308 224.05 12.0308C224.328 12.0308 224.541 11.8818 224.687 11.584C224.833 11.2812 224.907 10.793 224.907 10.1191ZM226.445 10.0239C226.445 10.7417 226.337 11.3179 226.123 11.7524C225.908 12.187 225.617 12.502 225.251 12.6973C224.885 12.8877 224.475 12.9829 224.021 12.9829C223.342 12.9829 222.78 12.7607 222.336 12.3164C221.892 11.8721 221.669 11.1348 221.669 10.1045C221.669 9.41602 221.777 8.85449 221.992 8.41992C222.207 7.98535 222.497 7.66797 222.863 7.46777C223.229 7.2627 223.637 7.16016 224.086 7.16016C224.765 7.16016 225.327 7.38721 225.771 7.84131C226.22 8.29541 226.445 9.02295 226.445 10.0239ZM230.583 15.3193C230.583 14.5869 230.515 14.0693 230.378 13.7666C230.241 13.4639 230.024 13.3125 229.726 13.3125C229.443 13.3125 229.23 13.4614 229.089 13.7593C228.952 14.0522 228.884 14.5356 228.884 15.2095C228.884 15.9419 228.952 16.4619 229.089 16.7695C229.226 17.0771 229.438 17.231 229.726 17.231C230.004 17.231 230.217 17.082 230.363 16.7842C230.51 16.4814 230.583 15.9932 230.583 15.3193ZM232.121 15.2241C232.121 15.9419 232.014 16.5181 231.799 16.9526C231.584 17.3872 231.293 17.7021 230.927 17.8975C230.561 18.0879 230.151 18.1831 229.697 18.1831C229.018 18.1831 228.457 17.9609 228.012 17.5166C227.568 17.0723 227.346 16.335 227.346 15.3047C227.346 14.6162 227.453 14.0547 227.668 13.6201C227.883 13.1855 228.173 12.8682 228.54 12.668C228.906 12.4629 229.313 12.3604 229.763 12.3604C230.441 12.3604 231.003 12.5874 231.447 13.0415C231.896 13.4956 232.121 14.2231 232.121 15.2241Z" fill="white"/>
<path opacity="0.9" d="M326.93 11.5181H327.589C328.033 11.5181 328.426 11.4399 328.768 11.2837C329.11 11.1274 329.378 10.9297 329.574 10.6904C329.769 10.4463 329.867 10.1924 329.867 9.92871C329.867 9.59668 329.71 9.33301 329.398 9.1377C329.09 8.94238 328.756 8.84473 328.395 8.84473C327.833 8.84473 327.313 8.92773 326.834 9.09375C326.361 9.25977 325.917 9.55518 325.501 9.97998L325.245 8.29541C325.538 7.96338 325.97 7.68506 326.542 7.46045C327.118 7.23584 327.711 7.12354 328.321 7.12354C329.024 7.12354 329.645 7.22607 330.182 7.43115C330.724 7.63135 331.146 7.92188 331.449 8.30273C331.756 8.67871 331.91 9.12793 331.91 9.65039C331.91 10.0947 331.786 10.5049 331.537 10.8809C331.292 11.252 330.99 11.562 330.628 11.811C330.267 12.0552 329.913 12.2139 329.566 12.2871C329.825 12.3311 330.111 12.4092 330.423 12.5215C330.736 12.6289 331.031 12.7876 331.31 12.9976C331.593 13.2026 331.825 13.4712 332.005 13.8032C332.186 14.1353 332.276 14.5454 332.276 15.0337C332.276 15.605 332.093 16.1299 331.727 16.6084C331.361 17.0869 330.86 17.4702 330.226 17.7583C329.591 18.0415 328.871 18.1831 328.065 18.1831C327.416 18.1831 326.805 18.083 326.234 17.8828C325.667 17.6826 325.191 17.4043 324.806 17.0479L325.062 15.0337C325.462 15.4829 325.941 15.8345 326.498 16.0884C327.054 16.3374 327.625 16.4619 328.211 16.4619C328.563 16.4619 328.888 16.3984 329.186 16.2715C329.488 16.1445 329.73 15.9639 329.911 15.7295C330.096 15.4951 330.189 15.2144 330.189 14.8872C330.189 14.438 329.962 14.0571 329.508 13.7446C329.059 13.4321 328.419 13.2759 327.589 13.2759H326.93V11.5181ZM339.454 12.7632C339.454 11.4058 339.305 10.4072 339.007 9.76758C338.714 9.12793 338.253 8.80811 337.623 8.80811C337.027 8.80811 336.573 9.11328 336.261 9.72363C335.948 10.3291 335.792 11.269 335.792 12.5435C335.792 13.896 335.943 14.8945 336.246 15.5391C336.549 16.1787 337.008 16.4985 337.623 16.4985C338.219 16.4985 338.673 16.1934 338.985 15.583C339.298 14.9727 339.454 14.0327 339.454 12.7632ZM341.542 12.5801C341.542 13.9912 341.371 15.1069 341.029 15.9272C340.692 16.7427 340.223 17.3237 339.623 17.6704C339.027 18.0122 338.336 18.1831 337.55 18.1831C336.773 18.1831 336.097 18.0122 335.521 17.6704C334.945 17.3237 334.498 16.7524 334.181 15.9565C333.863 15.1558 333.705 14.0791 333.705 12.7266C333.705 11.3496 333.875 10.2534 334.217 9.43799C334.559 8.61768 335.028 8.02686 335.624 7.66553C336.224 7.3042 336.915 7.12354 337.696 7.12354C338.526 7.12354 339.227 7.30176 339.798 7.6582C340.37 8.00977 340.802 8.58594 341.095 9.38672C341.393 10.1826 341.542 11.2471 341.542 12.5801ZM350.023 7.16016H351.532L345.819 18.1831H344.295L350.023 7.16016ZM345.907 10.1191C345.907 9.38672 345.838 8.86914 345.702 8.56641C345.565 8.26367 345.348 8.1123 345.05 8.1123C344.767 8.1123 344.554 8.26123 344.413 8.55908C344.276 8.85205 344.208 9.33545 344.208 10.0093C344.208 10.7417 344.276 11.2617 344.413 11.5693C344.549 11.877 344.762 12.0308 345.05 12.0308C345.328 12.0308 345.541 11.8818 345.687 11.584C345.833 11.2812 345.907 10.793 345.907 10.1191ZM347.445 10.0239C347.445 10.7417 347.337 11.3179 347.123 11.7524C346.908 12.187 346.617 12.502 346.251 12.6973C345.885 12.8877 345.475 12.9829 345.021 12.9829C344.342 12.9829 343.78 12.7607 343.336 12.3164C342.892 11.8721 342.669 11.1348 342.669 10.1045C342.669 9.41602 342.777 8.85449 342.992 8.41992C343.207 7.98535 343.497 7.66797 343.863 7.46777C344.229 7.2627 344.637 7.16016 345.086 7.16016C345.765 7.16016 346.327 7.38721 346.771 7.84131C347.22 8.29541 347.445 9.02295 347.445 10.0239ZM351.583 15.3193C351.583 14.5869 351.515 14.0693 351.378 13.7666C351.241 13.4639 351.024 13.3125 350.726 13.3125C350.443 13.3125 350.23 13.4614 350.089 13.7593C349.952 14.0522 349.884 14.5356 349.884 15.2095C349.884 15.9419 349.952 16.4619 350.089 16.7695C350.226 17.0771 350.438 17.231 350.726 17.231C351.004 17.231 351.217 17.082 351.363 16.7842C351.51 16.4814 351.583 15.9932 351.583 15.3193ZM353.121 15.2241C353.121 15.9419 353.014 16.5181 352.799 16.9526C352.584 17.3872 352.293 17.7021 351.927 17.8975C351.561 18.0879 351.151 18.1831 350.697 18.1831C350.018 18.1831 349.457 17.9609 349.012 17.5166C348.568 17.0723 348.346 16.335 348.346 15.3047C348.346 14.6162 348.453 14.0547 348.668 13.6201C348.883 13.1855 349.173 12.8682 349.54 12.668C349.906 12.4629 350.313 12.3604 350.763 12.3604C351.441 12.3604 352.003 12.5874 352.447 13.0415C352.896 13.4956 353.121 14.2231 353.121 15.2241Z" fill="white"/>
<path opacity="0.9" d="M422.152 16.0957V18H414.974V16.3887C415.472 16.0322 415.995 15.6196 416.542 15.1509C417.093 14.6772 417.608 14.1768 418.087 13.6494C418.57 13.1221 418.963 12.5947 419.266 12.0674C419.569 11.5352 419.72 11.0347 419.72 10.5659C419.72 10.1313 419.588 9.75537 419.325 9.43799C419.061 9.11572 418.648 8.95459 418.087 8.95459C417.638 8.95459 417.162 9.08154 416.659 9.33545C416.156 9.58936 415.741 9.91406 415.414 10.3096L414.938 8.55176C415.162 8.27832 415.455 8.03418 415.816 7.81934C416.183 7.60449 416.578 7.43604 417.003 7.31396C417.433 7.18701 417.855 7.12354 418.27 7.12354C418.978 7.12354 419.598 7.25049 420.13 7.50439C420.667 7.75342 421.085 8.10742 421.383 8.56641C421.681 9.02539 421.83 9.56982 421.83 10.1997C421.83 10.7954 421.69 11.3838 421.412 11.9648C421.139 12.541 420.787 13.0903 420.357 13.6128C419.928 14.1353 419.474 14.6187 418.995 15.063C418.521 15.5024 418.084 15.8833 417.684 16.2056H419.625C420.108 16.2056 420.499 16.2031 420.797 16.1982C421.095 16.1934 421.346 16.1836 421.551 16.1689C421.756 16.1543 421.957 16.1299 422.152 16.0957ZM429.454 12.7632C429.454 11.4058 429.305 10.4072 429.007 9.76758C428.714 9.12793 428.253 8.80811 427.623 8.80811C427.027 8.80811 426.573 9.11328 426.261 9.72363C425.948 10.3291 425.792 11.269 425.792 12.5435C425.792 13.896 425.943 14.8945 426.246 15.5391C426.549 16.1787 427.008 16.4985 427.623 16.4985C428.219 16.4985 428.673 16.1934 428.985 15.583C429.298 14.9727 429.454 14.0327 429.454 12.7632ZM431.542 12.5801C431.542 13.9912 431.371 15.1069 431.029 15.9272C430.692 16.7427 430.223 17.3237 429.623 17.6704C429.027 18.0122 428.336 18.1831 427.55 18.1831C426.773 18.1831 426.097 18.0122 425.521 17.6704C424.945 17.3237 424.498 16.7524 424.181 15.9565C423.863 15.1558 423.705 14.0791 423.705 12.7266C423.705 11.3496 423.875 10.2534 424.217 9.43799C424.559 8.61768 425.028 8.02686 425.624 7.66553C426.224 7.3042 426.915 7.12354 427.696 7.12354C428.526 7.12354 429.227 7.30176 429.798 7.6582C430.37 8.00977 430.802 8.58594 431.095 9.38672C431.393 10.1826 431.542 11.2471 431.542 12.5801ZM440.023 7.16016H441.532L435.819 18.1831H434.295L440.023 7.16016ZM435.907 10.1191C435.907 9.38672 435.838 8.86914 435.702 8.56641C435.565 8.26367 435.348 8.1123 435.05 8.1123C434.767 8.1123 434.554 8.26123 434.413 8.55908C434.276 8.85205 434.208 9.33545 434.208 10.0093C434.208 10.7417 434.276 11.2617 434.413 11.5693C434.549 11.877 434.762 12.0308 435.05 12.0308C435.328 12.0308 435.541 11.8818 435.687 11.584C435.833 11.2812 435.907 10.793 435.907 10.1191ZM437.445 10.0239C437.445 10.7417 437.337 11.3179 437.123 11.7524C436.908 12.187 436.617 12.502 436.251 12.6973C435.885 12.8877 435.475 12.9829 435.021 12.9829C434.342 12.9829 433.78 12.7607 433.336 12.3164C432.892 11.8721 432.669 11.1348 432.669 10.1045C432.669 9.41602 432.777 8.85449 432.992 8.41992C433.207 7.98535 433.497 7.66797 433.863 7.46777C434.229 7.2627 434.637 7.16016 435.086 7.16016C435.765 7.16016 436.327 7.38721 436.771 7.84131C437.22 8.29541 437.445 9.02295 437.445 10.0239ZM441.583 15.3193C441.583 14.5869 441.515 14.0693 441.378 13.7666C441.241 13.4639 441.024 13.3125 440.726 13.3125C440.443 13.3125 440.23 13.4614 440.089 13.7593C439.952 14.0522 439.884 14.5356 439.884 15.2095C439.884 15.9419 439.952 16.4619 440.089 16.7695C440.226 17.0771 440.438 17.231 440.726 17.231C441.004 17.231 441.217 17.082 441.363 16.7842C441.51 16.4814 441.583 15.9932 441.583 15.3193ZM443.121 15.2241C443.121 15.9419 443.014 16.5181 442.799 16.9526C442.584 17.3872 442.293 17.7021 441.927 17.8975C441.561 18.0879 441.151 18.1831 440.697 18.1831C440.018 18.1831 439.457 17.9609 439.012 17.5166C438.568 17.0723 438.346 16.335 438.346 15.3047C438.346 14.6162 438.453 14.0547 438.668 13.6201C438.883 13.1855 439.173 12.8682 439.54 12.668C439.906 12.4629 440.313 12.3604 440.763 12.3604C441.441 12.3604 442.003 12.5874 442.447 13.0415C442.896 13.4956 443.121 14.2231 443.121 15.2241Z" fill="white"/>
<path opacity="0.9" d="M308.758 75.9858L311.271 67.3066H313.153L312.274 69.4307L309.842 78H307.682L305.235 69.4307L304.349 67.3066H306.253L308.758 75.9858ZM303.653 67.3066H305.594L305.331 69.1743L305.118 78H303.141C303.17 77.7949 303.199 77.4507 303.229 76.9673C303.258 76.479 303.29 75.9077 303.324 75.2534C303.358 74.5991 303.39 73.9106 303.419 73.188C303.453 72.4604 303.482 71.75 303.507 71.0566C303.536 70.3633 303.561 69.7334 303.58 69.167C303.604 68.6006 303.622 68.1489 303.631 67.812C303.646 67.4751 303.653 67.3066 303.653 67.3066ZM314.347 78H312.369L312.186 69.1743L311.856 67.3066H313.834C313.858 68.1025 313.888 68.9448 313.922 69.8335C313.956 70.7222 313.99 71.6035 314.024 72.4775C314.063 73.3516 314.1 74.167 314.134 74.9238C314.173 75.6807 314.21 76.3301 314.244 76.8721C314.283 77.4092 314.317 77.7852 314.347 78ZM323.033 74.7041H317.408V73.3857H321.166C321.166 72.873 321.053 72.502 320.829 72.2725C320.609 72.0381 320.282 71.9209 319.847 71.9209C319.32 71.9209 318.927 72.104 318.668 72.4702C318.414 72.8315 318.287 73.4419 318.287 74.3013C318.287 75.0776 318.443 75.644 318.756 76.0005C319.068 76.3569 319.527 76.5352 320.133 76.5352C320.611 76.5352 321.08 76.479 321.539 76.3667C322.003 76.2544 322.462 76.064 322.916 75.7954L323.07 77.4507C322.542 77.7192 322.032 77.9072 321.539 78.0146C321.051 78.127 320.521 78.1831 319.95 78.1831C319.305 78.1831 318.705 78.0391 318.148 77.751C317.591 77.4629 317.142 77.0356 316.8 76.4692C316.463 75.9028 316.295 75.2046 316.295 74.3745C316.295 73.564 316.441 72.8608 316.734 72.2651C317.032 71.6694 317.455 71.208 318.001 70.8809C318.548 70.5488 319.198 70.3828 319.95 70.3828C320.565 70.3828 321.07 70.4902 321.466 70.7051C321.866 70.915 322.179 71.1982 322.403 71.5547C322.633 71.9111 322.794 72.3115 322.887 72.7559C322.979 73.1953 323.026 73.6445 323.026 74.1035C323.026 74.1719 323.026 74.272 323.026 74.4038C323.031 74.5356 323.033 74.6357 323.033 74.7041ZM331.969 78H329.918C329.918 78 329.918 77.895 329.918 77.6851C329.918 77.4751 329.918 77.2041 329.918 76.8721C329.918 76.54 329.918 76.1885 329.918 75.8174C329.918 75.4463 329.918 75.0972 329.918 74.77C329.918 74.438 329.918 74.1719 329.918 73.9717C329.918 73.2979 329.825 72.8315 329.64 72.5728C329.459 72.3091 329.173 72.1772 328.783 72.1772C328.504 72.1772 328.236 72.2578 327.977 72.4189C327.718 72.5752 327.491 72.7729 327.296 73.0122C327.105 73.2515 326.966 73.498 326.878 73.752V78H324.828C324.828 78 324.828 77.8926 324.828 77.6777C324.828 77.458 324.828 77.1748 324.828 76.8281C324.828 76.4814 324.828 76.1055 324.828 75.7002C324.828 75.29 324.828 74.8921 324.828 74.5063C324.828 74.1157 324.828 73.7788 324.828 73.4956C324.828 72.7778 324.786 72.1675 324.703 71.6646C324.625 71.1616 324.544 70.7832 324.461 70.5293H326.476C326.515 70.627 326.551 70.7612 326.585 70.9321C326.625 71.103 326.661 71.2764 326.695 71.4521C326.729 71.6279 326.754 71.772 326.769 71.8843C327.232 71.3521 327.689 70.9688 328.138 70.7344C328.587 70.5 329.071 70.3828 329.588 70.3828C330.331 70.3828 330.912 70.6392 331.332 71.1519C331.756 71.6597 331.969 72.4165 331.969 73.4224C331.969 73.6665 331.969 73.979 331.969 74.3599C331.969 74.7358 331.969 75.1338 331.969 75.5537C331.969 75.9736 331.969 76.3691 331.969 76.7402C331.969 77.1113 331.969 77.4141 331.969 77.6484C331.969 77.8828 331.969 78 331.969 78ZM333.551 74.2866C333.551 73.4468 333.717 72.7363 334.049 72.1553C334.386 71.5742 334.833 71.1348 335.389 70.8369C335.946 70.5342 336.554 70.3828 337.213 70.3828C337.906 70.3828 338.517 70.5342 339.044 70.8369C339.571 71.1348 339.984 71.5742 340.282 72.1553C340.58 72.7363 340.729 73.4468 340.729 74.2866C340.729 75.1265 340.56 75.8369 340.223 76.418C339.891 76.9941 339.447 77.4336 338.89 77.7363C338.333 78.0342 337.726 78.1831 337.066 78.1831C336.378 78.1831 335.77 78.0342 335.243 77.7363C334.715 77.4336 334.3 76.9941 333.998 76.418C333.7 75.8369 333.551 75.1265 333.551 74.2866ZM335.602 74.2866C335.602 74.9849 335.731 75.5342 335.99 75.9346C336.253 76.335 336.637 76.5352 337.14 76.5352C337.613 76.5352 337.987 76.335 338.26 75.9346C338.539 75.5342 338.678 74.9849 338.678 74.2866C338.678 73.5835 338.546 73.0317 338.282 72.6313C338.023 72.231 337.643 72.0308 337.14 72.0308C336.666 72.0308 336.29 72.231 336.012 72.6313C335.738 73.0317 335.602 73.5835 335.602 74.2866ZM344.5 78H342.45V73.4956C342.45 72.7778 342.408 72.1675 342.325 71.6646C342.247 71.1616 342.167 70.7832 342.083 70.5293H344.098C344.137 70.6318 344.173 70.7734 344.208 70.9541C344.247 71.1348 344.283 71.3179 344.317 71.5034C344.352 71.689 344.376 71.8403 344.391 71.9575C344.747 71.4497 345.138 71.0615 345.562 70.793C345.987 70.5195 346.366 70.3828 346.698 70.3828C347.157 70.3828 347.525 70.5098 347.804 70.7637C348.082 71.0127 348.285 71.3447 348.412 71.7598C348.539 72.1748 348.602 72.6313 348.602 73.1294L346.969 73.3857C346.944 73.0537 346.864 72.7876 346.727 72.5874C346.59 72.3823 346.366 72.2798 346.053 72.2798C345.892 72.2798 345.707 72.3701 345.497 72.5508C345.287 72.7314 345.089 72.9634 344.903 73.2466C344.723 73.5249 344.588 73.8154 344.5 74.1182V78ZM353.919 74.6675V70.6758C353.919 69.958 353.915 69.2915 353.905 68.6763C353.895 68.0562 353.863 67.5996 353.81 67.3066C353.971 67.2969 354.193 67.2871 354.476 67.2773C354.764 67.2676 355.077 67.2603 355.414 67.2554C355.755 67.2456 356.092 67.2407 356.424 67.2407C356.761 67.2358 357.062 67.2334 357.325 67.2334C357.73 67.2334 358.175 67.2725 358.658 67.3506C359.142 67.4238 359.623 67.5679 360.101 67.7827C360.584 67.9927 361.024 68.2954 361.419 68.6909C361.82 69.0864 362.14 69.6016 362.379 70.2363C362.623 70.8711 362.745 71.6523 362.745 72.5801C362.745 73.4492 362.625 74.1987 362.386 74.8286C362.152 75.4536 361.834 75.9761 361.434 76.396C361.039 76.8159 360.597 77.1479 360.108 77.3921C359.625 77.6362 359.127 77.812 358.614 77.9194C358.106 78.022 357.625 78.0732 357.171 78.0732C356.922 78.0732 356.61 78.0684 356.234 78.0586C355.863 78.0537 355.492 78.0464 355.121 78.0366C354.75 78.0269 354.437 78.0171 354.183 78.0073C353.934 78.0024 353.81 78 353.81 78C353.863 77.707 353.893 77.2603 353.897 76.6597C353.907 76.0542 353.915 75.3901 353.919 74.6675ZM356.007 68.9106V76.3081C356.148 76.3228 356.334 76.3398 356.563 76.3594C356.798 76.374 357.059 76.3813 357.347 76.3813C357.894 76.3813 358.421 76.2617 358.929 76.0225C359.437 75.7832 359.854 75.395 360.182 74.8579C360.514 74.3208 360.68 73.6104 360.68 72.7266C360.68 71.7549 360.536 70.9883 360.248 70.4268C359.964 69.8652 359.574 69.4673 359.076 69.2329C358.578 68.9937 358.011 68.874 357.376 68.874C357.176 68.874 356.937 68.8789 356.659 68.8887C356.38 68.8936 356.163 68.9009 356.007 68.9106ZM370.992 74.7041H365.367V73.3857H369.125C369.125 72.873 369.012 72.502 368.788 72.2725C368.568 72.0381 368.241 71.9209 367.806 71.9209C367.279 71.9209 366.886 72.104 366.627 72.4702C366.373 72.8315 366.246 73.4419 366.246 74.3013C366.246 75.0776 366.402 75.644 366.715 76.0005C367.027 76.3569 367.486 76.5352 368.092 76.5352C368.57 76.5352 369.039 76.479 369.498 76.3667C369.962 76.2544 370.421 76.064 370.875 75.7954L371.029 77.4507C370.501 77.7192 369.991 77.9072 369.498 78.0146C369.01 78.127 368.48 78.1831 367.909 78.1831C367.264 78.1831 366.664 78.0391 366.107 77.751C365.55 77.4629 365.101 77.0356 364.759 76.4692C364.422 75.9028 364.254 75.2046 364.254 74.3745C364.254 73.564 364.4 72.8608 364.693 72.2651C364.991 71.6694 365.414 71.208 365.96 70.8809C366.507 70.5488 367.157 70.3828 367.909 70.3828C368.524 70.3828 369.029 70.4902 369.425 70.7051C369.825 70.915 370.138 71.1982 370.362 71.5547C370.592 71.9111 370.753 72.3115 370.846 72.7559C370.938 73.1953 370.985 73.6445 370.985 74.1035C370.985 74.1719 370.985 74.272 370.985 74.4038C370.99 74.5356 370.992 74.6357 370.992 74.7041ZM379.928 78H377.877C377.877 78 377.877 77.895 377.877 77.6851C377.877 77.4751 377.877 77.2041 377.877 76.8721C377.877 76.54 377.877 76.1885 377.877 75.8174C377.877 75.4463 377.877 75.0972 377.877 74.77C377.877 74.438 377.877 74.1719 377.877 73.9717C377.877 73.2979 377.784 72.8315 377.599 72.5728C377.418 72.3091 377.132 72.1772 376.742 72.1772C376.463 72.1772 376.195 72.2578 375.936 72.4189C375.677 72.5752 375.45 72.7729 375.255 73.0122C375.064 73.2515 374.925 73.498 374.837 73.752V78H372.787C372.787 78 372.787 77.8926 372.787 77.6777C372.787 77.458 372.787 77.1748 372.787 76.8281C372.787 76.4814 372.787 76.1055 372.787 75.7002C372.787 75.29 372.787 74.8921 372.787 74.5063C372.787 74.1157 372.787 73.7788 372.787 73.4956C372.787 72.7778 372.745 72.1675 372.662 71.6646C372.584 71.1616 372.503 70.7832 372.42 70.5293H374.435C374.474 70.627 374.51 70.7612 374.544 70.9321C374.583 71.103 374.62 71.2764 374.654 71.4521C374.688 71.6279 374.713 71.772 374.728 71.8843C375.191 71.3521 375.648 70.9688 376.097 70.7344C376.546 70.5 377.03 70.3828 377.547 70.3828C378.29 70.3828 378.871 70.6392 379.291 71.1519C379.715 71.6597 379.928 72.4165 379.928 73.4224C379.928 73.6665 379.928 73.979 379.928 74.3599C379.928 74.7358 379.928 75.1338 379.928 75.5537C379.928 75.9736 379.928 76.3691 379.928 76.7402C379.928 77.1113 379.928 77.4141 379.928 77.6484C379.928 77.8828 379.928 78 379.928 78ZM387.479 70.9688L387.193 72.6899C386.92 72.5483 386.573 72.397 386.153 72.2358C385.738 72.0747 385.277 71.9941 384.769 71.9941C384.339 71.9941 384.042 72.0674 383.875 72.2139C383.714 72.3604 383.634 72.5068 383.634 72.6533C383.634 72.7705 383.666 72.8706 383.729 72.9536C383.797 73.0366 383.934 73.1147 384.139 73.188C384.349 73.2563 384.669 73.3345 385.099 73.4224C385.606 73.52 386.07 73.6592 386.49 73.8398C386.915 74.0156 387.252 74.2524 387.501 74.5503C387.755 74.8481 387.882 75.229 387.882 75.6929C387.882 76.1616 387.74 76.584 387.457 76.96C387.174 77.3359 386.791 77.6338 386.307 77.8535C385.829 78.0732 385.292 78.1831 384.696 78.1831C384.042 78.1831 383.438 78.1001 382.887 77.9341C382.335 77.7632 381.9 77.5654 381.583 77.3408L381.986 75.5464C382.347 75.8442 382.787 76.0835 383.304 76.2642C383.827 76.4448 384.303 76.5352 384.732 76.5352C385.079 76.5352 385.36 76.4692 385.575 76.3374C385.794 76.2007 385.904 76.0469 385.904 75.876C385.904 75.6611 385.792 75.4731 385.567 75.312C385.343 75.146 384.881 74.9873 384.183 74.8359C383.49 74.6846 382.96 74.5039 382.594 74.2939C382.232 74.084 381.986 73.8472 381.854 73.5835C381.722 73.3198 381.656 73.0342 381.656 72.7266C381.656 72.5459 381.705 72.3262 381.803 72.0674C381.9 71.8037 382.066 71.5449 382.301 71.291C382.54 71.0322 382.865 70.8174 383.275 70.6465C383.69 70.4707 384.212 70.3828 384.842 70.3828C385.438 70.3828 385.956 70.4463 386.395 70.5732C386.834 70.6953 387.196 70.8271 387.479 70.9688ZM389.647 70.5293H391.808C391.808 70.8955 391.808 71.2861 391.808 71.7012C391.808 72.1162 391.808 72.519 391.808 72.9097C391.808 73.2954 391.808 73.6323 391.808 73.9204C391.808 74.2085 391.808 74.4087 391.808 74.521C391.808 74.8335 391.812 75.2144 391.822 75.6636C391.837 76.1079 391.854 76.5425 391.874 76.9673C391.898 77.3921 391.925 77.7363 391.954 78H389.757C389.757 77.6484 389.757 77.2358 389.757 76.7622C389.757 76.2886 389.757 75.8174 389.757 75.3486C389.757 74.875 389.757 74.4648 389.757 74.1182C389.757 73.4053 389.75 72.7266 389.735 72.082C389.725 71.4326 389.696 70.915 389.647 70.5293ZM389.5 67.856C389.5 67.48 389.62 67.1724 389.859 66.9331C390.104 66.6938 390.411 66.5742 390.782 66.5742C391.158 66.5742 391.466 66.6938 391.705 66.9331C391.944 67.1724 392.064 67.48 392.064 67.856C392.064 68.2368 391.944 68.5469 391.705 68.7861C391.466 69.0205 391.158 69.1377 390.782 69.1377C390.411 69.1377 390.104 69.0205 389.859 68.7861C389.62 68.5469 389.5 68.2368 389.5 67.856ZM401.292 66.2812V74.1182C401.292 75.041 401.344 75.8174 401.446 76.4473C401.554 77.0723 401.686 77.5898 401.842 78H399.828C399.774 77.8828 399.708 77.7046 399.63 77.4653C399.557 77.2212 399.488 76.9722 399.425 76.7183C399.098 77.187 398.722 77.5483 398.297 77.8022C397.872 78.0562 397.406 78.1831 396.898 78.1831C396.297 78.1831 395.768 78.0366 395.309 77.7437C394.854 77.4507 394.498 77.0381 394.239 76.5059C393.985 75.9688 393.858 75.3438 393.858 74.6309C393.858 73.7666 394.02 73.0171 394.342 72.3823C394.664 71.7476 395.096 71.2568 395.638 70.9102C396.185 70.5586 396.788 70.3828 397.447 70.3828C397.735 70.3828 398.041 70.4463 398.363 70.5732C398.685 70.7002 398.978 70.8442 399.242 71.0054V68.9546C399.242 68.3687 399.227 67.8535 399.198 67.4092C399.173 66.9648 399.127 66.5889 399.059 66.2812H401.292ZM399.242 75.0703V72.5947C398.905 72.4287 398.607 72.3115 398.348 72.2432C398.089 72.1748 397.789 72.1406 397.447 72.1406C397.193 72.1406 396.947 72.231 396.708 72.4116C396.473 72.5923 396.28 72.8511 396.129 73.188C395.982 73.5249 395.909 73.9326 395.909 74.4111C395.909 75.8271 396.373 76.5352 397.301 76.5352C397.56 76.5352 397.816 76.4644 398.07 76.3228C398.324 76.1812 398.553 75.998 398.758 75.7734C398.963 75.5488 399.125 75.3145 399.242 75.0703ZM410.975 78H409.027C408.958 77.8828 408.893 77.6899 408.829 77.4214C408.766 77.1479 408.714 76.8647 408.675 76.5718C408.641 76.2739 408.624 76.0347 408.624 75.854V75.4365C408.443 75.8564 408.192 76.2788 407.87 76.7036C407.547 77.1235 407.171 77.4751 406.742 77.7583C406.312 78.0415 405.841 78.1831 405.328 78.1831C404.713 78.1831 404.193 77.9121 403.768 77.3701C403.343 76.8232 403.131 76.0322 403.131 74.9971C403.131 74.416 403.216 73.8521 403.387 73.3052C403.558 72.7534 403.822 72.2578 404.178 71.8184C404.535 71.3789 404.989 71.0298 405.541 70.771C406.092 70.5122 406.747 70.3828 407.503 70.3828C408.036 70.3828 408.563 70.4146 409.085 70.478C409.613 70.5366 410.084 70.6147 410.499 70.7124V74.1182C410.499 75.041 410.543 75.8174 410.631 76.4473C410.719 77.0723 410.833 77.5898 410.975 78ZM408.404 72.6533V72.1699C408.302 72.1455 408.153 72.1162 407.958 72.082C407.762 72.043 407.508 72.0234 407.196 72.0234C406.683 72.0234 406.28 72.165 405.987 72.4482C405.694 72.7314 405.487 73.1001 405.365 73.5542C405.243 74.0083 405.182 74.4893 405.182 74.9971C405.182 75.4268 405.26 75.7759 405.416 76.0444C405.577 76.3081 405.768 76.4399 405.987 76.4399C406.192 76.4399 406.405 76.3374 406.625 76.1323C406.849 75.9272 407.066 75.666 407.276 75.3486C407.486 75.0312 407.677 74.6968 407.848 74.3452C408.019 73.9937 408.153 73.6665 408.25 73.3638C408.353 73.0562 408.404 72.8193 408.404 72.6533ZM419.764 66.2812V74.1182C419.764 75.041 419.815 75.8174 419.918 76.4473C420.025 77.0723 420.157 77.5898 420.313 78H418.299C418.246 77.8828 418.18 77.7046 418.102 77.4653C418.028 77.2212 417.96 76.9722 417.896 76.7183C417.569 77.187 417.193 77.5483 416.769 77.8022C416.344 78.0562 415.877 78.1831 415.37 78.1831C414.769 78.1831 414.239 78.0366 413.78 77.7437C413.326 77.4507 412.97 77.0381 412.711 76.5059C412.457 75.9688 412.33 75.3438 412.33 74.6309C412.33 73.7666 412.491 73.0171 412.813 72.3823C413.136 71.7476 413.568 71.2568 414.11 70.9102C414.657 70.5586 415.26 70.3828 415.919 70.3828C416.207 70.3828 416.512 70.4463 416.834 70.5732C417.157 70.7002 417.45 70.8442 417.713 71.0054V68.9546C417.713 68.3687 417.699 67.8535 417.669 67.4092C417.645 66.9648 417.599 66.5889 417.53 66.2812H419.764ZM417.713 75.0703V72.5947C417.376 72.4287 417.079 72.3115 416.82 72.2432C416.561 72.1748 416.261 72.1406 415.919 72.1406C415.665 72.1406 415.418 72.231 415.179 72.4116C414.945 72.5923 414.752 72.8511 414.601 73.188C414.454 73.5249 414.381 73.9326 414.381 74.4111C414.381 75.8271 414.845 76.5352 415.772 76.5352C416.031 76.5352 416.288 76.4644 416.542 76.3228C416.795 76.1812 417.025 75.998 417.23 75.7734C417.435 75.5488 417.596 75.3145 417.713 75.0703ZM428.268 74.7041H422.643V73.3857H426.4C426.4 72.873 426.288 72.502 426.063 72.2725C425.843 72.0381 425.516 71.9209 425.082 71.9209C424.554 71.9209 424.161 72.104 423.902 72.4702C423.648 72.8315 423.521 73.4419 423.521 74.3013C423.521 75.0776 423.678 75.644 423.99 76.0005C424.303 76.3569 424.762 76.5352 425.367 76.5352C425.846 76.5352 426.314 76.479 426.773 76.3667C427.237 76.2544 427.696 76.064 428.15 75.7954L428.304 77.4507C427.777 77.7192 427.267 77.9072 426.773 78.0146C426.285 78.127 425.755 78.1831 425.184 78.1831C424.54 78.1831 423.939 78.0391 423.382 77.751C422.826 77.4629 422.376 77.0356 422.035 76.4692C421.698 75.9028 421.529 75.2046 421.529 74.3745C421.529 73.564 421.676 72.8608 421.969 72.2651C422.267 71.6694 422.689 71.208 423.236 70.8809C423.783 70.5488 424.432 70.3828 425.184 70.3828C425.799 70.3828 426.305 70.4902 426.7 70.7051C427.101 70.915 427.413 71.1982 427.638 71.5547C427.867 71.9111 428.028 72.3115 428.121 72.7559C428.214 73.1953 428.26 73.6445 428.26 74.1035C428.26 74.1719 428.26 74.272 428.26 74.4038C428.265 74.5356 428.268 74.6357 428.268 74.7041Z" fill="white"/>
<path d="M22 54H423" stroke="url(#paint0_linear_366_24)" stroke-width="13" stroke-linecap="round"/>
<path d="M15.5 19V40" stroke="white" stroke-opacity="0.5"/>
<path d="M98 19V40" stroke="white" stroke-opacity="0.5"/>
<path d="M218 19V40" stroke="white" stroke-opacity="0.5"/>
<path d="M339 19V40" stroke="white" stroke-opacity="0.5"/>
<path d="M429 30L15 30" stroke="white" stroke-opacity="0.5"/>
<path d="M429 19V40" stroke="white" stroke-opacity="0.5"/>
<defs>
<linearGradient id="paint0_linear_366_24" x1="22" y1="54.5" x2="423" y2="54.5" gradientUnits="userSpaceOnUse">
<stop stop-color="#093048"/>
<stop offset="0.2" stop-color="#1B4E66"/>
<stop offset="0.405" stop-color="#2C6C84"/>
<stop offset="0.6" stop-color="#3E8AA2"/>
<stop offset="0.81" stop-color="#54A5BA"/>
<stop offset="1" stop-color="#6BC0D2"/>
</linearGradient>
</defs>
</svg>
