<svg width="615" height="207" viewBox="0 0 615 207" fill="none" xmlns="http://www.w3.org/2000/svg">
<rect x="1.5" y="1.5" width="612" height="204" rx="13.5" stroke="url(#paint0_linear_535_21)" stroke-opacity="0.7" stroke-width="3"/>
<path d="M310 14L310 197" stroke="#366B81" stroke-width="2" stroke-linecap="round"/>
<path d="M60 122L243 122" stroke="#54A5BA" stroke-width="2" stroke-linecap="round"/>
<path d="M377 122L560 122" stroke="#54A5BA" stroke-width="2" stroke-linecap="round"/>
<rect x="68.5" y="14.5" width="166" height="40" rx="10.5" fill="#54A5BA" stroke="white"/>
<rect x="385.5" y="14.5" width="166" height="40" rx="10.5" fill="#093048" stroke="white"/>
<path d="M63.4961 68.4023C63.4961 69.5872 63.3659 70.6029 63.1055 71.4492C62.8581 72.2826 62.5391 72.9857 62.1484 73.5586C61.7578 74.1185 61.3151 74.5612 60.8203 74.8867C60.3385 75.2122 59.8698 75.4596 59.4141 75.6289C58.9583 75.7852 58.5417 75.8893 58.1641 75.9414C57.7865 75.9805 57.5065 76 57.3242 76H51.875V61.6055H56.2109C57.4219 61.6055 58.4831 61.8008 59.3945 62.1914C60.319 62.569 61.0807 63.0768 61.6797 63.7148C62.2917 64.3529 62.7474 65.082 63.0469 65.9023C63.3464 66.7096 63.4961 67.543 63.4961 68.4023ZM56.543 74.2812C58.1315 74.2812 59.2773 73.7734 59.9805 72.7578C60.6836 71.7422 61.0352 70.2708 61.0352 68.3438C61.0352 67.7448 60.9635 67.1523 60.8203 66.5664C60.6771 65.9805 60.3971 65.4531 59.9805 64.9844C59.5768 64.5026 59.0234 64.1185 58.3203 63.832C57.6172 63.5326 56.7057 63.3828 55.5859 63.3828H54.2188V74.2812H56.543ZM69.082 76H66.6992V64.9844H69.082V76ZM69.2969 61.4688C69.2969 61.8594 69.1602 62.1914 68.8867 62.4648C68.6133 62.7253 68.2812 62.8555 67.8906 62.8555C67.5 62.8555 67.168 62.7188 66.8945 62.4453C66.6341 62.1719 66.5039 61.8464 66.5039 61.4688C66.5039 61.0781 66.6406 60.7461 66.9141 60.4727C67.1875 60.1992 67.513 60.0625 67.8906 60.0625C68.2812 60.0625 68.6133 60.1992 68.8867 60.4727C69.1602 60.7461 69.2969 61.0781 69.2969 61.4688ZM80.3906 72.582V72.7383C80.3906 72.8424 80.3971 72.9987 80.4102 73.207C80.4232 73.4023 80.4492 73.6042 80.4883 73.8125C80.5273 74.0208 80.5859 74.2096 80.6641 74.3789C80.7552 74.5482 80.8724 74.6589 81.0156 74.7109L80.3906 76.0195C80.2214 76.0195 80.0391 75.9805 79.8438 75.9023C79.6615 75.8242 79.4792 75.7135 79.2969 75.5703C79.1276 75.4271 78.9779 75.2708 78.8477 75.1016C78.7305 74.9193 78.6393 74.724 78.5742 74.5156C78.4831 74.737 78.3203 74.9453 78.0859 75.1406C77.8646 75.3229 77.6107 75.4922 77.3242 75.6484C77.0378 75.7917 76.7253 75.9023 76.3867 75.9805C76.0612 76.0586 75.7552 76.0977 75.4688 76.0977C75.026 76.0977 74.5964 76.0391 74.1797 75.9219C73.776 75.8047 73.418 75.6159 73.1055 75.3555C72.793 75.0951 72.5456 74.75 72.3633 74.3203C72.194 73.8906 72.1094 73.3633 72.1094 72.7383C72.1094 72.1393 72.2331 71.625 72.4805 71.1953C72.7409 70.7526 73.0664 70.3945 73.457 70.1211C73.8607 69.8346 74.3164 69.6263 74.8242 69.4961C75.332 69.3529 75.8464 69.2812 76.3672 69.2812H78.0273C78.0273 68.6432 77.9948 68.1354 77.9297 67.7578C77.8646 67.3802 77.7539 67.1068 77.5977 66.9375C77.4414 66.7552 77.2461 66.6445 77.0117 66.6055C76.7904 66.5534 76.5234 66.5273 76.2109 66.5273C75.9245 66.5273 75.651 66.5664 75.3906 66.6445C75.1432 66.7096 74.9089 66.7943 74.6875 66.8984C74.4792 66.9896 74.2904 67.0938 74.1211 67.2109C73.9648 67.3281 73.8477 67.4193 73.7695 67.4844L72.8906 66.1367C73.0208 65.9935 73.2161 65.8503 73.4766 65.707C73.737 65.5508 74.0365 65.4141 74.375 65.2969C74.7135 65.1797 75.0781 65.0885 75.4688 65.0234C75.8724 64.9453 76.2891 64.9062 76.7188 64.9062C77.1094 64.9062 77.487 64.9453 77.8516 65.0234C78.2292 65.1016 78.5677 65.2318 78.8672 65.4141C79.1797 65.5964 79.4466 65.8438 79.668 66.1562C79.9023 66.4557 80.0651 66.8333 80.1562 67.2891C80.2474 67.7448 80.306 68.207 80.332 68.6758C80.3711 69.1315 80.3906 69.5872 80.3906 70.043V72.582ZM78.0469 70.668H76.7969C76.5365 70.668 76.263 70.694 75.9766 70.7461C75.6901 70.7982 75.4232 70.8958 75.1758 71.0391C74.9284 71.1823 74.7201 71.3906 74.5508 71.6641C74.3945 71.9245 74.3164 72.263 74.3164 72.6797C74.3164 73.3307 74.4596 73.7995 74.7461 74.0859C75.0456 74.3724 75.4753 74.5156 76.0352 74.5156C76.4258 74.5156 76.7969 74.4115 77.1484 74.2031C77.513 73.9948 77.8125 73.7148 78.0469 73.3633V70.668ZM97.6367 74.457C97.194 75.0169 96.7122 75.4336 96.1914 75.707C95.6706 75.9674 95.0065 76.0977 94.1992 76.0977C93.431 76.0977 92.7344 75.9544 92.1094 75.668C91.4844 75.3685 90.9505 74.9714 90.5078 74.4766C90.0651 73.9688 89.7266 73.3763 89.4922 72.6992C89.2708 72.0221 89.1602 71.2865 89.1602 70.4922C89.1602 69.7109 89.2839 68.9818 89.5312 68.3047C89.7786 67.6276 90.1237 67.0417 90.5664 66.5469C91.0091 66.0391 91.543 65.6419 92.168 65.3555C92.793 65.069 93.4896 64.9258 94.2578 64.9258C95.0651 64.9258 95.7552 65.0625 96.3281 65.3359C96.901 65.5964 97.4089 66.0065 97.8516 66.5664L96.7969 67.8359C96.5755 67.5755 96.2695 67.3411 95.8789 67.1328C95.4883 66.9115 94.9544 66.8008 94.2773 66.8008C93.8867 66.8008 93.5286 66.8919 93.2031 67.0742C92.8776 67.2565 92.5977 67.5104 92.3633 67.8359C92.1419 68.1615 91.9661 68.5456 91.8359 68.9883C91.7188 69.431 91.6602 69.9128 91.6602 70.4336C91.6602 70.9544 91.7122 71.4427 91.8164 71.8984C91.9336 72.3411 92.1029 72.7318 92.3242 73.0703C92.5456 73.4089 92.806 73.6758 93.1055 73.8711C93.418 74.0664 93.776 74.1641 94.1797 74.1641C94.7656 74.1641 95.2539 74.0729 95.6445 73.8906C96.0482 73.6953 96.4193 73.4609 96.7578 73.1875L97.6367 74.457ZM105.801 64.9258C106.556 64.9258 107.24 65.0755 107.852 65.375C108.464 65.6615 108.984 66.0586 109.414 66.5664C109.844 67.0742 110.176 67.6667 110.41 68.3438C110.645 69.0208 110.762 69.75 110.762 70.5312C110.762 71.3125 110.638 72.0482 110.391 72.7383C110.143 73.4154 109.792 74.0078 109.336 74.5156C108.893 75.0104 108.359 75.401 107.734 75.6875C107.122 75.9609 106.439 76.0977 105.684 76.0977C104.915 76.0977 104.212 75.9544 103.574 75.668C102.949 75.3815 102.415 74.9844 101.973 74.4766C101.543 73.9688 101.211 73.3763 100.977 72.6992C100.742 72.0221 100.625 71.2865 100.625 70.4922C100.625 69.6979 100.749 68.9557 100.996 68.2656C101.257 67.5755 101.608 66.9896 102.051 66.5078C102.507 66.013 103.053 65.6289 103.691 65.3555C104.329 65.069 105.033 64.9258 105.801 64.9258ZM105.645 74.2422C106.035 74.2422 106.387 74.151 106.699 73.9688C107.025 73.7734 107.298 73.513 107.52 73.1875C107.754 72.849 107.936 72.4518 108.066 71.9961C108.21 71.5404 108.281 71.0521 108.281 70.5312C108.281 70.0104 108.216 69.5221 108.086 69.0664C107.969 68.6107 107.799 68.2135 107.578 67.875C107.37 67.5234 107.109 67.2435 106.797 67.0352C106.484 66.8268 106.133 66.7227 105.742 66.7227C105.352 66.7227 104.993 66.8203 104.668 67.0156C104.342 67.2109 104.062 67.4779 103.828 67.8164C103.607 68.1419 103.431 68.5326 103.301 68.9883C103.184 69.431 103.125 69.9128 103.125 70.4336C103.125 70.9544 103.177 71.4492 103.281 71.918C103.398 72.3737 103.568 72.7708 103.789 73.1094C104.01 73.4479 104.271 73.7214 104.57 73.9297C104.883 74.138 105.241 74.2422 105.645 74.2422ZM128.379 75.6289V76H126.035V70.0039C126.035 69.5612 126.029 69.1445 126.016 68.7539C126.016 68.3503 125.977 67.9922 125.898 67.6797C125.82 67.3672 125.69 67.1263 125.508 66.957C125.339 66.7747 125.072 66.6836 124.707 66.6836C124.642 66.6836 124.525 66.6966 124.355 66.7227C124.199 66.7357 124.01 66.7747 123.789 66.8398C123.568 66.8919 123.32 66.9831 123.047 67.1133C122.786 67.2435 122.526 67.4128 122.266 67.6211C122.266 68.1289 122.266 68.5326 122.266 68.832C122.279 69.1315 122.285 69.457 122.285 69.8086V76H119.922V70.0039C119.922 69.5612 119.922 69.1445 119.922 68.7539C119.922 68.3503 119.883 67.9922 119.805 67.6797C119.727 67.3672 119.596 67.1263 119.414 66.957C119.232 66.7747 118.965 66.6836 118.613 66.6836C118.496 66.6836 118.333 66.7031 118.125 66.7422C117.917 66.7682 117.695 66.8203 117.461 66.8984C117.24 66.9766 117.012 67.0742 116.777 67.1914C116.556 67.3086 116.367 67.4453 116.211 67.6016V76H113.828V64.9844H115.957L116.211 66.1172C116.536 65.8177 116.953 65.5443 117.461 65.2969C117.982 65.0365 118.522 64.9062 119.082 64.9062C119.707 64.9062 120.228 65.043 120.645 65.3164C121.061 65.5898 121.478 65.9935 121.895 66.5273C122.116 66.2799 122.363 66.0521 122.637 65.8438C122.91 65.6354 123.19 65.4596 123.477 65.3164C123.776 65.1732 124.069 65.0625 124.355 64.9844C124.642 64.9062 124.915 64.8672 125.176 64.8672C125.618 64.8672 126.035 64.9583 126.426 65.1406C126.816 65.3099 127.155 65.5573 127.441 65.8828C127.741 66.2083 127.969 66.599 128.125 67.0547C128.294 67.4974 128.379 67.9792 128.379 68.5V69.8086V75.6289ZM151.641 75.6289V76H149.297V70.0039C149.297 69.5612 149.29 69.1445 149.277 68.7539C149.277 68.3503 149.238 67.9922 149.16 67.6797C149.082 67.3672 148.952 67.1263 148.77 66.957C148.6 66.7747 148.333 66.6836 147.969 66.6836C147.904 66.6836 147.786 66.6966 147.617 66.7227C147.461 66.7357 147.272 66.7747 147.051 66.8398C146.829 66.8919 146.582 66.9831 146.309 67.1133C146.048 67.2435 145.788 67.4128 145.527 67.6211C145.527 68.1289 145.527 68.5326 145.527 68.832C145.54 69.1315 145.547 69.457 145.547 69.8086V76H143.184V70.0039C143.184 69.5612 143.184 69.1445 143.184 68.7539C143.184 68.3503 143.145 67.9922 143.066 67.6797C142.988 67.3672 142.858 67.1263 142.676 66.957C142.493 66.7747 142.227 66.6836 141.875 66.6836C141.758 66.6836 141.595 66.7031 141.387 66.7422C141.178 66.7682 140.957 66.8203 140.723 66.8984C140.501 66.9766 140.273 67.0742 140.039 67.1914C139.818 67.3086 139.629 67.4453 139.473 67.6016V76H137.09V64.9844H139.219L139.473 66.1172C139.798 65.8177 140.215 65.5443 140.723 65.2969C141.243 65.0365 141.784 64.9062 142.344 64.9062C142.969 64.9062 143.49 65.043 143.906 65.3164C144.323 65.5898 144.74 65.9935 145.156 66.5273C145.378 66.2799 145.625 66.0521 145.898 65.8438C146.172 65.6354 146.452 65.4596 146.738 65.3164C147.038 65.1732 147.331 65.0625 147.617 64.9844C147.904 64.9062 148.177 64.8672 148.438 64.8672C148.88 64.8672 149.297 64.9583 149.688 65.1406C150.078 65.3099 150.417 65.5573 150.703 65.8828C151.003 66.2083 151.23 66.599 151.387 67.0547C151.556 67.4974 151.641 67.9792 151.641 68.5V69.8086V75.6289ZM159.609 64.8672C160.495 64.8672 161.276 65.0495 161.953 65.4141C162.63 65.7656 163.184 66.2409 163.613 66.8398C164.056 67.4258 164.368 68.1094 164.551 68.8906C164.746 69.6589 164.785 70.4596 164.668 71.293H157.012C157.012 71.7096 157.09 72.0938 157.246 72.4453C157.402 72.7969 157.611 73.1029 157.871 73.3633C158.145 73.6107 158.464 73.806 158.828 73.9492C159.206 74.0924 159.609 74.1641 160.039 74.1641C160.182 74.1641 160.358 74.151 160.566 74.125C160.788 74.0859 161.016 74.0273 161.25 73.9492C161.497 73.8581 161.738 73.7474 161.973 73.6172C162.22 73.487 162.435 73.3307 162.617 73.1484L163.477 74.457C163.047 74.9909 162.546 75.3945 161.973 75.668C161.4 75.9414 160.671 76.0781 159.785 76.0781C159.069 76.0781 158.398 75.9349 157.773 75.6484C157.148 75.349 156.615 74.9453 156.172 74.4375C155.729 73.9297 155.378 73.3372 155.117 72.6602C154.857 71.9831 154.727 71.2539 154.727 70.4727C154.727 69.7044 154.857 68.9818 155.117 68.3047C155.378 67.6146 155.723 67.0156 156.152 66.5078C156.595 66 157.116 65.6029 157.715 65.3164C158.314 65.0169 158.945 64.8672 159.609 64.8672ZM162.48 69.5742C162.48 69.2227 162.415 68.8776 162.285 68.5391C162.155 68.2005 161.973 67.8945 161.738 67.6211C161.517 67.3477 161.243 67.1328 160.918 66.9766C160.592 66.8073 160.241 66.7161 159.863 66.7031C159.46 66.7031 159.089 66.7812 158.75 66.9375C158.411 67.0938 158.118 67.3021 157.871 67.5625C157.624 67.8229 157.428 68.1354 157.285 68.5C157.155 68.8516 157.09 69.2096 157.09 69.5742H162.48ZM177.09 76H174.707V70.0039C174.707 69.5612 174.688 69.138 174.648 68.7344C174.609 68.3307 174.518 67.9727 174.375 67.6602C174.232 67.3477 174.036 67.1068 173.789 66.9375C173.542 66.7552 173.197 66.6641 172.754 66.6641C172.611 66.6641 172.422 66.6836 172.188 66.7227C171.966 66.7617 171.732 66.8203 171.484 66.8984C171.25 66.9766 171.022 67.0742 170.801 67.1914C170.592 67.3086 170.436 67.4453 170.332 67.6016V67.7188V67.7578V72.0938V72.1328V76H167.969V64.9844H170.078L170.332 66.0977C170.488 65.9544 170.684 65.8112 170.918 65.668C171.165 65.5117 171.432 65.375 171.719 65.2578C172.005 65.1406 172.298 65.0495 172.598 64.9844C172.897 64.9062 173.19 64.8672 173.477 64.8672C174.062 64.8672 174.557 64.9909 174.961 65.2383C175.365 65.4857 175.768 65.8047 176.172 66.1953C176.393 66.4167 176.562 66.6771 176.68 66.9766C176.81 67.263 176.901 67.569 176.953 67.8945C177.018 68.207 177.057 68.526 177.07 68.8516C177.083 69.1771 177.09 69.4961 177.09 69.8086V75.6094V76ZM185.254 64.9258C186.009 64.9258 186.693 65.0755 187.305 65.375C187.917 65.6615 188.438 66.0586 188.867 66.5664C189.297 67.0742 189.629 67.6667 189.863 68.3438C190.098 69.0208 190.215 69.75 190.215 70.5312C190.215 71.3125 190.091 72.0482 189.844 72.7383C189.596 73.4154 189.245 74.0078 188.789 74.5156C188.346 75.0104 187.812 75.401 187.188 75.6875C186.576 75.9609 185.892 76.0977 185.137 76.0977C184.368 76.0977 183.665 75.9544 183.027 75.668C182.402 75.3815 181.868 74.9844 181.426 74.4766C180.996 73.9688 180.664 73.3763 180.43 72.6992C180.195 72.0221 180.078 71.2865 180.078 70.4922C180.078 69.6979 180.202 68.9557 180.449 68.2656C180.71 67.5755 181.061 66.9896 181.504 66.5078C181.96 66.013 182.507 65.6289 183.145 65.3555C183.783 65.069 184.486 64.9258 185.254 64.9258ZM185.098 74.2422C185.488 74.2422 185.84 74.151 186.152 73.9688C186.478 73.7734 186.751 73.513 186.973 73.1875C187.207 72.849 187.389 72.4518 187.52 71.9961C187.663 71.5404 187.734 71.0521 187.734 70.5312C187.734 70.0104 187.669 69.5221 187.539 69.0664C187.422 68.6107 187.253 68.2135 187.031 67.875C186.823 67.5234 186.562 67.2435 186.25 67.0352C185.938 66.8268 185.586 66.7227 185.195 66.7227C184.805 66.7227 184.447 66.8203 184.121 67.0156C183.796 67.2109 183.516 67.4779 183.281 67.8164C183.06 68.1419 182.884 68.5326 182.754 68.9883C182.637 69.431 182.578 69.9128 182.578 70.4336C182.578 70.9544 182.63 71.4492 182.734 71.918C182.852 72.3737 183.021 72.7708 183.242 73.1094C183.464 73.4479 183.724 73.7214 184.023 73.9297C184.336 74.138 184.694 74.2422 185.098 74.2422ZM199.473 67.3672C199.108 67.263 198.665 67.2044 198.145 67.1914C197.676 67.1914 197.207 67.25 196.738 67.3672C196.283 67.4714 195.918 67.6536 195.645 67.9141V72.0938V72.1328V76H193.281V64.9844H195.391L195.645 66.1172C195.84 65.9219 196.042 65.7461 196.25 65.5898C196.471 65.4336 196.725 65.3099 197.012 65.2188C197.298 65.1146 197.637 65.0365 198.027 64.9844C198.418 64.9323 198.9 64.9062 199.473 64.9062V67.3672ZM207.266 65.375V64.9844H209.648V70.9805C209.648 71.4362 209.668 71.8659 209.707 72.2695C209.746 72.6602 209.831 73.0052 209.961 73.3047C210.091 73.6042 210.286 73.8451 210.547 74.0273C210.807 74.2096 211.152 74.3008 211.582 74.3008C211.712 74.3008 211.895 74.2878 212.129 74.2617C212.363 74.2227 212.598 74.1641 212.832 74.0859C213.079 74.0078 213.307 73.9102 213.516 73.793C213.737 73.6758 213.9 73.5391 214.004 73.3828V73.2461V73.2266V68.8516V68.832V64.9844H216.387V76H214.258L214.004 74.8672C213.848 75.0104 213.652 75.1536 213.418 75.2969C213.184 75.4401 212.923 75.5768 212.637 75.707C212.363 75.8242 212.077 75.9219 211.777 76C211.491 76.0651 211.204 76.0977 210.918 76.0977C210.605 76.0977 210.326 76.0651 210.078 76C209.831 75.9479 209.596 75.8633 209.375 75.7461C209.167 75.6159 208.965 75.4727 208.77 75.3164C208.574 75.1602 208.379 74.9844 208.184 74.7891C207.962 74.5677 207.786 74.3138 207.656 74.0273C207.526 73.7279 207.428 73.4219 207.363 73.1094C207.311 72.7839 207.279 72.4583 207.266 72.1328C207.266 71.8073 207.266 71.4883 207.266 71.1758V65.3555V65.375ZM219.492 75.1211L220.488 73.5391C220.749 73.7214 221.055 73.8906 221.406 74.0469C221.771 74.2031 222.227 74.2812 222.773 74.2812C223.49 74.2812 224.049 74.1706 224.453 73.9492C224.857 73.7279 225.059 73.4023 225.059 72.9727C225.059 72.6602 224.941 72.4128 224.707 72.2305C224.473 72.0352 224.173 71.8724 223.809 71.7422C223.457 71.599 223.073 71.4688 222.656 71.3516C222.253 71.2214 221.875 71.0651 221.523 70.8828C220.833 70.5182 220.312 70.1341 219.961 69.7305C219.622 69.3268 219.453 68.793 219.453 68.1289C219.453 67.582 219.564 67.1003 219.785 66.6836C220.02 66.2669 220.319 65.9219 220.684 65.6484C221.048 65.362 221.465 65.1471 221.934 65.0039C222.402 64.8607 222.878 64.7891 223.359 64.7891C224.01 64.7891 224.609 64.8607 225.156 65.0039C225.703 65.1341 226.23 65.362 226.738 65.6875L225.977 67.3086C225.586 67.0872 225.163 66.9375 224.707 66.8594C224.251 66.7682 223.802 66.7227 223.359 66.7227C222.878 66.7227 222.493 66.8333 222.207 67.0547C221.934 67.263 221.797 67.5951 221.797 68.0508C221.797 68.4023 221.921 68.6823 222.168 68.8906C222.428 69.0859 222.76 69.2617 223.164 69.418C223.568 69.5742 223.997 69.7305 224.453 69.8867C224.909 70.043 225.332 70.2448 225.723 70.4922C226.126 70.7266 226.458 71.026 226.719 71.3906C226.979 71.7552 227.109 72.224 227.109 72.7969C227.109 73.3568 226.999 73.8451 226.777 74.2617C226.556 74.6784 226.257 75.0234 225.879 75.2969C225.501 75.5703 225.065 75.7721 224.57 75.9023C224.076 76.0326 223.548 76.0977 222.988 76.0977C222.65 76.0977 222.337 76.0846 222.051 76.0586C221.764 76.0456 221.484 76.0065 221.211 75.9414C220.938 75.8763 220.664 75.7786 220.391 75.6484C220.117 75.5182 219.818 75.3424 219.492 75.1211ZM235.078 64.9258C235.833 64.9258 236.517 65.0755 237.129 65.375C237.741 65.6615 238.262 66.0586 238.691 66.5664C239.121 67.0742 239.453 67.6667 239.688 68.3438C239.922 69.0208 240.039 69.75 240.039 70.5312C240.039 71.3125 239.915 72.0482 239.668 72.7383C239.421 73.4154 239.069 74.0078 238.613 74.5156C238.171 75.0104 237.637 75.401 237.012 75.6875C236.4 75.9609 235.716 76.0977 234.961 76.0977C234.193 76.0977 233.49 75.9544 232.852 75.668C232.227 75.3815 231.693 74.9844 231.25 74.4766C230.82 73.9688 230.488 73.3763 230.254 72.6992C230.02 72.0221 229.902 71.2865 229.902 70.4922C229.902 69.6979 230.026 68.9557 230.273 68.2656C230.534 67.5755 230.885 66.9896 231.328 66.5078C231.784 66.013 232.331 65.6289 232.969 65.3555C233.607 65.069 234.31 64.9258 235.078 64.9258ZM234.922 74.2422C235.312 74.2422 235.664 74.151 235.977 73.9688C236.302 73.7734 236.576 73.513 236.797 73.1875C237.031 72.849 237.214 72.4518 237.344 71.9961C237.487 71.5404 237.559 71.0521 237.559 70.5312C237.559 70.0104 237.493 69.5221 237.363 69.0664C237.246 68.6107 237.077 68.2135 236.855 67.875C236.647 67.5234 236.387 67.2435 236.074 67.0352C235.762 66.8268 235.41 66.7227 235.02 66.7227C234.629 66.7227 234.271 66.8203 233.945 67.0156C233.62 67.2109 233.34 67.4779 233.105 67.8164C232.884 68.1419 232.708 68.5326 232.578 68.9883C232.461 69.431 232.402 69.9128 232.402 70.4336C232.402 70.9544 232.454 71.4492 232.559 71.918C232.676 72.3737 232.845 72.7708 233.066 73.1094C233.288 73.4479 233.548 73.7214 233.848 73.9297C234.16 74.138 234.518 74.2422 234.922 74.2422ZM245.723 66.2734C245.723 66.6641 245.586 66.9961 245.312 67.2695C245.039 67.543 244.707 67.6797 244.316 67.6797C243.926 67.6797 243.594 67.543 243.32 67.2695C243.06 66.9961 242.93 66.6641 242.93 66.2734C242.93 65.8828 243.066 65.5573 243.34 65.2969C243.613 65.0234 243.939 64.8867 244.316 64.8867C244.707 64.8867 245.039 65.0234 245.312 65.2969C245.586 65.5573 245.723 65.8828 245.723 66.2734ZM245.723 74.6914C245.723 75.082 245.586 75.4141 245.312 75.6875C245.039 75.9609 244.707 76.0977 244.316 76.0977C243.926 76.0977 243.594 75.9609 243.32 75.6875C243.06 75.4141 242.93 75.082 242.93 74.6914C242.93 74.3008 243.066 73.9753 243.34 73.7148C243.613 73.4414 243.939 73.3047 244.316 73.3047C244.707 73.3047 245.039 73.4414 245.312 73.7148C245.586 73.9753 245.723 74.3008 245.723 74.6914Z" fill="white"/>
<path d="M380.496 68.4023C380.496 69.5872 380.366 70.6029 380.105 71.4492C379.858 72.2826 379.539 72.9857 379.148 73.5586C378.758 74.1185 378.315 74.5612 377.82 74.8867C377.339 75.2122 376.87 75.4596 376.414 75.6289C375.958 75.7852 375.542 75.8893 375.164 75.9414C374.786 75.9805 374.507 76 374.324 76H368.875V61.6055H373.211C374.422 61.6055 375.483 61.8008 376.395 62.1914C377.319 62.569 378.081 63.0768 378.68 63.7148C379.292 64.3529 379.747 65.082 380.047 65.9023C380.346 66.7096 380.496 67.543 380.496 68.4023ZM373.543 74.2812C375.132 74.2812 376.277 73.7734 376.98 72.7578C377.684 71.7422 378.035 70.2708 378.035 68.3438C378.035 67.7448 377.964 67.1523 377.82 66.5664C377.677 65.9805 377.397 65.4531 376.98 64.9844C376.577 64.5026 376.023 64.1185 375.32 63.832C374.617 63.5326 373.706 63.3828 372.586 63.3828H371.219V74.2812H373.543ZM386.082 76H383.699V64.9844H386.082V76ZM386.297 61.4688C386.297 61.8594 386.16 62.1914 385.887 62.4648C385.613 62.7253 385.281 62.8555 384.891 62.8555C384.5 62.8555 384.168 62.7188 383.895 62.4453C383.634 62.1719 383.504 61.8464 383.504 61.4688C383.504 61.0781 383.641 60.7461 383.914 60.4727C384.188 60.1992 384.513 60.0625 384.891 60.0625C385.281 60.0625 385.613 60.1992 385.887 60.4727C386.16 60.7461 386.297 61.0781 386.297 61.4688ZM397.391 72.582V72.7383C397.391 72.8424 397.397 72.9987 397.41 73.207C397.423 73.4023 397.449 73.6042 397.488 73.8125C397.527 74.0208 397.586 74.2096 397.664 74.3789C397.755 74.5482 397.872 74.6589 398.016 74.7109L397.391 76.0195C397.221 76.0195 397.039 75.9805 396.844 75.9023C396.661 75.8242 396.479 75.7135 396.297 75.5703C396.128 75.4271 395.978 75.2708 395.848 75.1016C395.73 74.9193 395.639 74.724 395.574 74.5156C395.483 74.737 395.32 74.9453 395.086 75.1406C394.865 75.3229 394.611 75.4922 394.324 75.6484C394.038 75.7917 393.725 75.9023 393.387 75.9805C393.061 76.0586 392.755 76.0977 392.469 76.0977C392.026 76.0977 391.596 76.0391 391.18 75.9219C390.776 75.8047 390.418 75.6159 390.105 75.3555C389.793 75.0951 389.546 74.75 389.363 74.3203C389.194 73.8906 389.109 73.3633 389.109 72.7383C389.109 72.1393 389.233 71.625 389.48 71.1953C389.741 70.7526 390.066 70.3945 390.457 70.1211C390.861 69.8346 391.316 69.6263 391.824 69.4961C392.332 69.3529 392.846 69.2812 393.367 69.2812H395.027C395.027 68.6432 394.995 68.1354 394.93 67.7578C394.865 67.3802 394.754 67.1068 394.598 66.9375C394.441 66.7552 394.246 66.6445 394.012 66.6055C393.79 66.5534 393.523 66.5273 393.211 66.5273C392.924 66.5273 392.651 66.5664 392.391 66.6445C392.143 66.7096 391.909 66.7943 391.688 66.8984C391.479 66.9896 391.29 67.0938 391.121 67.2109C390.965 67.3281 390.848 67.4193 390.77 67.4844L389.891 66.1367C390.021 65.9935 390.216 65.8503 390.477 65.707C390.737 65.5508 391.036 65.4141 391.375 65.2969C391.714 65.1797 392.078 65.0885 392.469 65.0234C392.872 64.9453 393.289 64.9062 393.719 64.9062C394.109 64.9062 394.487 64.9453 394.852 65.0234C395.229 65.1016 395.568 65.2318 395.867 65.4141C396.18 65.5964 396.447 65.8438 396.668 66.1562C396.902 66.4557 397.065 66.8333 397.156 67.2891C397.247 67.7448 397.306 68.207 397.332 68.6758C397.371 69.1315 397.391 69.5872 397.391 70.043V72.582ZM395.047 70.668H393.797C393.536 70.668 393.263 70.694 392.977 70.7461C392.69 70.7982 392.423 70.8958 392.176 71.0391C391.928 71.1823 391.72 71.3906 391.551 71.6641C391.395 71.9245 391.316 72.263 391.316 72.6797C391.316 73.3307 391.46 73.7995 391.746 74.0859C392.046 74.3724 392.475 74.5156 393.035 74.5156C393.426 74.5156 393.797 74.4115 394.148 74.2031C394.513 73.9948 394.812 73.7148 395.047 73.3633V70.668ZM414.637 74.457C414.194 75.0169 413.712 75.4336 413.191 75.707C412.671 75.9674 412.007 76.0977 411.199 76.0977C410.431 76.0977 409.734 75.9544 409.109 75.668C408.484 75.3685 407.951 74.9714 407.508 74.4766C407.065 73.9688 406.727 73.3763 406.492 72.6992C406.271 72.0221 406.16 71.2865 406.16 70.4922C406.16 69.7109 406.284 68.9818 406.531 68.3047C406.779 67.6276 407.124 67.0417 407.566 66.5469C408.009 66.0391 408.543 65.6419 409.168 65.3555C409.793 65.069 410.49 64.9258 411.258 64.9258C412.065 64.9258 412.755 65.0625 413.328 65.3359C413.901 65.5964 414.409 66.0065 414.852 66.5664L413.797 67.8359C413.576 67.5755 413.27 67.3411 412.879 67.1328C412.488 66.9115 411.954 66.8008 411.277 66.8008C410.887 66.8008 410.529 66.8919 410.203 67.0742C409.878 67.2565 409.598 67.5104 409.363 67.8359C409.142 68.1615 408.966 68.5456 408.836 68.9883C408.719 69.431 408.66 69.9128 408.66 70.4336C408.66 70.9544 408.712 71.4427 408.816 71.8984C408.934 72.3411 409.103 72.7318 409.324 73.0703C409.546 73.4089 409.806 73.6758 410.105 73.8711C410.418 74.0664 410.776 74.1641 411.18 74.1641C411.766 74.1641 412.254 74.0729 412.645 73.8906C413.048 73.6953 413.419 73.4609 413.758 73.1875L414.637 74.457ZM422.801 64.9258C423.556 64.9258 424.24 65.0755 424.852 65.375C425.464 65.6615 425.984 66.0586 426.414 66.5664C426.844 67.0742 427.176 67.6667 427.41 68.3438C427.645 69.0208 427.762 69.75 427.762 70.5312C427.762 71.3125 427.638 72.0482 427.391 72.7383C427.143 73.4154 426.792 74.0078 426.336 74.5156C425.893 75.0104 425.359 75.401 424.734 75.6875C424.122 75.9609 423.439 76.0977 422.684 76.0977C421.915 76.0977 421.212 75.9544 420.574 75.668C419.949 75.3815 419.415 74.9844 418.973 74.4766C418.543 73.9688 418.211 73.3763 417.977 72.6992C417.742 72.0221 417.625 71.2865 417.625 70.4922C417.625 69.6979 417.749 68.9557 417.996 68.2656C418.257 67.5755 418.608 66.9896 419.051 66.5078C419.507 66.013 420.053 65.6289 420.691 65.3555C421.329 65.069 422.033 64.9258 422.801 64.9258ZM422.645 74.2422C423.035 74.2422 423.387 74.151 423.699 73.9688C424.025 73.7734 424.298 73.513 424.52 73.1875C424.754 72.849 424.936 72.4518 425.066 71.9961C425.21 71.5404 425.281 71.0521 425.281 70.5312C425.281 70.0104 425.216 69.5221 425.086 69.0664C424.969 68.6107 424.799 68.2135 424.578 67.875C424.37 67.5234 424.109 67.2435 423.797 67.0352C423.484 66.8268 423.133 66.7227 422.742 66.7227C422.352 66.7227 421.993 66.8203 421.668 67.0156C421.342 67.2109 421.062 67.4779 420.828 67.8164C420.607 68.1419 420.431 68.5326 420.301 68.9883C420.184 69.431 420.125 69.9128 420.125 70.4336C420.125 70.9544 420.177 71.4492 420.281 71.918C420.398 72.3737 420.568 72.7708 420.789 73.1094C421.01 73.4479 421.271 73.7214 421.57 73.9297C421.883 74.138 422.241 74.2422 422.645 74.2422ZM445.379 75.6289V76H443.035V70.0039C443.035 69.5612 443.029 69.1445 443.016 68.7539C443.016 68.3503 442.977 67.9922 442.898 67.6797C442.82 67.3672 442.69 67.1263 442.508 66.957C442.339 66.7747 442.072 66.6836 441.707 66.6836C441.642 66.6836 441.525 66.6966 441.355 66.7227C441.199 66.7357 441.01 66.7747 440.789 66.8398C440.568 66.8919 440.32 66.9831 440.047 67.1133C439.786 67.2435 439.526 67.4128 439.266 67.6211C439.266 68.1289 439.266 68.5326 439.266 68.832C439.279 69.1315 439.285 69.457 439.285 69.8086V76H436.922V70.0039C436.922 69.5612 436.922 69.1445 436.922 68.7539C436.922 68.3503 436.883 67.9922 436.805 67.6797C436.727 67.3672 436.596 67.1263 436.414 66.957C436.232 66.7747 435.965 66.6836 435.613 66.6836C435.496 66.6836 435.333 66.7031 435.125 66.7422C434.917 66.7682 434.695 66.8203 434.461 66.8984C434.24 66.9766 434.012 67.0742 433.777 67.1914C433.556 67.3086 433.367 67.4453 433.211 67.6016V76H430.828V64.9844H432.957L433.211 66.1172C433.536 65.8177 433.953 65.5443 434.461 65.2969C434.982 65.0365 435.522 64.9062 436.082 64.9062C436.707 64.9062 437.228 65.043 437.645 65.3164C438.061 65.5898 438.478 65.9935 438.895 66.5273C439.116 66.2799 439.363 66.0521 439.637 65.8438C439.91 65.6354 440.19 65.4596 440.477 65.3164C440.776 65.1732 441.069 65.0625 441.355 64.9844C441.642 64.9062 441.915 64.8672 442.176 64.8672C442.618 64.8672 443.035 64.9583 443.426 65.1406C443.816 65.3099 444.155 65.5573 444.441 65.8828C444.741 66.2083 444.969 66.599 445.125 67.0547C445.294 67.4974 445.379 67.9792 445.379 68.5V69.8086V75.6289ZM468.641 75.6289V76H466.297V70.0039C466.297 69.5612 466.29 69.1445 466.277 68.7539C466.277 68.3503 466.238 67.9922 466.16 67.6797C466.082 67.3672 465.952 67.1263 465.77 66.957C465.6 66.7747 465.333 66.6836 464.969 66.6836C464.904 66.6836 464.786 66.6966 464.617 66.7227C464.461 66.7357 464.272 66.7747 464.051 66.8398C463.829 66.8919 463.582 66.9831 463.309 67.1133C463.048 67.2435 462.788 67.4128 462.527 67.6211C462.527 68.1289 462.527 68.5326 462.527 68.832C462.54 69.1315 462.547 69.457 462.547 69.8086V76H460.184V70.0039C460.184 69.5612 460.184 69.1445 460.184 68.7539C460.184 68.3503 460.145 67.9922 460.066 67.6797C459.988 67.3672 459.858 67.1263 459.676 66.957C459.493 66.7747 459.227 66.6836 458.875 66.6836C458.758 66.6836 458.595 66.7031 458.387 66.7422C458.178 66.7682 457.957 66.8203 457.723 66.8984C457.501 66.9766 457.273 67.0742 457.039 67.1914C456.818 67.3086 456.629 67.4453 456.473 67.6016V76H454.09V64.9844H456.219L456.473 66.1172C456.798 65.8177 457.215 65.5443 457.723 65.2969C458.243 65.0365 458.784 64.9062 459.344 64.9062C459.969 64.9062 460.49 65.043 460.906 65.3164C461.323 65.5898 461.74 65.9935 462.156 66.5273C462.378 66.2799 462.625 66.0521 462.898 65.8438C463.172 65.6354 463.452 65.4596 463.738 65.3164C464.038 65.1732 464.331 65.0625 464.617 64.9844C464.904 64.9062 465.177 64.8672 465.438 64.8672C465.88 64.8672 466.297 64.9583 466.688 65.1406C467.078 65.3099 467.417 65.5573 467.703 65.8828C468.003 66.2083 468.23 66.599 468.387 67.0547C468.556 67.4974 468.641 67.9792 468.641 68.5V69.8086V75.6289ZM479.988 72.582V72.7383C479.988 72.8424 479.995 72.9987 480.008 73.207C480.021 73.4023 480.047 73.6042 480.086 73.8125C480.125 74.0208 480.184 74.2096 480.262 74.3789C480.353 74.5482 480.47 74.6589 480.613 74.7109L479.988 76.0195C479.819 76.0195 479.637 75.9805 479.441 75.9023C479.259 75.8242 479.077 75.7135 478.895 75.5703C478.725 75.4271 478.576 75.2708 478.445 75.1016C478.328 74.9193 478.237 74.724 478.172 74.5156C478.081 74.737 477.918 74.9453 477.684 75.1406C477.462 75.3229 477.208 75.4922 476.922 75.6484C476.635 75.7917 476.323 75.9023 475.984 75.9805C475.659 76.0586 475.353 76.0977 475.066 76.0977C474.624 76.0977 474.194 76.0391 473.777 75.9219C473.374 75.8047 473.016 75.6159 472.703 75.3555C472.391 75.0951 472.143 74.75 471.961 74.3203C471.792 73.8906 471.707 73.3633 471.707 72.7383C471.707 72.1393 471.831 71.625 472.078 71.1953C472.339 70.7526 472.664 70.3945 473.055 70.1211C473.458 69.8346 473.914 69.6263 474.422 69.4961C474.93 69.3529 475.444 69.2812 475.965 69.2812H477.625C477.625 68.6432 477.592 68.1354 477.527 67.7578C477.462 67.3802 477.352 67.1068 477.195 66.9375C477.039 66.7552 476.844 66.6445 476.609 66.6055C476.388 66.5534 476.121 66.5273 475.809 66.5273C475.522 66.5273 475.249 66.5664 474.988 66.6445C474.741 66.7096 474.507 66.7943 474.285 66.8984C474.077 66.9896 473.888 67.0938 473.719 67.2109C473.562 67.3281 473.445 67.4193 473.367 67.4844L472.488 66.1367C472.618 65.9935 472.814 65.8503 473.074 65.707C473.335 65.5508 473.634 65.4141 473.973 65.2969C474.311 65.1797 474.676 65.0885 475.066 65.0234C475.47 64.9453 475.887 64.9062 476.316 64.9062C476.707 64.9062 477.085 64.9453 477.449 65.0234C477.827 65.1016 478.165 65.2318 478.465 65.4141C478.777 65.5964 479.044 65.8438 479.266 66.1562C479.5 66.4557 479.663 66.8333 479.754 67.2891C479.845 67.7448 479.904 68.207 479.93 68.6758C479.969 69.1315 479.988 69.5872 479.988 70.043V72.582ZM477.645 70.668H476.395C476.134 70.668 475.861 70.694 475.574 70.7461C475.288 70.7982 475.021 70.8958 474.773 71.0391C474.526 71.1823 474.318 71.3906 474.148 71.6641C473.992 71.9245 473.914 72.263 473.914 72.6797C473.914 73.3307 474.057 73.7995 474.344 74.0859C474.643 74.3724 475.073 74.5156 475.633 74.5156C476.023 74.5156 476.395 74.4115 476.746 74.2031C477.111 73.9948 477.41 73.7148 477.645 73.3633V70.668ZM486.082 76H483.699V64.9844H486.082V76ZM486.297 61.4688C486.297 61.8594 486.16 62.1914 485.887 62.4648C485.613 62.7253 485.281 62.8555 484.891 62.8555C484.5 62.8555 484.168 62.7188 483.895 62.4453C483.634 62.1719 483.504 61.8464 483.504 61.4688C483.504 61.0781 483.641 60.7461 483.914 60.4727C484.188 60.1992 484.513 60.0625 484.891 60.0625C485.281 60.0625 485.613 60.1992 485.887 60.4727C486.16 60.7461 486.297 61.0781 486.297 61.4688ZM494.305 64.9258C495.06 64.9258 495.743 65.0755 496.355 65.375C496.967 65.6615 497.488 66.0586 497.918 66.5664C498.348 67.0742 498.68 67.6667 498.914 68.3438C499.148 69.0208 499.266 69.75 499.266 70.5312C499.266 71.3125 499.142 72.0482 498.895 72.7383C498.647 73.4154 498.296 74.0078 497.84 74.5156C497.397 75.0104 496.863 75.401 496.238 75.6875C495.626 75.9609 494.943 76.0977 494.188 76.0977C493.419 76.0977 492.716 75.9544 492.078 75.668C491.453 75.3815 490.919 74.9844 490.477 74.4766C490.047 73.9688 489.715 73.3763 489.48 72.6992C489.246 72.0221 489.129 71.2865 489.129 70.4922C489.129 69.6979 489.253 68.9557 489.5 68.2656C489.76 67.5755 490.112 66.9896 490.555 66.5078C491.01 66.013 491.557 65.6289 492.195 65.3555C492.833 65.069 493.536 64.9258 494.305 64.9258ZM494.148 74.2422C494.539 74.2422 494.891 74.151 495.203 73.9688C495.529 73.7734 495.802 73.513 496.023 73.1875C496.258 72.849 496.44 72.4518 496.57 71.9961C496.714 71.5404 496.785 71.0521 496.785 70.5312C496.785 70.0104 496.72 69.5221 496.59 69.0664C496.473 68.6107 496.303 68.2135 496.082 67.875C495.874 67.5234 495.613 67.2435 495.301 67.0352C494.988 66.8268 494.637 66.7227 494.246 66.7227C493.855 66.7227 493.497 66.8203 493.172 67.0156C492.846 67.2109 492.566 67.4779 492.332 67.8164C492.111 68.1419 491.935 68.5326 491.805 68.9883C491.688 69.431 491.629 69.9128 491.629 70.4336C491.629 70.9544 491.681 71.4492 491.785 71.918C491.902 72.3737 492.072 72.7708 492.293 73.1094C492.514 73.4479 492.775 73.7214 493.074 73.9297C493.387 74.138 493.745 74.2422 494.148 74.2422ZM508.523 67.3672C508.159 67.263 507.716 67.2044 507.195 67.1914C506.727 67.1914 506.258 67.25 505.789 67.3672C505.333 67.4714 504.969 67.6536 504.695 67.9141V72.0938V72.1328V76H502.332V64.9844H504.441L504.695 66.1172C504.891 65.9219 505.092 65.7461 505.301 65.5898C505.522 65.4336 505.776 65.3099 506.062 65.2188C506.349 65.1146 506.688 65.0365 507.078 64.9844C507.469 64.9323 507.951 64.9062 508.523 64.9062V67.3672ZM516.316 65.375V64.9844H518.699V70.9805C518.699 71.4362 518.719 71.8659 518.758 72.2695C518.797 72.6602 518.882 73.0052 519.012 73.3047C519.142 73.6042 519.337 73.8451 519.598 74.0273C519.858 74.2096 520.203 74.3008 520.633 74.3008C520.763 74.3008 520.945 74.2878 521.18 74.2617C521.414 74.2227 521.648 74.1641 521.883 74.0859C522.13 74.0078 522.358 73.9102 522.566 73.793C522.788 73.6758 522.951 73.5391 523.055 73.3828V73.2461V73.2266V68.8516V68.832V64.9844H525.438V76H523.309L523.055 74.8672C522.898 75.0104 522.703 75.1536 522.469 75.2969C522.234 75.4401 521.974 75.5768 521.688 75.707C521.414 75.8242 521.128 75.9219 520.828 76C520.542 76.0651 520.255 76.0977 519.969 76.0977C519.656 76.0977 519.376 76.0651 519.129 76C518.882 75.9479 518.647 75.8633 518.426 75.7461C518.217 75.6159 518.016 75.4727 517.82 75.3164C517.625 75.1602 517.43 74.9844 517.234 74.7891C517.013 74.5677 516.837 74.3138 516.707 74.0273C516.577 73.7279 516.479 73.4219 516.414 73.1094C516.362 72.7839 516.329 72.4583 516.316 72.1328C516.316 71.8073 516.316 71.4883 516.316 71.1758V65.3555V65.375ZM528.543 75.1211L529.539 73.5391C529.799 73.7214 530.105 73.8906 530.457 74.0469C530.822 74.2031 531.277 74.2812 531.824 74.2812C532.54 74.2812 533.1 74.1706 533.504 73.9492C533.908 73.7279 534.109 73.4023 534.109 72.9727C534.109 72.6602 533.992 72.4128 533.758 72.2305C533.523 72.0352 533.224 71.8724 532.859 71.7422C532.508 71.599 532.124 71.4688 531.707 71.3516C531.303 71.2214 530.926 71.0651 530.574 70.8828C529.884 70.5182 529.363 70.1341 529.012 69.7305C528.673 69.3268 528.504 68.793 528.504 68.1289C528.504 67.582 528.615 67.1003 528.836 66.6836C529.07 66.2669 529.37 65.9219 529.734 65.6484C530.099 65.362 530.516 65.1471 530.984 65.0039C531.453 64.8607 531.928 64.7891 532.41 64.7891C533.061 64.7891 533.66 64.8607 534.207 65.0039C534.754 65.1341 535.281 65.362 535.789 65.6875L535.027 67.3086C534.637 67.0872 534.214 66.9375 533.758 66.8594C533.302 66.7682 532.853 66.7227 532.41 66.7227C531.928 66.7227 531.544 66.8333 531.258 67.0547C530.984 67.263 530.848 67.5951 530.848 68.0508C530.848 68.4023 530.971 68.6823 531.219 68.8906C531.479 69.0859 531.811 69.2617 532.215 69.418C532.618 69.5742 533.048 69.7305 533.504 69.8867C533.96 70.043 534.383 70.2448 534.773 70.4922C535.177 70.7266 535.509 71.026 535.77 71.3906C536.03 71.7552 536.16 72.224 536.16 72.7969C536.16 73.3568 536.049 73.8451 535.828 74.2617C535.607 74.6784 535.307 75.0234 534.93 75.2969C534.552 75.5703 534.116 75.7721 533.621 75.9023C533.126 76.0326 532.599 76.0977 532.039 76.0977C531.701 76.0977 531.388 76.0846 531.102 76.0586C530.815 76.0456 530.535 76.0065 530.262 75.9414C529.988 75.8763 529.715 75.7786 529.441 75.6484C529.168 75.5182 528.868 75.3424 528.543 75.1211ZM544.129 64.9258C544.884 64.9258 545.568 65.0755 546.18 65.375C546.792 65.6615 547.312 66.0586 547.742 66.5664C548.172 67.0742 548.504 67.6667 548.738 68.3438C548.973 69.0208 549.09 69.75 549.09 70.5312C549.09 71.3125 548.966 72.0482 548.719 72.7383C548.471 73.4154 548.12 74.0078 547.664 74.5156C547.221 75.0104 546.688 75.401 546.062 75.6875C545.451 75.9609 544.767 76.0977 544.012 76.0977C543.243 76.0977 542.54 75.9544 541.902 75.668C541.277 75.3815 540.743 74.9844 540.301 74.4766C539.871 73.9688 539.539 73.3763 539.305 72.6992C539.07 72.0221 538.953 71.2865 538.953 70.4922C538.953 69.6979 539.077 68.9557 539.324 68.2656C539.585 67.5755 539.936 66.9896 540.379 66.5078C540.835 66.013 541.382 65.6289 542.02 65.3555C542.658 65.069 543.361 64.9258 544.129 64.9258ZM543.973 74.2422C544.363 74.2422 544.715 74.151 545.027 73.9688C545.353 73.7734 545.626 73.513 545.848 73.1875C546.082 72.849 546.264 72.4518 546.395 71.9961C546.538 71.5404 546.609 71.0521 546.609 70.5312C546.609 70.0104 546.544 69.5221 546.414 69.0664C546.297 68.6107 546.128 68.2135 545.906 67.875C545.698 67.5234 545.438 67.2435 545.125 67.0352C544.812 66.8268 544.461 66.7227 544.07 66.7227C543.68 66.7227 543.322 66.8203 542.996 67.0156C542.671 67.2109 542.391 67.4779 542.156 67.8164C541.935 68.1419 541.759 68.5326 541.629 68.9883C541.512 69.431 541.453 69.9128 541.453 70.4336C541.453 70.9544 541.505 71.4492 541.609 71.918C541.727 72.3737 541.896 72.7708 542.117 73.1094C542.339 73.4479 542.599 73.7214 542.898 73.9297C543.211 74.138 543.569 74.2422 543.973 74.2422ZM554.773 66.2734C554.773 66.6641 554.637 66.9961 554.363 67.2695C554.09 67.543 553.758 67.6797 553.367 67.6797C552.977 67.6797 552.645 67.543 552.371 67.2695C552.111 66.9961 551.98 66.6641 551.98 66.2734C551.98 65.8828 552.117 65.5573 552.391 65.2969C552.664 65.0234 552.99 64.8867 553.367 64.8867C553.758 64.8867 554.09 65.0234 554.363 65.2969C554.637 65.5573 554.773 65.8828 554.773 66.2734ZM554.773 74.6914C554.773 75.082 554.637 75.4141 554.363 75.6875C554.09 75.9609 553.758 76.0977 553.367 76.0977C552.977 76.0977 552.645 75.9609 552.371 75.6875C552.111 75.4141 551.98 75.082 551.98 74.6914C551.98 74.3008 552.117 73.9753 552.391 73.7148C552.664 73.4414 552.99 73.3047 553.367 73.3047C553.758 73.3047 554.09 73.4414 554.363 73.7148C554.637 73.9753 554.773 74.3008 554.773 74.6914Z" fill="white"/>
<path d="M142.525 135.605V142.734C142.525 143.945 142.389 145.013 142.115 145.938C141.855 146.862 141.484 147.63 141.002 148.242C140.52 148.854 139.934 149.316 139.244 149.629C138.554 149.941 137.786 150.098 136.939 150.098C136.08 150.098 135.305 149.941 134.615 149.629C133.938 149.316 133.352 148.854 132.857 148.242C132.376 147.63 131.998 146.862 131.725 145.938C131.464 145.013 131.334 143.945 131.334 142.734V135.605H133.717V142.5C133.717 143.568 133.788 144.466 133.932 145.195C134.088 145.924 134.303 146.51 134.576 146.953C134.85 147.383 135.182 147.695 135.572 147.891C135.963 148.086 136.399 148.184 136.881 148.184C137.376 148.184 137.825 148.092 138.229 147.91C138.632 147.728 138.977 147.422 139.264 146.992C139.55 146.562 139.771 145.983 139.928 145.254C140.084 144.525 140.162 143.607 140.162 142.5V135.605H142.525ZM145.592 149.121L146.588 147.539C146.848 147.721 147.154 147.891 147.506 148.047C147.87 148.203 148.326 148.281 148.873 148.281C149.589 148.281 150.149 148.171 150.553 147.949C150.956 147.728 151.158 147.402 151.158 146.973C151.158 146.66 151.041 146.413 150.807 146.23C150.572 146.035 150.273 145.872 149.908 145.742C149.557 145.599 149.173 145.469 148.756 145.352C148.352 145.221 147.975 145.065 147.623 144.883C146.933 144.518 146.412 144.134 146.061 143.73C145.722 143.327 145.553 142.793 145.553 142.129C145.553 141.582 145.663 141.1 145.885 140.684C146.119 140.267 146.419 139.922 146.783 139.648C147.148 139.362 147.564 139.147 148.033 139.004C148.502 138.861 148.977 138.789 149.459 138.789C150.11 138.789 150.709 138.861 151.256 139.004C151.803 139.134 152.33 139.362 152.838 139.688L152.076 141.309C151.686 141.087 151.262 140.938 150.807 140.859C150.351 140.768 149.902 140.723 149.459 140.723C148.977 140.723 148.593 140.833 148.307 141.055C148.033 141.263 147.896 141.595 147.896 142.051C147.896 142.402 148.02 142.682 148.268 142.891C148.528 143.086 148.86 143.262 149.264 143.418C149.667 143.574 150.097 143.73 150.553 143.887C151.008 144.043 151.432 144.245 151.822 144.492C152.226 144.727 152.558 145.026 152.818 145.391C153.079 145.755 153.209 146.224 153.209 146.797C153.209 147.357 153.098 147.845 152.877 148.262C152.656 148.678 152.356 149.023 151.979 149.297C151.601 149.57 151.165 149.772 150.67 149.902C150.175 150.033 149.648 150.098 149.088 150.098C148.749 150.098 148.437 150.085 148.15 150.059C147.864 150.046 147.584 150.007 147.311 149.941C147.037 149.876 146.764 149.779 146.49 149.648C146.217 149.518 145.917 149.342 145.592 149.121ZM161.178 138.926C161.933 138.926 162.617 139.076 163.229 139.375C163.84 139.661 164.361 140.059 164.791 140.566C165.221 141.074 165.553 141.667 165.787 142.344C166.021 143.021 166.139 143.75 166.139 144.531C166.139 145.312 166.015 146.048 165.768 146.738C165.52 147.415 165.169 148.008 164.713 148.516C164.27 149.01 163.736 149.401 163.111 149.688C162.499 149.961 161.816 150.098 161.061 150.098C160.292 150.098 159.589 149.954 158.951 149.668C158.326 149.382 157.792 148.984 157.35 148.477C156.92 147.969 156.588 147.376 156.354 146.699C156.119 146.022 156.002 145.286 156.002 144.492C156.002 143.698 156.126 142.956 156.373 142.266C156.633 141.576 156.985 140.99 157.428 140.508C157.883 140.013 158.43 139.629 159.068 139.355C159.706 139.069 160.41 138.926 161.178 138.926ZM161.021 148.242C161.412 148.242 161.764 148.151 162.076 147.969C162.402 147.773 162.675 147.513 162.896 147.188C163.131 146.849 163.313 146.452 163.443 145.996C163.587 145.54 163.658 145.052 163.658 144.531C163.658 144.01 163.593 143.522 163.463 143.066C163.346 142.611 163.176 142.214 162.955 141.875C162.747 141.523 162.486 141.243 162.174 141.035C161.861 140.827 161.51 140.723 161.119 140.723C160.729 140.723 160.37 140.82 160.045 141.016C159.719 141.211 159.439 141.478 159.205 141.816C158.984 142.142 158.808 142.533 158.678 142.988C158.561 143.431 158.502 143.913 158.502 144.434C158.502 144.954 158.554 145.449 158.658 145.918C158.775 146.374 158.945 146.771 159.166 147.109C159.387 147.448 159.648 147.721 159.947 147.93C160.26 148.138 160.618 148.242 161.021 148.242ZM171.822 140.273C171.822 140.664 171.686 140.996 171.412 141.27C171.139 141.543 170.807 141.68 170.416 141.68C170.025 141.68 169.693 141.543 169.42 141.27C169.16 140.996 169.029 140.664 169.029 140.273C169.029 139.883 169.166 139.557 169.439 139.297C169.713 139.023 170.038 138.887 170.416 138.887C170.807 138.887 171.139 139.023 171.412 139.297C171.686 139.557 171.822 139.883 171.822 140.273ZM171.822 148.691C171.822 149.082 171.686 149.414 171.412 149.688C171.139 149.961 170.807 150.098 170.416 150.098C170.025 150.098 169.693 149.961 169.42 149.688C169.16 149.414 169.029 149.082 169.029 148.691C169.029 148.301 169.166 147.975 169.439 147.715C169.713 147.441 170.038 147.305 170.416 147.305C170.807 147.305 171.139 147.441 171.412 147.715C171.686 147.975 171.822 148.301 171.822 148.691Z" fill="white"/>
<path d="M459.525 135.605V142.734C459.525 143.945 459.389 145.013 459.115 145.938C458.855 146.862 458.484 147.63 458.002 148.242C457.52 148.854 456.934 149.316 456.244 149.629C455.554 149.941 454.786 150.098 453.939 150.098C453.08 150.098 452.305 149.941 451.615 149.629C450.938 149.316 450.352 148.854 449.857 148.242C449.376 147.63 448.998 146.862 448.725 145.938C448.464 145.013 448.334 143.945 448.334 142.734V135.605H450.717V142.5C450.717 143.568 450.788 144.466 450.932 145.195C451.088 145.924 451.303 146.51 451.576 146.953C451.85 147.383 452.182 147.695 452.572 147.891C452.963 148.086 453.399 148.184 453.881 148.184C454.376 148.184 454.825 148.092 455.229 147.91C455.632 147.728 455.977 147.422 456.264 146.992C456.55 146.562 456.771 145.983 456.928 145.254C457.084 144.525 457.162 143.607 457.162 142.5V135.605H459.525ZM462.592 149.121L463.588 147.539C463.848 147.721 464.154 147.891 464.506 148.047C464.87 148.203 465.326 148.281 465.873 148.281C466.589 148.281 467.149 148.171 467.553 147.949C467.956 147.728 468.158 147.402 468.158 146.973C468.158 146.66 468.041 146.413 467.807 146.23C467.572 146.035 467.273 145.872 466.908 145.742C466.557 145.599 466.173 145.469 465.756 145.352C465.352 145.221 464.975 145.065 464.623 144.883C463.933 144.518 463.412 144.134 463.061 143.73C462.722 143.327 462.553 142.793 462.553 142.129C462.553 141.582 462.663 141.1 462.885 140.684C463.119 140.267 463.419 139.922 463.783 139.648C464.148 139.362 464.564 139.147 465.033 139.004C465.502 138.861 465.977 138.789 466.459 138.789C467.11 138.789 467.709 138.861 468.256 139.004C468.803 139.134 469.33 139.362 469.838 139.688L469.076 141.309C468.686 141.087 468.262 140.938 467.807 140.859C467.351 140.768 466.902 140.723 466.459 140.723C465.977 140.723 465.593 140.833 465.307 141.055C465.033 141.263 464.896 141.595 464.896 142.051C464.896 142.402 465.02 142.682 465.268 142.891C465.528 143.086 465.86 143.262 466.264 143.418C466.667 143.574 467.097 143.73 467.553 143.887C468.008 144.043 468.432 144.245 468.822 144.492C469.226 144.727 469.558 145.026 469.818 145.391C470.079 145.755 470.209 146.224 470.209 146.797C470.209 147.357 470.098 147.845 469.877 148.262C469.656 148.678 469.356 149.023 468.979 149.297C468.601 149.57 468.165 149.772 467.67 149.902C467.175 150.033 466.648 150.098 466.088 150.098C465.749 150.098 465.437 150.085 465.15 150.059C464.864 150.046 464.584 150.007 464.311 149.941C464.037 149.876 463.764 149.779 463.49 149.648C463.217 149.518 462.917 149.342 462.592 149.121ZM478.178 138.926C478.933 138.926 479.617 139.076 480.229 139.375C480.84 139.661 481.361 140.059 481.791 140.566C482.221 141.074 482.553 141.667 482.787 142.344C483.021 143.021 483.139 143.75 483.139 144.531C483.139 145.312 483.015 146.048 482.768 146.738C482.52 147.415 482.169 148.008 481.713 148.516C481.27 149.01 480.736 149.401 480.111 149.688C479.499 149.961 478.816 150.098 478.061 150.098C477.292 150.098 476.589 149.954 475.951 149.668C475.326 149.382 474.792 148.984 474.35 148.477C473.92 147.969 473.588 147.376 473.354 146.699C473.119 146.022 473.002 145.286 473.002 144.492C473.002 143.698 473.126 142.956 473.373 142.266C473.633 141.576 473.985 140.99 474.428 140.508C474.883 140.013 475.43 139.629 476.068 139.355C476.706 139.069 477.41 138.926 478.178 138.926ZM478.021 148.242C478.412 148.242 478.764 148.151 479.076 147.969C479.402 147.773 479.675 147.513 479.896 147.188C480.131 146.849 480.313 146.452 480.443 145.996C480.587 145.54 480.658 145.052 480.658 144.531C480.658 144.01 480.593 143.522 480.463 143.066C480.346 142.611 480.176 142.214 479.955 141.875C479.747 141.523 479.486 141.243 479.174 141.035C478.861 140.827 478.51 140.723 478.119 140.723C477.729 140.723 477.37 140.82 477.045 141.016C476.719 141.211 476.439 141.478 476.205 141.816C475.984 142.142 475.808 142.533 475.678 142.988C475.561 143.431 475.502 143.913 475.502 144.434C475.502 144.954 475.554 145.449 475.658 145.918C475.775 146.374 475.945 146.771 476.166 147.109C476.387 147.448 476.648 147.721 476.947 147.93C477.26 148.138 477.618 148.242 478.021 148.242ZM488.822 140.273C488.822 140.664 488.686 140.996 488.412 141.27C488.139 141.543 487.807 141.68 487.416 141.68C487.025 141.68 486.693 141.543 486.42 141.27C486.16 140.996 486.029 140.664 486.029 140.273C486.029 139.883 486.166 139.557 486.439 139.297C486.713 139.023 487.038 138.887 487.416 138.887C487.807 138.887 488.139 139.023 488.412 139.297C488.686 139.557 488.822 139.883 488.822 140.273ZM488.822 148.691C488.822 149.082 488.686 149.414 488.412 149.688C488.139 149.961 487.807 150.098 487.416 150.098C487.025 150.098 486.693 149.961 486.42 149.688C486.16 149.414 486.029 149.082 486.029 148.691C486.029 148.301 486.166 147.975 486.439 147.715C486.713 147.441 487.038 147.305 487.416 147.305C487.807 147.305 488.139 147.441 488.412 147.715C488.686 147.975 488.822 148.301 488.822 148.691Z" fill="white"/>
<defs>
<linearGradient id="paint0_linear_535_21" x1="0" y1="103.5" x2="615" y2="103.5" gradientUnits="userSpaceOnUse">
<stop stop-color="#54A5BA"/>
<stop offset="1" stop-color="#093048"/>
</linearGradient>
</defs>
</svg>
