<svg width="200" height="206" viewBox="0 0 200 206" fill="none" xmlns="http://www.w3.org/2000/svg">
<path d="M26.43 106L36.51 42.55H49.56L63.96 79.27L89.97 42.55H104.19L94.11 106H79.17L84.66 71.35L66.48 96.64H57.57L46.86 71.71L41.37 106H26.43ZM139.181 106.99C133.121 106.99 127.841 105.88 123.341 103.66C118.841 101.38 115.331 98.14 112.811 93.94C110.351 89.68 109.121 84.55 109.121 78.55C109.121 71.23 110.561 64.81 113.441 59.29C116.321 53.71 120.341 49.36 125.501 46.24C130.721 43.12 136.751 41.56 143.591 41.56C149.651 41.56 154.931 42.7 159.431 44.98C163.931 47.2 167.411 50.44 169.871 54.7C172.391 58.9 173.651 63.97 173.651 69.91C173.651 77.29 172.211 83.77 169.331 89.35C166.451 94.87 162.431 99.19 157.271 102.31C152.111 105.43 146.081 106.99 139.181 106.99ZM139.361 93.13C142.961 93.13 146.021 92.17 148.541 90.25C151.121 88.33 153.101 85.66 154.481 82.24C155.861 78.76 156.551 74.77 156.551 70.27C156.551 65.23 155.351 61.51 152.951 59.11C150.611 56.65 147.401 55.42 143.321 55.42C139.781 55.42 136.721 56.38 134.141 58.3C131.621 60.22 129.671 62.92 128.291 66.4C126.971 69.82 126.311 73.78 126.311 78.28C126.311 83.32 127.481 87.07 129.821 89.53C132.161 91.93 135.341 93.13 139.361 93.13Z" fill="white"/>
<path d="M19.915 146V114.275H32.605C35.875 114.275 38.395 115.01 40.165 116.48C41.965 117.92 42.865 119.945 42.865 122.555C42.865 124.295 42.415 125.78 41.515 127.01C40.615 128.24 39.37 129.14 37.78 129.71C39.61 130.19 41.035 131.075 42.055 132.365C43.105 133.655 43.63 135.29 43.63 137.27C43.63 140.09 42.715 142.25 40.885 143.75C39.055 145.25 36.475 146 33.145 146H19.915ZM23.515 128.45H32.065C36.835 128.45 39.22 126.59 39.22 122.87C39.22 119.12 36.835 117.245 32.065 117.245H23.515V128.45ZM23.515 143.03H32.785C37.585 143.03 39.985 141.095 39.985 137.225C39.985 133.355 37.585 131.42 32.785 131.42H23.515V143.03ZM56.7152 146.405C55.2152 146.405 53.8652 146.12 52.6652 145.55C51.4952 144.95 50.5652 144.14 49.8752 143.12C49.1852 142.1 48.8402 140.96 48.8402 139.7C48.8402 138.11 49.2452 136.85 50.0552 135.92C50.8952 134.99 52.2602 134.33 54.1502 133.94C56.0702 133.52 58.6802 133.31 61.9802 133.31H63.4202V131.915C63.4202 130.055 63.0302 128.72 62.2502 127.91C61.5002 127.07 60.2852 126.65 58.6052 126.65C57.2852 126.65 56.0102 126.845 54.7802 127.235C53.5502 127.595 52.2902 128.195 51.0002 129.035L49.7402 126.38C50.8802 125.57 52.2602 124.925 53.8802 124.445C55.5302 123.965 57.1052 123.725 58.6052 123.725C61.4252 123.725 63.5102 124.415 64.8602 125.795C66.2402 127.175 66.9302 129.32 66.9302 132.23V146H63.5102V142.22C62.9402 143.51 62.0552 144.53 60.8552 145.28C59.6852 146.03 58.3052 146.405 56.7152 146.405ZM57.3002 143.66C59.1002 143.66 60.5702 143.045 61.7102 141.815C62.8502 140.555 63.4202 138.965 63.4202 137.045V135.695H62.0252C59.5952 135.695 57.6752 135.815 56.2652 136.055C54.8852 136.265 53.9102 136.655 53.3402 137.225C52.8002 137.765 52.5302 138.515 52.5302 139.475C52.5302 140.705 52.9502 141.71 53.7902 142.49C54.6602 143.27 55.8302 143.66 57.3002 143.66ZM73.6925 146V124.13H77.2475V127.865C77.9675 126.485 78.9875 125.45 80.3075 124.76C81.6275 124.07 83.1125 123.725 84.7625 123.725C89.9525 123.725 92.5475 126.605 92.5475 132.365V146H88.9025V132.59C88.9025 130.55 88.4975 129.065 87.6875 128.135C86.9075 127.175 85.6475 126.695 83.9075 126.695C81.8975 126.695 80.2925 127.325 79.0925 128.585C77.9225 129.815 77.3375 131.465 77.3375 133.535V146H73.6925ZM99.2686 146V114.275H102.914V133.85H103.004L113.129 124.13H117.764L106.784 134.66L118.709 146H114.074L103.004 135.74H102.914V146H99.2686ZM121.319 118.685V114.59H125.819V118.685H121.319ZM121.769 146V124.13H125.414V146H121.769ZM132.228 146V124.13H135.783V127.865C136.503 126.485 137.523 125.45 138.843 124.76C140.163 124.07 141.648 123.725 143.298 123.725C148.488 123.725 151.083 126.605 151.083 132.365V146H147.438V132.59C147.438 130.55 147.033 129.065 146.223 128.135C145.443 127.175 144.183 126.695 142.443 126.695C140.433 126.695 138.828 127.325 137.628 128.585C136.458 129.815 135.873 131.465 135.873 133.535V146H132.228ZM167.479 154.505C165.589 154.505 163.804 154.25 162.124 153.74C160.474 153.26 159.004 152.525 157.714 151.535L158.929 148.88C160.279 149.84 161.614 150.53 162.934 150.95C164.284 151.37 165.739 151.58 167.299 151.58C171.619 151.58 173.779 149.36 173.779 144.92V141.05C173.149 142.43 172.159 143.525 170.809 144.335C169.489 145.115 167.974 145.505 166.264 145.505C164.254 145.505 162.514 145.04 161.044 144.11C159.574 143.18 158.434 141.905 157.624 140.285C156.844 138.635 156.454 136.73 156.454 134.57C156.454 132.41 156.844 130.52 157.624 128.9C158.434 127.25 159.574 125.975 161.044 125.075C162.514 124.175 164.254 123.725 166.264 123.725C167.974 123.725 169.489 124.115 170.809 124.895C172.159 125.675 173.149 126.74 173.779 128.09V124.13H177.334V144.425C177.334 147.785 176.494 150.305 174.814 151.985C173.164 153.665 170.719 154.505 167.479 154.505ZM166.939 142.535C169.039 142.535 170.704 141.815 171.934 140.375C173.164 138.935 173.779 137 173.779 134.57C173.779 132.14 173.164 130.22 171.934 128.81C170.704 127.37 169.039 126.65 166.939 126.65C164.869 126.65 163.219 127.37 161.989 128.81C160.759 130.22 160.144 132.14 160.144 134.57C160.144 137 160.759 138.935 161.989 140.375C163.219 141.815 164.869 142.535 166.939 142.535Z" fill="white"/>
</svg>
